<?xml version="1.0" encoding="UTF-8"?>
<svg xmlns="http://www.w3.org/2000/svg" xmlns:xlink="http://www.w3.org/1999/xlink" version="1.2" >
<font id="Cera PRO Medium">
<font-face  font-family="Cera PRO" units-per-em="1000" ascent="808" descent="-192" font-style="normal" font-weight="500" font-stretch="normal" cap-height="660" x-height="480" underline-position="-62" underline-thickness="76" />
<missing-glyph  horiz-adv-x="710" d="M83 660 L627 660 L627 0 L83 0 L83 660 Z M552 64 L552 592 L156 592 L552 64 Z " />
<glyph glyph-name="space" unicode="&#x20;" horiz-adv-x="280" d="" />
<glyph glyph-name="A" unicode="A" horiz-adv-x="662" d="M526 0 L479 110 L182 110 L135 0 L22 0 L313 671 L349 671 L640 0 L526 0 Z M441 201 L331 474 L220 201 L441 201 Z " />
<glyph glyph-name="Aacute" unicode="&#xc1;" horiz-adv-x="662" d="M497 891 L369 724 L291 724 L370 910 L497 910 L497 891 Z M526 0 L479 110 L182 110 L135 0 L22 0 L313 671 L349 671 L640 0 L526 0 Z M441 201 L331 474 L220 201 L441 201 Z " />
<glyph glyph-name="Abreve" unicode="&#x102;" horiz-adv-x="662" d="M331 735 Q284 735 247 756 Q210 777 189.5 814 Q169 851 169 897 L254 897 Q254 859 275.5 837 Q297 815 331 815 Q365 815 386.5 837 Q408 859 408 897 L493 897 Q493 851 472.5 814 Q452 777 415 756 Q378 735 331 735 Z M526 0 L479 110 L182 110 L135 0 L22 0 L313 671 L349 671 L640 0 L526 0 Z M441 201 L331 474 L220 201 L441 201 Z " />
<glyph glyph-name="Acircumflex" unicode="&#xc2;" horiz-adv-x="662" d="M332 818 L231 724 L150 724 L298 910 L365 910 L513 724 L432 724 L332 818 Z M526 0 L479 110 L182 110 L135 0 L22 0 L313 671 L349 671 L640 0 L526 0 Z M441 201 L331 474 L220 201 L441 201 Z " />
<glyph glyph-name="Adieresis" unicode="&#xc4;" horiz-adv-x="662" d="M209 747 Q182 747 161.5 766.5 Q141 786 141 812 Q141 839 161.5 858 Q182 877 209 877 Q237 877 256.5 858.5 Q276 840 276 812 Q276 786 256.5 766.5 Q237 747 209 747 Z M453 746 Q427 746 406.5 765.5 Q386 785 386 811 Q386 838 406.5 857.5 Q427 877 453 877 Q482 877 501.5 858 Q521 839 521 811 Q521 785 501 765.5 Q481 746 453 746 Z M526 0 L479 110 L182 110 L135 0 L22 0 L313 671 L349 671 L640 0 L526 0 Z M441 201 L331 474 L220 201 L441 201 Z " />
<glyph glyph-name="Agrave" unicode="&#xc0;" horiz-adv-x="662" d="M371 724 L293 724 L164 891 L164 910 L292 910 L371 724 Z M526 0 L479 110 L182 110 L135 0 L22 0 L313 671 L349 671 L640 0 L526 0 Z M441 201 L331 474 L220 201 L441 201 Z " />
<glyph glyph-name="Amacron" unicode="&#x100;" horiz-adv-x="662" d="M485 847 L485 762 L177 762 L177 847 L485 847 Z M526 0 L479 110 L182 110 L135 0 L22 0 L313 671 L349 671 L640 0 L526 0 Z M441 201 L331 474 L220 201 L441 201 Z " />
<glyph glyph-name="Aogonek" unicode="&#x104;" horiz-adv-x="662" d="M550 -79 Q550 -95 561 -103.5 Q572 -112 592 -112 Q606 -112 640 -106 L640 -179 Q600 -191 562 -191 Q510 -191 479 -165.5 Q448 -140 448 -98 Q448 -68 466 -44 Q484 -20 524 5 L479 110 L182 110 L135 0 L22 0 L313 671 L349 671 L640 0 L596 -29 Q570 -45 560 -54.5 Q550 -64 550 -79 Z M441 201 L331 474 L220 201 L441 201 Z " />
<glyph glyph-name="Aring" unicode="&#xc5;" horiz-adv-x="662" d="M330 687 Q279 687 245.5 720 Q212 753 212 802 Q212 850 245.5 883.5 Q279 917 330 917 Q381 917 415 883.5 Q449 850 449 802 Q449 753 415 720 Q381 687 330 687 Z M331 848 Q311 848 298 835 Q285 822 285 802 Q285 782 298 769 Q311 756 331 756 Q350 756 363 769 Q376 782 376 802 Q376 822 363 835 Q350 848 331 848 Z M526 0 L479 110 L182 110 L135 0 L22 0 L313 671 L349 671 L640 0 L526 0 Z M441 201 L331 474 L220 201 L441 201 Z " />
<glyph glyph-name="Atilde" unicode="&#xc3;" horiz-adv-x="662" d="M152 744 Q150 762 150 773 Q150 824 178.5 857 Q207 890 251 890 Q287 890 323 868 L356 848 Q360 846 369 840.5 Q378 835 385.5 832.5 Q393 830 400 830 Q414 830 421 839.5 Q428 849 428 865 L428 880 L512 880 Q513 871 513 851 Q513 799 485 766.5 Q457 734 414 734 Q380 734 339 757 L308 775 Q305 777 295.5 782.5 Q286 788 278.5 790.5 Q271 793 264 793 Q250 793 243 783 Q236 773 236 757 L236 744 L152 744 Z M526 0 L479 110 L182 110 L135 0 L22 0 L313 671 L349 671 L640 0 L526 0 Z M441 201 L331 474 L220 201 L441 201 Z " />
<glyph glyph-name="AE" unicode="&#xc6;" horiz-adv-x="836" d="M551 95 L796 95 L796 0 L462 0 L443 110 L181 110 L123 0 L9 0 L351 660 L784 660 L784 565 L473 565 L501 396 L704 396 L704 304 L516 304 L551 95 Z M379 505 L228 201 L427 201 L379 505 Z " />
<glyph glyph-name="AEacute" unicode="&#x1fc;" horiz-adv-x="836" d="M585 891 L457 724 L379 724 L458 910 L585 910 L585 891 Z M551 95 L796 95 L796 0 L462 0 L443 110 L181 110 L123 0 L9 0 L351 660 L784 660 L784 565 L473 565 L501 396 L704 396 L704 304 L516 304 L551 95 Z M379 505 L228 201 L427 201 L379 505 Z " />
<glyph glyph-name="B" unicode="B" horiz-adv-x="618" d="M457 360 Q515 341 547.5 297 Q580 253 580 192 Q580 137 553.5 93 Q527 49 478.5 24.5 Q430 0 366 0 L83 0 L83 660 L314 660 Q373 660 418 637.5 Q463 615 487.5 575 Q512 535 512 484 Q512 446 498 414.5 Q484 383 457 360 Z M187 567 L187 389 L304 389 Q353 389 379.5 413.5 Q406 438 406 479 Q406 520 379.5 543.5 Q353 567 304 567 L187 567 Z M357 93 Q412 93 442.5 120.5 Q473 148 473 195 Q473 242 442.5 270 Q412 298 357 298 L187 298 L187 93 L357 93 Z " />
<glyph glyph-name="C" unicode="C" horiz-adv-x="717" d="M390 671 Q481 671 555.5 630 Q630 589 673 519 L593 460 Q558 515 507 544.5 Q456 574 391 574 Q324 574 269.5 542.5 Q215 511 184 455 Q153 399 153 330 Q153 261 184 205 Q215 149 269.5 117.5 Q324 86 391 86 Q456 86 507 115.5 Q558 145 593 200 L673 141 Q631 71 556.5 30 Q482 -11 390 -11 Q295 -11 215.5 34 Q136 79 89.5 157 Q43 235 43 330 Q43 425 89.5 503 Q136 581 215.5 626 Q295 671 390 671 Z " />
<glyph glyph-name="Cacute" unicode="&#x106;" horiz-adv-x="717" d="M556 910 L556 891 L428 724 L350 724 L429 910 L556 910 Z M390 671 Q481 671 555.5 630 Q630 589 673 519 L593 460 Q558 515 507 544.5 Q456 574 391 574 Q324 574 269.5 542.5 Q215 511 184 455 Q153 399 153 330 Q153 261 184 205 Q215 149 269.5 117.5 Q324 86 391 86 Q456 86 507 115.5 Q558 145 593 200 L673 141 Q631 71 556.5 30 Q482 -11 390 -11 Q295 -11 215.5 34 Q136 79 89.5 157 Q43 235 43 330 Q43 425 89.5 503 Q136 581 215.5 626 Q295 671 390 671 Z " />
<glyph glyph-name="Ccaron" unicode="&#x10c;" horiz-adv-x="717" d="M424 724 L357 724 L209 910 L290 910 L391 816 L491 910 L572 910 L424 724 Z M391 86 Q456 86 507 115.5 Q558 145 593 200 L673 141 Q631 71 556.5 30 Q482 -11 390 -11 Q295 -11 215.5 34 Q136 79 89.5 157 Q43 235 43 330 Q43 425 89.5 503 Q136 581 215.5 626 Q295 671 390 671 Q481 671 555.5 630 Q630 589 673 519 L593 460 Q558 515 507 544.5 Q456 574 391 574 Q324 574 269.5 542.5 Q215 511 184 455 Q153 399 153 330 Q153 261 184 205 Q215 149 269.5 117.5 Q324 86 391 86 Z " />
<glyph glyph-name="Ccedilla" unicode="&#xc7;" horiz-adv-x="717" d="M391 86 Q456 86 507 115.5 Q558 145 593 200 L673 141 Q639 84 582.5 46 Q526 8 456 -5 Q476 -34 476 -71 Q476 -122 437.5 -156.5 Q399 -191 333 -191 Q300 -191 262 -182 L262 -110 Q300 -113 320 -113 Q352 -113 371 -97.5 Q390 -82 390 -52 Q390 -33 381 -11 Q288 -9 210.5 36.5 Q133 82 88 159 Q43 236 43 330 Q43 425 89.5 503 Q136 581 215.5 626 Q295 671 390 671 Q481 671 555.5 630 Q630 589 673 519 L593 460 Q558 515 507 544.5 Q456 574 391 574 Q324 574 269.5 542.5 Q215 511 184 455 Q153 399 153 330 Q153 261 184 205 Q215 149 269.5 117.5 Q324 86 391 86 Z " />
<glyph glyph-name="Ccircumflex" unicode="&#x108;" horiz-adv-x="717" d="M391 818 L290 724 L209 724 L357 910 L424 910 L572 724 L491 724 L391 818 Z M391 86 Q456 86 507 115.5 Q558 145 593 200 L673 141 Q631 71 556.5 30 Q482 -11 390 -11 Q295 -11 215.5 34 Q136 79 89.5 157 Q43 235 43 330 Q43 425 89.5 503 Q136 581 215.5 626 Q295 671 390 671 Q481 671 555.5 630 Q630 589 673 519 L593 460 Q558 515 507 544.5 Q456 574 391 574 Q324 574 269.5 542.5 Q215 511 184 455 Q153 399 153 330 Q153 261 184 205 Q215 149 269.5 117.5 Q324 86 391 86 Z " />
<glyph glyph-name="Cdotaccent" unicode="&#x10a;" horiz-adv-x="717" d="M390 882 Q420 882 441 862 Q462 842 462 812 Q462 783 441 763 Q420 743 390 743 Q360 743 339 763 Q318 783 318 812 Q318 842 339 862 Q360 882 390 882 Z M390 671 Q481 671 555.5 630 Q630 589 673 519 L593 460 Q558 515 507 544.5 Q456 574 391 574 Q324 574 269.5 542.5 Q215 511 184 455 Q153 399 153 330 Q153 261 184 205 Q215 149 269.5 117.5 Q324 86 391 86 Q456 86 507 115.5 Q558 145 593 200 L673 141 Q631 71 556.5 30 Q482 -11 390 -11 Q295 -11 215.5 34 Q136 79 89.5 157 Q43 235 43 330 Q43 425 89.5 503 Q136 581 215.5 626 Q295 671 390 671 Z " />
<glyph glyph-name="D" unicode="D" horiz-adv-x="692" d="M290 660 Q398 660 479 618.5 Q560 577 604.5 502.5 Q649 428 649 331 Q649 235 604.5 160 Q560 85 478.5 42.5 Q397 0 290 0 L83 0 L83 660 L290 660 Z M189 564 L189 95 L289 95 Q365 95 422 125 Q479 155 509.5 209 Q540 263 540 331 Q540 401 509.5 453.5 Q479 506 422.5 535 Q366 564 289 564 L189 564 Z " />
<glyph glyph-name="Eth" unicode="&#xd0;" horiz-adv-x="692" d="M290 660 Q398 660 479 618.5 Q560 577 604.5 502.5 Q649 428 649 331 Q649 235 604.5 160 Q560 85 478.5 42.5 Q397 0 290 0 L83 0 L83 265 L-6 265 L-6 355 L83 355 L83 660 L290 660 Z M289 95 Q365 95 422 125 Q479 155 509.5 209 Q540 263 540 331 Q540 401 509.5 453.5 Q479 506 422.5 535 Q366 564 289 564 L189 564 L189 355 L309 355 L309 265 L189 265 L189 95 L289 95 Z " />
<glyph glyph-name="Dcaron" unicode="&#x10e;" horiz-adv-x="692" d="M316 724 L249 724 L101 910 L182 910 L283 816 L383 910 L464 910 L316 724 Z M290 660 Q398 660 479 618.5 Q560 577 604.5 502.5 Q649 428 649 331 Q649 235 604.5 160 Q560 85 478.5 42.5 Q397 0 290 0 L83 0 L83 660 L290 660 Z M289 95 Q365 95 422 125 Q479 155 509.5 209 Q540 263 540 331 Q540 401 509.5 453.5 Q479 506 422.5 535 Q366 564 289 564 L189 564 L189 95 L289 95 Z " />
<glyph glyph-name="Dcroat" unicode="&#x110;" horiz-adv-x="692" d="M290 660 Q398 660 479 618.5 Q560 577 604.5 502.5 Q649 428 649 331 Q649 235 604.5 160 Q560 85 478.5 42.5 Q397 0 290 0 L83 0 L83 265 L-6 265 L-6 355 L83 355 L83 660 L290 660 Z M289 95 Q365 95 422 125 Q479 155 509.5 209 Q540 263 540 331 Q540 401 509.5 453.5 Q479 506 422.5 535 Q366 564 289 564 L189 564 L189 355 L309 355 L309 265 L189 265 L189 95 L289 95 Z " />
<glyph glyph-name="E" unicode="E" horiz-adv-x="569" d="M517 660 L517 565 L189 565 L189 396 L436 396 L436 304 L189 304 L189 95 L529 95 L529 0 L83 0 L83 660 L517 660 Z " />
<glyph glyph-name="Eacute" unicode="&#xc9;" horiz-adv-x="569" d="M464 910 L464 891 L336 724 L258 724 L337 910 L464 910 Z M517 660 L517 565 L189 565 L189 396 L436 396 L436 304 L189 304 L189 95 L529 95 L529 0 L83 0 L83 660 L517 660 Z " />
<glyph glyph-name="Ebreve" unicode="&#x114;" horiz-adv-x="569" d="M461 897 Q461 851 440.5 814 Q420 777 383 756 Q346 735 299 735 Q252 735 215 756 Q178 777 157.5 814 Q137 851 137 897 L222 897 Q222 859 243.5 837 Q265 815 299 815 Q333 815 354.5 837 Q376 859 376 897 L461 897 Z M517 660 L517 565 L189 565 L189 396 L436 396 L436 304 L189 304 L189 95 L529 95 L529 0 L83 0 L83 660 L517 660 Z " />
<glyph glyph-name="Ecaron" unicode="&#x11a;" horiz-adv-x="569" d="M332 724 L265 724 L117 910 L198 910 L299 816 L399 910 L480 910 L332 724 Z M189 95 L529 95 L529 0 L83 0 L83 660 L517 660 L517 565 L189 565 L189 396 L436 396 L436 304 L189 304 L189 95 Z " />
<glyph glyph-name="Ecircumflex" unicode="&#xca;" horiz-adv-x="569" d="M299 818 L198 724 L117 724 L265 910 L332 910 L480 724 L399 724 L299 818 Z M189 95 L529 95 L529 0 L83 0 L83 660 L517 660 L517 565 L189 565 L189 396 L436 396 L436 304 L189 304 L189 95 Z " />
<glyph glyph-name="Edieresis" unicode="&#xcb;" horiz-adv-x="569" d="M177 877 Q205 877 224.5 858.5 Q244 840 244 812 Q244 786 224.5 766.5 Q205 747 177 747 Q150 747 129.5 766.5 Q109 786 109 812 Q109 839 129.5 858 Q150 877 177 877 Z M421 877 Q450 877 469.5 858 Q489 839 489 811 Q489 785 469 765.5 Q449 746 421 746 Q395 746 374.5 765.5 Q354 785 354 811 Q354 838 374.5 857.5 Q395 877 421 877 Z M517 660 L517 565 L189 565 L189 396 L436 396 L436 304 L189 304 L189 95 L529 95 L529 0 L83 0 L83 660 L517 660 Z " />
<glyph glyph-name="Edotaccent" unicode="&#x116;" horiz-adv-x="569" d="M299 882 Q329 882 350 862 Q371 842 371 812 Q371 783 350 763 Q329 743 299 743 Q269 743 248 763 Q227 783 227 812 Q227 842 248 862 Q269 882 299 882 Z M517 660 L517 565 L189 565 L189 396 L436 396 L436 304 L189 304 L189 95 L529 95 L529 0 L83 0 L83 660 L517 660 Z " />
<glyph glyph-name="Egrave" unicode="&#xc8;" horiz-adv-x="569" d="M260 910 L339 724 L261 724 L132 891 L132 910 L260 910 Z M517 660 L517 565 L189 565 L189 396 L436 396 L436 304 L189 304 L189 95 L529 95 L529 0 L83 0 L83 660 L517 660 Z " />
<glyph glyph-name="Emacron" unicode="&#x112;" horiz-adv-x="569" d="M453 847 L453 762 L145 762 L145 847 L453 847 Z M517 660 L517 565 L189 565 L189 396 L436 396 L436 304 L189 304 L189 95 L529 95 L529 0 L83 0 L83 660 L517 660 Z " />
<glyph glyph-name="Eogonek" unicode="&#x118;" horiz-adv-x="569" d="M485 -29 Q459 -45 449 -54.5 Q439 -64 439 -79 Q439 -95 450 -103.5 Q461 -112 481 -112 Q495 -112 529 -106 L529 -179 Q489 -191 451 -191 Q399 -191 368 -165.5 Q337 -140 337 -98 Q337 -69 353 -46 Q369 -23 405 0 L83 0 L83 660 L517 660 L517 565 L189 565 L189 396 L436 396 L436 304 L189 304 L189 95 L529 95 L529 0 L485 -29 Z " />
<glyph glyph-name="F" unicode="F" horiz-adv-x="529" d="M507 660 L507 565 L189 565 L189 368 L451 368 L451 272 L189 272 L189 0 L83 0 L83 660 L507 660 Z " />
<glyph glyph-name="G" unicode="G" horiz-adv-x="746" d="M391 671 Q477 671 547 635 Q617 599 664 533 L587 470 Q513 574 390 574 Q321 574 267 542.5 Q213 511 183 455.5 Q153 400 153 331 Q153 261 184 204.5 Q215 148 270 116 Q325 84 396 84 Q461 84 511.5 110.5 Q562 137 593 184 L593 255 L390 255 L390 349 L699 349 L699 163 Q655 84 573 36.5 Q491 -11 391 -11 Q294 -11 214.5 34 Q135 79 89 157 Q43 235 43 330 Q43 425 89 503 Q135 581 215 626 Q295 671 391 671 Z " />
<glyph glyph-name="Gbreve" unicode="&#x11e;" horiz-adv-x="746" d="M554 897 Q554 851 533.5 814 Q513 777 476 756 Q439 735 392 735 Q345 735 308 756 Q271 777 250.5 814 Q230 851 230 897 L315 897 Q315 859 336.5 837 Q358 815 392 815 Q426 815 447.5 837 Q469 859 469 897 L554 897 Z M391 671 Q477 671 547 635 Q617 599 664 533 L587 470 Q513 574 390 574 Q321 574 267 542.5 Q213 511 183 455.5 Q153 400 153 331 Q153 261 184 204.5 Q215 148 270 116 Q325 84 396 84 Q461 84 511.5 110.5 Q562 137 593 184 L593 255 L390 255 L390 349 L699 349 L699 163 Q655 84 573 36.5 Q491 -11 391 -11 Q294 -11 214.5 34 Q135 79 89 157 Q43 235 43 330 Q43 425 89 503 Q135 581 215 626 Q295 671 391 671 Z " />
<glyph glyph-name="Gcircumflex" unicode="&#x11c;" horiz-adv-x="746" d="M393 818 L292 724 L211 724 L359 910 L426 910 L574 724 L493 724 L393 818 Z M699 349 L699 163 Q655 84 573 36.5 Q491 -11 391 -11 Q294 -11 214.5 34 Q135 79 89 157 Q43 235 43 330 Q43 425 89 503 Q135 581 215 626 Q295 671 391 671 Q477 671 547 635 Q617 599 664 533 L587 470 Q513 574 390 574 Q321 574 267 542.5 Q213 511 183 455.5 Q153 400 153 331 Q153 261 184 204.5 Q215 148 270 116 Q325 84 396 84 Q461 84 511.5 110.5 Q562 137 593 184 L593 255 L390 255 L390 349 L699 349 Z " />
<glyph glyph-name="Gcommaaccent" unicode="&#x122;" horiz-adv-x="746" d="M391 671 Q477 671 547 635 Q617 599 664 533 L587 470 Q513 574 390 574 Q321 574 267 542.5 Q213 511 183 455.5 Q153 400 153 331 Q153 261 184 204.5 Q215 148 270 116 Q325 84 396 84 Q461 84 511.5 110.5 Q562 137 593 184 L593 255 L390 255 L390 349 L699 349 L699 163 Q655 84 573 36.5 Q491 -11 391 -11 Q294 -11 214.5 34 Q135 79 89 157 Q43 235 43 330 Q43 425 89 503 Q135 581 215 626 Q295 671 391 671 Z M442 -48 L416 -220 L335 -220 L341 -48 L442 -48 Z " />
<glyph glyph-name="Gdotaccent" unicode="&#x120;" horiz-adv-x="746" d="M392 882 Q422 882 443 862 Q464 842 464 812 Q464 783 443 763 Q422 743 392 743 Q362 743 341 763 Q320 783 320 812 Q320 842 341 862 Q362 882 392 882 Z M391 671 Q477 671 547 635 Q617 599 664 533 L587 470 Q513 574 390 574 Q321 574 267 542.5 Q213 511 183 455.5 Q153 400 153 331 Q153 261 184 204.5 Q215 148 270 116 Q325 84 396 84 Q461 84 511.5 110.5 Q562 137 593 184 L593 255 L390 255 L390 349 L699 349 L699 163 Q655 84 573 36.5 Q491 -11 391 -11 Q294 -11 214.5 34 Q135 79 89 157 Q43 235 43 330 Q43 425 89 503 Q135 581 215 626 Q295 671 391 671 Z " />
<glyph glyph-name="H" unicode="H" horiz-adv-x="711" d="M627 660 L627 0 L521 0 L521 302 L189 302 L189 0 L83 0 L83 660 L189 660 L189 397 L521 397 L521 660 L627 660 Z " />
<glyph glyph-name="Hbar" unicode="&#x126;" horiz-adv-x="725" d="M634 660 L634 537 L730 537 L730 448 L634 448 L634 0 L528 0 L528 234 L196 234 L196 0 L90 0 L90 448 L-6 448 L-6 537 L90 537 L90 660 L196 660 L196 537 L528 537 L528 660 L634 660 Z M528 448 L196 448 L196 327 L528 327 L528 448 Z " />
<glyph glyph-name="Hcircumflex" unicode="&#x124;" horiz-adv-x="711" d="M356 818 L255 724 L174 724 L322 910 L389 910 L537 724 L456 724 L356 818 Z M521 660 L627 660 L627 0 L521 0 L521 302 L189 302 L189 0 L83 0 L83 660 L189 660 L189 397 L521 397 L521 660 Z " />
<glyph glyph-name="I" unicode="I" horiz-adv-x="272" d="M189 660 L189 0 L83 0 L83 660 L189 660 Z " />
<glyph glyph-name="IJ" unicode="&#x132;" horiz-adv-x="653" d="M189 660 L189 0 L83 0 L83 660 L189 660 Z M570 164 Q570 76 521 32.5 Q472 -11 384 -11 Q341 -11 293 0 L293 91 Q338 86 361 86 Q413 86 438.5 105.5 Q464 125 464 175 L464 660 L570 660 L570 164 Z " />
<glyph glyph-name="Iacute" unicode="&#xcd;" horiz-adv-x="272" d="M302 910 L302 891 L174 724 L96 724 L175 910 L302 910 Z M189 660 L189 0 L83 0 L83 660 L189 660 Z " />
<glyph glyph-name="Ibreve" unicode="&#x12c;" horiz-adv-x="272" d="M299 897 Q299 851 278.5 814 Q258 777 221 756 Q184 735 137 735 Q90 735 53 756 Q16 777 -4.5 814 Q-25 851 -25 897 L60 897 Q60 859 81.5 837 Q103 815 137 815 Q171 815 192.5 837 Q214 859 214 897 L299 897 Z M189 660 L189 0 L83 0 L83 660 L189 660 Z " />
<glyph glyph-name="Icircumflex" unicode="&#xce;" horiz-adv-x="272" d="M170 910 L318 724 L237 724 L137 818 L36 724 L-45 724 L103 910 L170 910 Z M83 0 L83 660 L189 660 L189 0 L83 0 Z " />
<glyph glyph-name="Idieresis" unicode="&#xcf;" horiz-adv-x="272" d="M14 877 Q42 877 61.5 858.5 Q81 840 81 812 Q81 786 61.5 766.5 Q42 747 14 747 Q-13 747 -33.5 766.5 Q-54 786 -54 812 Q-54 839 -33.5 858 Q-13 877 14 877 Z M258 877 Q287 877 306.5 858 Q326 839 326 811 Q326 785 306 765.5 Q286 746 258 746 Q232 746 211.5 765.5 Q191 785 191 811 Q191 838 211.5 857.5 Q232 877 258 877 Z M189 660 L189 0 L83 0 L83 660 L189 660 Z " />
<glyph glyph-name="Idot" unicode="&#x130;" horiz-adv-x="272" d="M137 882 Q167 882 188 862 Q209 842 209 812 Q209 783 188 763 Q167 743 137 743 Q107 743 86 763 Q65 783 65 812 Q65 842 86 862 Q107 882 137 882 Z M189 660 L189 0 L83 0 L83 660 L189 660 Z " />
<glyph glyph-name="Igrave" unicode="&#xcc;" horiz-adv-x="272" d="M98 910 L177 724 L99 724 L-30 891 L-30 910 L98 910 Z M189 660 L189 0 L83 0 L83 660 L189 660 Z " />
<glyph glyph-name="Imacron" unicode="&#x12a;" horiz-adv-x="272" d="M291 847 L291 762 L-17 762 L-17 847 L291 847 Z M189 660 L189 0 L83 0 L83 660 L189 660 Z " />
<glyph glyph-name="Iogonek" unicode="&#x12e;" horiz-adv-x="272" d="M145 -29 Q119 -45 109 -54.5 Q99 -64 99 -79 Q99 -95 110 -103.5 Q121 -112 141 -112 Q155 -112 189 -106 L189 -179 Q149 -191 111 -191 Q59 -191 28 -165.5 Q-3 -140 -3 -98 Q-3 -66 17 -40.5 Q37 -15 83 11 L83 660 L189 660 L189 0 L145 -29 Z " />
<glyph glyph-name="Itilde" unicode="&#x128;" horiz-adv-x="272" d="M56 890 Q92 890 128 868 L161 848 Q165 846 174 840.5 Q183 835 190.5 832.5 Q198 830 205 830 Q219 830 226 839.5 Q233 849 233 865 L233 880 L317 880 Q318 871 318 851 Q318 799 290 766.5 Q262 734 219 734 Q185 734 144 757 L113 775 Q110 777 100.5 782.5 Q91 788 83.5 790.5 Q76 793 69 793 Q55 793 48 783 Q41 773 41 757 L41 744 L-43 744 Q-45 762 -45 773 Q-45 824 -16.5 857 Q12 890 56 890 Z M189 660 L189 0 L83 0 L83 660 L189 660 Z " />
<glyph glyph-name="J" unicode="J" horiz-adv-x="381" d="M298 164 Q298 76 249 32.5 Q200 -11 112 -11 Q69 -11 21 0 L21 91 Q66 86 89 86 Q141 86 166.5 105.5 Q192 125 192 175 L192 660 L298 660 L298 164 Z " />
<glyph glyph-name="Jcircumflex" unicode="&#x134;" horiz-adv-x="381" d="M265 910 L413 724 L332 724 L232 818 L131 724 L50 724 L198 910 L265 910 Z M192 660 L298 660 L298 164 Q298 76 249 32.5 Q200 -11 112 -11 Q69 -11 21 0 L21 91 Q66 86 89 86 Q141 86 166.5 105.5 Q192 125 192 175 L192 660 Z " />
<glyph glyph-name="K" unicode="K" horiz-adv-x="651" d="M83 0 L83 660 L189 660 L189 0 L83 0 Z M325 351 L629 0 L498 0 L192 351 L469 660 L599 660 L325 351 Z " />
<glyph glyph-name="Kcommaaccent" unicode="&#x136;" horiz-adv-x="651" d="M83 0 L83 660 L189 660 L189 0 L83 0 Z M325 351 L629 0 L498 0 L192 351 L469 660 L599 660 L325 351 Z M362 -48 L336 -220 L255 -220 L261 -48 L362 -48 Z " />
<glyph glyph-name="L" unicode="L" horiz-adv-x="515" d="M189 660 L189 95 L491 95 L491 0 L83 0 L83 660 L189 660 Z " />
<glyph glyph-name="Lacute" unicode="&#x139;" horiz-adv-x="515" d="M301 910 L301 891 L173 724 L95 724 L174 910 L301 910 Z M189 660 L189 95 L491 95 L491 0 L83 0 L83 660 L189 660 Z " />
<glyph glyph-name="Lcaron" unicode="&#x13d;" horiz-adv-x="515" d="M189 660 L189 95 L491 95 L491 0 L83 0 L83 660 L189 660 Z M482 720 L438 512 L362 512 L371 720 L482 720 Z " />
<glyph glyph-name="Lcommaaccent" unicode="&#x13b;" horiz-adv-x="515" d="M189 660 L189 95 L491 95 L491 0 L83 0 L83 660 L189 660 Z M331 -48 L305 -220 L224 -220 L230 -48 L331 -48 Z " />
<glyph glyph-name="Ldot" unicode="&#x13f;" horiz-adv-x="515" d="M189 660 L189 95 L491 95 L491 0 L83 0 L83 660 L189 660 Z M395 451 Q428 451 450 429 Q472 407 472 373 Q472 340 450 318 Q428 296 395 296 Q362 296 339 318 Q316 340 316 373 Q316 406 339 428.5 Q362 451 395 451 Z " />
<glyph glyph-name="Lslash" unicode="&#x141;" horiz-adv-x="515" d="M189 95 L491 95 L491 0 L83 0 L83 230 L8 196 L8 294 L83 328 L83 660 L189 660 L189 369 L399 465 L399 366 L189 270 L189 95 Z " />
<glyph glyph-name="M" unicode="M" horiz-adv-x="793" d="M674 671 L710 671 L710 0 L604 0 L604 414 L415 166 L379 166 L189 415 L189 0 L83 0 L83 671 L120 671 L397 302 L674 671 Z " />
<glyph glyph-name="N" unicode="N" horiz-adv-x="711" d="M521 660 L627 660 L627 -11 L591 -11 L189 447 L189 0 L83 0 L83 671 L120 671 L521 215 L521 660 Z " />
<glyph glyph-name="Nacute" unicode="&#x143;" horiz-adv-x="711" d="M521 891 L393 724 L315 724 L394 910 L521 910 L521 891 Z M521 660 L627 660 L627 -11 L591 -11 L189 447 L189 0 L83 0 L83 671 L120 671 L521 215 L521 660 Z " />
<glyph glyph-name="Ncaron" unicode="&#x147;" horiz-adv-x="711" d="M389 724 L322 724 L174 910 L255 910 L356 816 L456 910 L537 910 L389 724 Z M521 660 L627 660 L627 -11 L591 -11 L189 447 L189 0 L83 0 L83 671 L120 671 L521 215 L521 660 Z " />
<glyph glyph-name="Ncommaaccent" unicode="&#x145;" horiz-adv-x="711" d="M521 660 L627 660 L627 -11 L591 -11 L189 447 L189 0 L83 0 L83 671 L120 671 L521 215 L521 660 Z M405 -48 L379 -220 L298 -220 L304 -48 L405 -48 Z " />
<glyph glyph-name="Eng" unicode="&#x14a;" horiz-adv-x="711" d="M627 660 L627 -20 Q627 -106 580 -148.5 Q533 -191 452 -191 Q412 -191 385 -182 L385 -93 Q409 -96 428 -96 Q474 -96 497.5 -76.5 Q521 -57 521 -11 L521 19 L189 431 L189 0 L83 0 L83 671 L120 671 L521 175 L521 660 L627 660 Z " />
<glyph glyph-name="Ntilde" unicode="&#xd1;" horiz-adv-x="711" d="M176 744 Q174 762 174 773 Q174 824 202.5 857 Q231 890 275 890 Q311 890 347 868 L380 848 Q384 846 393 840.5 Q402 835 409.5 832.5 Q417 830 424 830 Q438 830 445 839.5 Q452 849 452 865 L452 880 L536 880 Q537 871 537 851 Q537 799 509 766.5 Q481 734 438 734 Q404 734 363 757 L332 775 Q329 777 319.5 782.5 Q310 788 302.5 790.5 Q295 793 288 793 Q274 793 267 783 Q260 773 260 757 L260 744 L176 744 Z M521 660 L627 660 L627 -11 L591 -11 L189 447 L189 0 L83 0 L83 671 L120 671 L521 215 L521 660 Z " />
<glyph glyph-name="O" unicode="O" horiz-adv-x="780" d="M389 671 Q483 671 563 626 Q643 581 689.5 503 Q736 425 736 330 Q736 235 689.5 157 Q643 79 563 34 Q483 -11 389 -11 Q294 -11 214.5 34 Q135 79 89 157 Q43 235 43 330 Q43 425 89.5 503 Q136 581 215 626 Q294 671 389 671 Z M390 574 Q322 574 268 542.5 Q214 511 183.5 455.5 Q153 400 153 331 Q153 261 183.5 205 Q214 149 268 117.5 Q322 86 390 86 Q457 86 511 117.5 Q565 149 596 205 Q627 261 627 331 Q627 399 596 455 Q565 511 511 542.5 Q457 574 390 574 Z " />
<glyph glyph-name="Oacute" unicode="&#xd3;" horiz-adv-x="780" d="M555 910 L555 891 L427 724 L349 724 L428 910 L555 910 Z M389 671 Q483 671 563 626 Q643 581 689.5 503 Q736 425 736 330 Q736 235 689.5 157 Q643 79 563 34 Q483 -11 389 -11 Q294 -11 214.5 34 Q135 79 89 157 Q43 235 43 330 Q43 425 89.5 503 Q136 581 215 626 Q294 671 389 671 Z M390 574 Q322 574 268 542.5 Q214 511 183.5 455.5 Q153 400 153 331 Q153 261 183.5 205 Q214 149 268 117.5 Q322 86 390 86 Q457 86 511 117.5 Q565 149 596 205 Q627 261 627 331 Q627 399 596 455 Q565 511 511 542.5 Q457 574 390 574 Z " />
<glyph glyph-name="Obreve" unicode="&#x14e;" horiz-adv-x="780" d="M552 897 Q552 851 531.5 814 Q511 777 474 756 Q437 735 390 735 Q343 735 306 756 Q269 777 248.5 814 Q228 851 228 897 L313 897 Q313 859 334.5 837 Q356 815 390 815 Q424 815 445.5 837 Q467 859 467 897 L552 897 Z M389 671 Q483 671 563 626 Q643 581 689.5 503 Q736 425 736 330 Q736 235 689.5 157 Q643 79 563 34 Q483 -11 389 -11 Q294 -11 214.5 34 Q135 79 89 157 Q43 235 43 330 Q43 425 89.5 503 Q136 581 215 626 Q294 671 389 671 Z M390 574 Q322 574 268 542.5 Q214 511 183.5 455.5 Q153 400 153 331 Q153 261 183.5 205 Q214 149 268 117.5 Q322 86 390 86 Q457 86 511 117.5 Q565 149 596 205 Q627 261 627 331 Q627 399 596 455 Q565 511 511 542.5 Q457 574 390 574 Z " />
<glyph glyph-name="Ocircumflex" unicode="&#xd4;" horiz-adv-x="780" d="M390 818 L289 724 L208 724 L356 910 L423 910 L571 724 L490 724 L390 818 Z M389 671 Q483 671 563 626 Q643 581 689.5 503 Q736 425 736 330 Q736 235 689.5 157 Q643 79 563 34 Q483 -11 389 -11 Q294 -11 214.5 34 Q135 79 89 157 Q43 235 43 330 Q43 425 89.5 503 Q136 581 215 626 Q294 671 389 671 Z M390 86 Q457 86 511 117.5 Q565 149 596 205 Q627 261 627 331 Q627 399 596 455 Q565 511 511 542.5 Q457 574 390 574 Q322 574 268 542.5 Q214 511 183.5 455.5 Q153 400 153 331 Q153 261 183.5 205 Q214 149 268 117.5 Q322 86 390 86 Z " />
<glyph glyph-name="Odieresis" unicode="&#xd6;" horiz-adv-x="780" d="M268 877 Q296 877 315.5 858.5 Q335 840 335 812 Q335 786 315.5 766.5 Q296 747 268 747 Q241 747 220.5 766.5 Q200 786 200 812 Q200 839 220.5 858 Q241 877 268 877 Z M512 877 Q541 877 560.5 858 Q580 839 580 811 Q580 785 560 765.5 Q540 746 512 746 Q486 746 465.5 765.5 Q445 785 445 811 Q445 838 465.5 857.5 Q486 877 512 877 Z M389 671 Q483 671 563 626 Q643 581 689.5 503 Q736 425 736 330 Q736 235 689.5 157 Q643 79 563 34 Q483 -11 389 -11 Q294 -11 214.5 34 Q135 79 89 157 Q43 235 43 330 Q43 425 89.5 503 Q136 581 215 626 Q294 671 389 671 Z M390 574 Q322 574 268 542.5 Q214 511 183.5 455.5 Q153 400 153 331 Q153 261 183.5 205 Q214 149 268 117.5 Q322 86 390 86 Q457 86 511 117.5 Q565 149 596 205 Q627 261 627 331 Q627 399 596 455 Q565 511 511 542.5 Q457 574 390 574 Z " />
<glyph glyph-name="Ograve" unicode="&#xd2;" horiz-adv-x="780" d="M351 910 L430 724 L352 724 L223 891 L223 910 L351 910 Z M389 671 Q483 671 563 626 Q643 581 689.5 503 Q736 425 736 330 Q736 235 689.5 157 Q643 79 563 34 Q483 -11 389 -11 Q294 -11 214.5 34 Q135 79 89 157 Q43 235 43 330 Q43 425 89.5 503 Q136 581 215 626 Q294 671 389 671 Z M390 574 Q322 574 268 542.5 Q214 511 183.5 455.5 Q153 400 153 331 Q153 261 183.5 205 Q214 149 268 117.5 Q322 86 390 86 Q457 86 511 117.5 Q565 149 596 205 Q627 261 627 331 Q627 399 596 455 Q565 511 511 542.5 Q457 574 390 574 Z " />
<glyph glyph-name="Ohungarumlaut" unicode="&#x150;" horiz-adv-x="780" d="M437 910 L437 891 L319 724 L247 724 L326 910 L437 910 Z M636 910 L636 891 L519 724 L446 724 L525 910 L636 910 Z M389 671 Q483 671 563 626 Q643 581 689.5 503 Q736 425 736 330 Q736 235 689.5 157 Q643 79 563 34 Q483 -11 389 -11 Q294 -11 214.5 34 Q135 79 89 157 Q43 235 43 330 Q43 425 89.5 503 Q136 581 215 626 Q294 671 389 671 Z M390 574 Q322 574 268 542.5 Q214 511 183.5 455.5 Q153 400 153 331 Q153 261 183.5 205 Q214 149 268 117.5 Q322 86 390 86 Q457 86 511 117.5 Q565 149 596 205 Q627 261 627 331 Q627 399 596 455 Q565 511 511 542.5 Q457 574 390 574 Z " />
<glyph glyph-name="Omacron" unicode="&#x14c;" horiz-adv-x="780" d="M544 847 L544 762 L236 762 L236 847 L544 847 Z M389 671 Q483 671 563 626 Q643 581 689.5 503 Q736 425 736 330 Q736 235 689.5 157 Q643 79 563 34 Q483 -11 389 -11 Q294 -11 214.5 34 Q135 79 89 157 Q43 235 43 330 Q43 425 89.5 503 Q136 581 215 626 Q294 671 389 671 Z M390 574 Q322 574 268 542.5 Q214 511 183.5 455.5 Q153 400 153 331 Q153 261 183.5 205 Q214 149 268 117.5 Q322 86 390 86 Q457 86 511 117.5 Q565 149 596 205 Q627 261 627 331 Q627 399 596 455 Q565 511 511 542.5 Q457 574 390 574 Z " />
<glyph glyph-name="Oslash" unicode="&#xd8;" horiz-adv-x="780" d="M664 540 Q698 496 717 442.5 Q736 389 736 330 Q736 235 689.5 157 Q643 79 563 34 Q483 -11 389 -11 Q331 -11 278 6.5 Q225 24 181 56 L101 -24 L37 40 L115 119 Q81 163 62 216.5 Q43 270 43 330 Q43 425 89.5 503 Q136 581 215 626 Q294 671 389 671 Q447 671 500.5 653.5 Q554 636 598 603 L679 684 L743 620 L664 540 Z M148 331 Q148 252 187 190 L530 535 Q468 578 390 578 Q321 578 266 546 Q211 514 179.5 457.5 Q148 401 148 331 Z M631 331 Q631 408 592 469 L249 125 Q309 82 390 82 Q458 82 513 114 Q568 146 599.5 203 Q631 260 631 331 Z " />
<glyph glyph-name="Oslashacute" unicode="&#x1fe;" horiz-adv-x="780" d="M555 891 L427 724 L349 724 L428 910 L555 910 L555 891 Z M664 540 Q698 496 717 442.5 Q736 389 736 330 Q736 235 689.5 157 Q643 79 563 34 Q483 -11 389 -11 Q331 -11 278 6.5 Q225 24 181 56 L101 -24 L37 40 L115 119 Q81 163 62 216.5 Q43 270 43 330 Q43 425 89.5 503 Q136 581 215 626 Q294 671 389 671 Q447 671 500.5 653.5 Q554 636 598 603 L679 684 L743 620 L664 540 Z M148 331 Q148 252 187 190 L530 535 Q468 578 390 578 Q321 578 266 546 Q211 514 179.5 457.5 Q148 401 148 331 Z M631 331 Q631 408 592 469 L249 125 Q309 82 390 82 Q458 82 513 114 Q568 146 599.5 203 Q631 260 631 331 Z " />
<glyph glyph-name="Otilde" unicode="&#xd5;" horiz-adv-x="780" d="M309 890 Q345 890 381 868 L414 848 Q418 846 427 840.5 Q436 835 443.5 832.5 Q451 830 458 830 Q472 830 479 839.5 Q486 849 486 865 L486 880 L570 880 Q571 871 571 851 Q571 799 543 766.5 Q515 734 472 734 Q438 734 397 757 L366 775 Q363 777 353.5 782.5 Q344 788 336.5 790.5 Q329 793 322 793 Q308 793 301 783 Q294 773 294 757 L294 744 L210 744 Q208 762 208 773 Q208 824 236.5 857 Q265 890 309 890 Z M389 671 Q483 671 563 626 Q643 581 689.5 503 Q736 425 736 330 Q736 235 689.5 157 Q643 79 563 34 Q483 -11 389 -11 Q294 -11 214.5 34 Q135 79 89 157 Q43 235 43 330 Q43 425 89.5 503 Q136 581 215 626 Q294 671 389 671 Z M390 574 Q322 574 268 542.5 Q214 511 183.5 455.5 Q153 400 153 331 Q153 261 183.5 205 Q214 149 268 117.5 Q322 86 390 86 Q457 86 511 117.5 Q565 149 596 205 Q627 261 627 331 Q627 399 596 455 Q565 511 511 542.5 Q457 574 390 574 Z " />
<glyph glyph-name="OE" unicode="&#x152;" horiz-adv-x="1113" d="M1072 95 L1072 0 L627 0 L627 96 Q586 45 523.5 17 Q461 -11 388 -11 Q292 -11 213 34 Q134 79 88.5 157 Q43 235 43 330 Q43 425 88.5 503 Q134 581 213.5 626 Q293 671 389 671 Q463 671 525 643 Q587 615 627 565 L627 660 L1060 660 L1060 565 L733 565 L733 395 L979 395 L979 305 L733 305 L733 95 L1072 95 Z M389 86 Q456 86 510.5 117.5 Q565 149 596 205 Q627 261 627 330 Q627 399 596 454.5 Q565 510 510.5 542 Q456 574 389 574 Q322 574 268 542.5 Q214 511 183.5 455.5 Q153 400 153 330 Q153 260 183.5 204.5 Q214 149 268 117.5 Q322 86 389 86 Z " />
<glyph glyph-name="P" unicode="P" horiz-adv-x="583" d="M324 660 Q390 660 441 634.5 Q492 609 520 563 Q548 517 548 458 Q548 399 520 353 Q492 307 441 281 Q390 255 324 255 L189 255 L189 0 L83 0 L83 660 L324 660 Z M189 566 L189 349 L322 349 Q378 349 408.5 378.5 Q439 408 439 457 Q439 506 408.5 536 Q378 566 322 566 L189 566 Z " />
<glyph glyph-name="Thorn" unicode="&#xde;" horiz-adv-x="583" d="M189 550 L324 550 Q390 550 441 524.5 Q492 499 520 452.5 Q548 406 548 345 Q548 285 520 238 Q492 191 441 164.5 Q390 138 324 138 L189 138 L189 0 L83 0 L83 660 L189 660 L189 550 Z M189 456 L189 232 L322 232 Q378 232 408.5 263 Q439 294 439 344 Q439 395 408.5 425.5 Q378 456 322 456 L189 456 Z " />
<glyph glyph-name="Q" unicode="Q" horiz-adv-x="780" d="M954 -121 Q980 -121 1048 -117 L1048 -201 Q989 -212 937 -212 Q805 -212 696 -155.5 Q587 -99 510 10 Q453 -11 389 -11 Q294 -11 214.5 34 Q135 79 89 157 Q43 235 43 330 Q43 425 89.5 503 Q136 581 215 626 Q294 671 389 671 Q483 671 563 626 Q643 581 689.5 503 Q736 425 736 330 Q736 246 699 174.5 Q662 103 597 56 Q665 -34 752 -77.5 Q839 -121 954 -121 Z M153 331 Q153 261 183.5 205 Q214 149 268 117.5 Q322 86 390 86 Q457 86 511 117.5 Q565 149 596 205 Q627 261 627 330 Q627 399 596 455 Q565 511 511 542.5 Q457 574 389 574 Q322 574 268 542.5 Q214 511 183.5 455.5 Q153 400 153 331 Z " />
<glyph glyph-name="R" unicode="R" horiz-adv-x="631" d="M498 0 L310 255 L189 255 L189 0 L83 0 L83 660 L324 660 Q390 660 441 634.5 Q492 609 520 563 Q548 517 548 458 Q548 393 514 344 Q480 295 421 272 L619 0 L498 0 Z M189 349 L322 349 Q377 349 408 379 Q439 409 439 457 Q439 506 408 536 Q377 566 322 566 L189 566 L189 349 Z " />
<glyph glyph-name="Racute" unicode="&#x154;" horiz-adv-x="631" d="M428 891 L300 724 L222 724 L301 910 L428 910 L428 891 Z M498 0 L310 255 L189 255 L189 0 L83 0 L83 660 L324 660 Q390 660 441 634.5 Q492 609 520 563 Q548 517 548 458 Q548 393 514 344 Q480 295 421 272 L619 0 L498 0 Z M189 349 L322 349 Q377 349 408 379 Q439 409 439 457 Q439 506 408 536 Q377 566 322 566 L189 566 L189 349 Z " />
<glyph glyph-name="Rcaron" unicode="&#x158;" horiz-adv-x="631" d="M296 724 L229 724 L81 910 L162 910 L263 816 L363 910 L444 910 L296 724 Z M498 0 L310 255 L189 255 L189 0 L83 0 L83 660 L324 660 Q390 660 441 634.5 Q492 609 520 563 Q548 517 548 458 Q548 393 514 344 Q480 295 421 272 L619 0 L498 0 Z M189 349 L322 349 Q377 349 408 379 Q439 409 439 457 Q439 506 408 536 Q377 566 322 566 L189 566 L189 349 Z " />
<glyph glyph-name="Rcommaaccent" unicode="&#x156;" horiz-adv-x="631" d="M498 0 L310 255 L189 255 L189 0 L83 0 L83 660 L324 660 Q390 660 441 634.5 Q492 609 520 563 Q548 517 548 458 Q548 393 514 344 Q480 295 421 272 L619 0 L498 0 Z M189 349 L322 349 Q377 349 408 379 Q439 409 439 457 Q439 506 408 536 Q377 566 322 566 L189 566 L189 349 Z M359 -48 L333 -220 L252 -220 L258 -48 L359 -48 Z " />
<glyph glyph-name="S" unicode="S" horiz-adv-x="559" d="M282 671 Q352 671 408 638.5 Q464 606 495 553 L421 496 Q395 535 359.5 555.5 Q324 576 282 576 Q240 576 211 555.5 Q182 535 182 496 Q182 472 193 456 Q204 440 222 429.5 Q240 419 274 402 L348 368 Q428 331 467 288 Q506 245 506 180 Q506 123 477.5 79.5 Q449 36 398.5 12.5 Q348 -11 285 -11 Q204 -11 139 27 Q74 65 36 132 L111 189 Q144 141 185.5 112.5 Q227 84 284 84 Q335 84 366.5 109 Q398 134 398 176 Q398 211 375.5 231 Q353 251 301 275 L228 309 Q155 342 114.5 385 Q74 428 74 492 Q74 545 102 586 Q130 627 177.5 649 Q225 671 282 671 Z " />
<glyph glyph-name="Sacute" unicode="&#x15a;" horiz-adv-x="559" d="M447 910 L447 891 L319 724 L241 724 L320 910 L447 910 Z M282 671 Q352 671 408 638.5 Q464 606 495 553 L421 496 Q395 535 359.5 555.5 Q324 576 282 576 Q240 576 211 555.5 Q182 535 182 496 Q182 472 193 456 Q204 440 222 429.5 Q240 419 274 402 L348 368 Q428 331 467 288 Q506 245 506 180 Q506 123 477.5 79.5 Q449 36 398.5 12.5 Q348 -11 285 -11 Q204 -11 139 27 Q74 65 36 132 L111 189 Q144 141 185.5 112.5 Q227 84 284 84 Q335 84 366.5 109 Q398 134 398 176 Q398 211 375.5 231 Q353 251 301 275 L228 309 Q155 342 114.5 385 Q74 428 74 492 Q74 545 102 586 Q130 627 177.5 649 Q225 671 282 671 Z " />
<glyph glyph-name="Scaron" unicode="&#x160;" horiz-adv-x="559" d="M315 724 L248 724 L100 910 L181 910 L282 816 L382 910 L463 910 L315 724 Z M348 368 Q428 331 467 288 Q506 245 506 180 Q506 123 477.5 79.5 Q449 36 398.5 12.5 Q348 -11 285 -11 Q204 -11 139 27 Q74 65 36 132 L111 189 Q144 141 185.5 112.5 Q227 84 284 84 Q335 84 366.5 109 Q398 134 398 176 Q398 211 375.5 231 Q353 251 301 275 L228 309 Q155 342 114.5 385 Q74 428 74 492 Q74 545 102 586 Q130 627 177.5 649 Q225 671 282 671 Q352 671 408 638.5 Q464 606 495 553 L421 496 Q395 535 359.5 555.5 Q324 576 282 576 Q240 576 211 555.5 Q182 535 182 496 Q182 472 193 456 Q204 440 222 429.5 Q240 419 274 402 L348 368 Z " />
<glyph glyph-name="Scedilla" unicode="&#x15e;" horiz-adv-x="559" d="M506 180 Q506 109 462.5 60 Q419 11 347 -5 Q367 -33 367 -71 Q367 -122 328.5 -156.5 Q290 -191 224 -191 Q191 -191 153 -182 L153 -110 Q190 -113 211 -113 Q243 -113 262 -97.5 Q281 -82 281 -52 Q281 -33 272 -11 Q195 -8 134 30 Q73 68 36 132 L111 189 Q144 141 185.5 112.5 Q227 84 284 84 Q335 84 366.5 109 Q398 134 398 176 Q398 211 375.5 231 Q353 251 301 275 L228 309 Q155 342 114.5 385 Q74 428 74 492 Q74 545 102 586 Q130 627 177.5 649 Q225 671 282 671 Q352 671 408 638.5 Q464 606 495 553 L421 496 Q395 535 359.5 555.5 Q324 576 282 576 Q240 576 211 555.5 Q182 535 182 496 Q182 472 193 456 Q204 440 222 429.5 Q240 419 274 402 L348 368 Q428 331 467 288 Q506 245 506 180 Z " />
<glyph glyph-name="Scircumflex" unicode="&#x15c;" horiz-adv-x="559" d="M282 818 L181 724 L100 724 L248 910 L315 910 L463 724 L382 724 L282 818 Z M348 368 Q428 331 467 288 Q506 245 506 180 Q506 123 477.5 79.5 Q449 36 398.5 12.5 Q348 -11 285 -11 Q204 -11 139 27 Q74 65 36 132 L111 189 Q144 141 185.5 112.5 Q227 84 284 84 Q335 84 366.5 109 Q398 134 398 176 Q398 211 375.5 231 Q353 251 301 275 L228 309 Q155 342 114.5 385 Q74 428 74 492 Q74 545 102 586 Q130 627 177.5 649 Q225 671 282 671 Q352 671 408 638.5 Q464 606 495 553 L421 496 Q395 535 359.5 555.5 Q324 576 282 576 Q240 576 211 555.5 Q182 535 182 496 Q182 472 193 456 Q204 440 222 429.5 Q240 419 274 402 L348 368 Z " />
<glyph glyph-name="Scommaaccent" unicode="&#x218;" horiz-adv-x="559" d="M282 671 Q352 671 408 638.5 Q464 606 495 553 L421 496 Q395 535 359.5 555.5 Q324 576 282 576 Q240 576 211 555.5 Q182 535 182 496 Q182 472 193 456 Q204 440 222 429.5 Q240 419 274 402 L348 368 Q428 331 467 288 Q506 245 506 180 Q506 123 477.5 79.5 Q449 36 398.5 12.5 Q348 -11 285 -11 Q204 -11 139 27 Q74 65 36 132 L111 189 Q144 141 185.5 112.5 Q227 84 284 84 Q335 84 366.5 109 Q398 134 398 176 Q398 211 375.5 231 Q353 251 301 275 L228 309 Q155 342 114.5 385 Q74 428 74 492 Q74 545 102 586 Q130 627 177.5 649 Q225 671 282 671 Z M339 -48 L313 -220 L232 -220 L238 -48 L339 -48 Z " />
<glyph glyph-name="uni018F" unicode="&#x18f;" horiz-adv-x="732" d="M351 671 Q444 671 521.5 626 Q599 581 643.5 503.5 Q688 426 688 332 Q688 237 642.5 158.5 Q597 80 518.5 34.5 Q440 -11 347 -11 Q263 -11 193.5 26.5 Q124 64 83.5 131.5 Q43 199 43 286 Q43 320 51 365 L578 365 Q571 426 539.5 473.5 Q508 521 459 547.5 Q410 574 351 574 Q290 574 238.5 546 Q187 518 150 468 L78 529 Q124 595 195 633 Q266 671 351 671 Z M350 86 Q434 86 495 137.5 Q556 189 574 272 L147 272 Q147 215 175.5 172.5 Q204 130 250 108 Q296 86 350 86 Z " />
<glyph glyph-name="T" unicode="T" horiz-adv-x="583" d="M567 660 L567 565 L344 565 L344 0 L238 0 L238 565 L16 565 L16 660 L567 660 Z " />
<glyph glyph-name="Tbar" unicode="&#x166;" horiz-adv-x="583" d="M567 660 L567 565 L344 565 L344 333 L530 333 L530 244 L344 244 L344 0 L238 0 L238 244 L53 244 L53 333 L238 333 L238 565 L16 565 L16 660 L567 660 Z " />
<glyph glyph-name="Tcaron" unicode="&#x164;" horiz-adv-x="583" d="M325 724 L258 724 L110 910 L191 910 L292 816 L392 910 L473 910 L325 724 Z M16 660 L567 660 L567 565 L344 565 L344 0 L238 0 L238 565 L16 565 L16 660 Z " />
<glyph glyph-name="uni0162" unicode="&#x162;" horiz-adv-x="583" d="M344 565 L344 3 Q370 -30 370 -71 Q370 -122 331.5 -156.5 Q293 -191 227 -191 Q194 -191 156 -182 L156 -110 Q194 -113 214 -113 Q246 -113 265 -97.5 Q284 -82 284 -52 Q284 -26 270 0 L238 0 L238 565 L16 565 L16 660 L567 660 L567 565 L344 565 Z " />
<glyph glyph-name="U" unicode="U" horiz-adv-x="694" d="M618 267 Q618 181 583 118 Q548 55 486.5 22 Q425 -11 348 -11 Q269 -11 207.5 22 Q146 55 111 118 Q76 181 76 267 L76 660 L182 660 L182 260 Q182 176 228.5 131 Q275 86 348 86 Q420 86 466 131 Q512 176 512 260 L512 660 L618 660 L618 267 Z " />
<glyph glyph-name="Uacute" unicode="&#xda;" horiz-adv-x="694" d="M512 910 L512 891 L384 724 L306 724 L385 910 L512 910 Z M618 267 Q618 181 583 118 Q548 55 486.5 22 Q425 -11 348 -11 Q269 -11 207.5 22 Q146 55 111 118 Q76 181 76 267 L76 660 L182 660 L182 260 Q182 176 228.5 131 Q275 86 348 86 Q420 86 466 131 Q512 176 512 260 L512 660 L618 660 L618 267 Z " />
<glyph glyph-name="Ubreve" unicode="&#x16c;" horiz-adv-x="694" d="M509 897 Q509 851 488.5 814 Q468 777 431 756 Q394 735 347 735 Q300 735 263 756 Q226 777 205.5 814 Q185 851 185 897 L270 897 Q270 859 291.5 837 Q313 815 347 815 Q381 815 402.5 837 Q424 859 424 897 L509 897 Z M618 267 Q618 181 583 118 Q548 55 486.5 22 Q425 -11 348 -11 Q269 -11 207.5 22 Q146 55 111 118 Q76 181 76 267 L76 660 L182 660 L182 260 Q182 176 228.5 131 Q275 86 348 86 Q420 86 466 131 Q512 176 512 260 L512 660 L618 660 L618 267 Z " />
<glyph glyph-name="Ucircumflex" unicode="&#xdb;" horiz-adv-x="694" d="M347 818 L246 724 L165 724 L313 910 L380 910 L528 724 L447 724 L347 818 Z M618 660 L618 267 Q618 181 583 118 Q548 55 486.5 22 Q425 -11 348 -11 Q269 -11 207.5 22 Q146 55 111 118 Q76 181 76 267 L76 660 L182 660 L182 260 Q182 176 228.5 131 Q275 86 348 86 Q420 86 466 131 Q512 176 512 260 L512 660 L618 660 Z " />
<glyph glyph-name="Udieresis" unicode="&#xdc;" horiz-adv-x="694" d="M224 877 Q252 877 271.5 858.5 Q291 840 291 812 Q291 786 271.5 766.5 Q252 747 224 747 Q197 747 176.5 766.5 Q156 786 156 812 Q156 839 176.5 858 Q197 877 224 877 Z M468 877 Q497 877 516.5 858 Q536 839 536 811 Q536 785 516 765.5 Q496 746 468 746 Q442 746 421.5 765.5 Q401 785 401 811 Q401 838 421.5 857.5 Q442 877 468 877 Z M618 267 Q618 181 583 118 Q548 55 486.5 22 Q425 -11 348 -11 Q269 -11 207.5 22 Q146 55 111 118 Q76 181 76 267 L76 660 L182 660 L182 260 Q182 176 228.5 131 Q275 86 348 86 Q420 86 466 131 Q512 176 512 260 L512 660 L618 660 L618 267 Z " />
<glyph glyph-name="Ugrave" unicode="&#xd9;" horiz-adv-x="694" d="M308 910 L387 724 L309 724 L180 891 L180 910 L308 910 Z M618 267 Q618 181 583 118 Q548 55 486.5 22 Q425 -11 348 -11 Q269 -11 207.5 22 Q146 55 111 118 Q76 181 76 267 L76 660 L182 660 L182 260 Q182 176 228.5 131 Q275 86 348 86 Q420 86 466 131 Q512 176 512 260 L512 660 L618 660 L618 267 Z " />
<glyph glyph-name="Uhungarumlaut" unicode="&#x170;" horiz-adv-x="694" d="M393 910 L393 891 L275 724 L203 724 L282 910 L393 910 Z M592 910 L592 891 L475 724 L402 724 L481 910 L592 910 Z M618 267 Q618 181 583 118 Q548 55 486.5 22 Q425 -11 348 -11 Q269 -11 207.5 22 Q146 55 111 118 Q76 181 76 267 L76 660 L182 660 L182 260 Q182 176 228.5 131 Q275 86 348 86 Q420 86 466 131 Q512 176 512 260 L512 660 L618 660 L618 267 Z " />
<glyph glyph-name="Umacron" unicode="&#x16a;" horiz-adv-x="694" d="M501 847 L501 762 L193 762 L193 847 L501 847 Z M618 267 Q618 181 583 118 Q548 55 486.5 22 Q425 -11 348 -11 Q269 -11 207.5 22 Q146 55 111 118 Q76 181 76 267 L76 660 L182 660 L182 260 Q182 176 228.5 131 Q275 86 348 86 Q420 86 466 131 Q512 176 512 260 L512 660 L618 660 L618 267 Z " />
<glyph glyph-name="Uogonek" unicode="&#x172;" horiz-adv-x="694" d="M618 660 L618 267 Q618 203 600.5 157 Q583 111 557 80.5 Q531 50 488 11 L464 -10 Q444 -28 434 -42.5 Q424 -57 424 -75 Q424 -112 468 -112 Q482 -112 516 -106 L516 -178 Q473 -191 435 -191 Q383 -191 353 -168.5 Q323 -146 323 -103 Q323 -52 374 -9 Q354 -11 344 -11 Q269 -11 207.5 23.5 Q146 58 111 121.5 Q76 185 76 267 L76 660 L182 660 L182 260 Q182 207 204 167.5 Q226 128 263.5 107 Q301 86 347 86 Q394 86 431.5 107 Q469 128 490.5 167.5 Q512 207 512 260 L512 660 L618 660 Z " />
<glyph glyph-name="Uring" unicode="&#x16e;" horiz-adv-x="694" d="M346 917 Q397 917 431 883.5 Q465 850 465 802 Q465 753 431 720 Q397 687 346 687 Q295 687 261.5 720 Q228 753 228 802 Q228 850 261.5 883.5 Q295 917 346 917 Z M347 848 Q327 848 314 835 Q301 822 301 802 Q301 782 314 769 Q327 756 347 756 Q366 756 379 769 Q392 782 392 802 Q392 822 379 835 Q366 848 347 848 Z M618 267 Q618 181 583 118 Q548 55 486.5 22 Q425 -11 348 -11 Q269 -11 207.5 22 Q146 55 111 118 Q76 181 76 267 L76 660 L182 660 L182 260 Q182 176 228.5 131 Q275 86 348 86 Q420 86 466 131 Q512 176 512 260 L512 660 L618 660 L618 267 Z " />
<glyph glyph-name="Utilde" unicode="&#x168;" horiz-adv-x="694" d="M266 890 Q302 890 338 868 L371 848 Q375 846 384 840.5 Q393 835 400.5 832.5 Q408 830 415 830 Q429 830 436 839.5 Q443 849 443 865 L443 880 L527 880 Q528 871 528 851 Q528 799 500 766.5 Q472 734 429 734 Q395 734 354 757 L323 775 Q320 777 310.5 782.5 Q301 788 293.5 790.5 Q286 793 279 793 Q265 793 258 783 Q251 773 251 757 L251 744 L167 744 Q165 762 165 773 Q165 824 193.5 857 Q222 890 266 890 Z M618 267 Q618 181 583 118 Q548 55 486.5 22 Q425 -11 348 -11 Q269 -11 207.5 22 Q146 55 111 118 Q76 181 76 267 L76 660 L182 660 L182 260 Q182 176 228.5 131 Q275 86 348 86 Q420 86 466 131 Q512 176 512 260 L512 660 L618 660 L618 267 Z " />
<glyph glyph-name="V" unicode="V" horiz-adv-x="662" d="M521 660 L640 660 L349 -11 L313 -11 L22 660 L141 660 L331 201 L521 660 Z " />
<glyph glyph-name="W" unicode="W" horiz-adv-x="1051" d="M899 660 L1015 660 L758 -11 L723 -11 L526 457 L329 -11 L293 -11 L36 660 L153 660 L318 214 L507 671 L544 671 L734 214 L899 660 Z " />
<glyph glyph-name="Wcircumflex" unicode="&#x174;" horiz-adv-x="1051" d="M526 818 L425 724 L344 724 L492 910 L559 910 L707 724 L626 724 L526 818 Z M899 660 L1015 660 L758 -11 L723 -11 L526 457 L329 -11 L293 -11 L36 660 L153 660 L318 214 L507 671 L544 671 L734 214 L899 660 Z " />
<glyph glyph-name="X" unicode="X" horiz-adv-x="607" d="M584 0 L463 0 L303 246 L144 0 L22 0 L245 337 L36 660 L158 660 L304 427 L448 660 L569 660 L364 337 L584 0 Z " />
<glyph glyph-name="Y" unicode="Y" horiz-adv-x="620" d="M591 660 L363 266 L363 0 L257 0 L257 266 L29 660 L147 660 L310 373 L474 660 L591 660 Z " />
<glyph glyph-name="Yacute" unicode="&#xdd;" horiz-adv-x="620" d="M473 891 L345 724 L267 724 L346 910 L473 910 L473 891 Z M591 660 L363 266 L363 0 L257 0 L257 266 L29 660 L147 660 L310 373 L474 660 L591 660 Z " />
<glyph glyph-name="Ycircumflex" unicode="&#x176;" horiz-adv-x="620" d="M308 818 L207 724 L126 724 L274 910 L341 910 L489 724 L408 724 L308 818 Z M591 660 L363 266 L363 0 L257 0 L257 266 L29 660 L147 660 L310 373 L474 660 L591 660 Z " />
<glyph glyph-name="Ydieresis" unicode="&#x178;" horiz-adv-x="620" d="M185 747 Q158 747 137.5 766.5 Q117 786 117 812 Q117 839 137.5 858 Q158 877 185 877 Q213 877 232.5 858.5 Q252 840 252 812 Q252 786 232.5 766.5 Q213 747 185 747 Z M429 746 Q403 746 382.5 765.5 Q362 785 362 811 Q362 838 382.5 857.5 Q403 877 429 877 Q458 877 477.5 858 Q497 839 497 811 Q497 785 477 765.5 Q457 746 429 746 Z M591 660 L363 266 L363 0 L257 0 L257 266 L29 660 L147 660 L310 373 L474 660 L591 660 Z " />
<glyph glyph-name="Z" unicode="Z" horiz-adv-x="588" d="M190 95 L558 95 L558 0 L26 0 L26 29 L392 565 L69 565 L69 660 L557 660 L557 631 L190 95 Z " />
<glyph glyph-name="Zacute" unicode="&#x179;" horiz-adv-x="588" d="M465 891 L337 724 L259 724 L338 910 L465 910 L465 891 Z M190 95 L558 95 L558 0 L26 0 L26 29 L392 565 L69 565 L69 660 L557 660 L557 631 L190 95 Z " />
<glyph glyph-name="Zcaron" unicode="&#x17d;" horiz-adv-x="588" d="M333 724 L266 724 L118 910 L199 910 L300 816 L400 910 L481 910 L333 724 Z M190 95 L558 95 L558 0 L26 0 L26 29 L392 565 L69 565 L69 660 L557 660 L557 631 L190 95 Z " />
<glyph glyph-name="Zdotaccent" unicode="&#x17b;" horiz-adv-x="588" d="M299 743 Q269 743 248 763 Q227 783 227 812 Q227 842 248 862 Q269 882 299 882 Q329 882 350 862 Q371 842 371 812 Q371 783 350 763 Q329 743 299 743 Z M190 95 L558 95 L558 0 L26 0 L26 29 L392 565 L69 565 L69 660 L557 660 L557 631 L190 95 Z " />
<glyph glyph-name="uni021A" unicode="&#x21a;" horiz-adv-x="583" d="M567 660 L567 565 L344 565 L344 0 L238 0 L238 565 L16 565 L16 660 L567 660 Z M342 -48 L316 -220 L235 -220 L241 -48 L342 -48 Z " />
<glyph glyph-name="a" unicode="a" horiz-adv-x="536" d="M265 502 Q356 502 411 449 Q466 396 466 297 L466 0 L368 0 L368 55 Q341 23 301 6 Q261 -11 211 -11 Q134 -11 87 28 Q40 67 40 131 Q40 195 89 233 Q138 271 221 271 L360 271 L360 303 Q360 354 332.5 381 Q305 408 255 408 Q214 408 182 390 Q150 372 119 335 L58 397 Q95 450 148 476 Q201 502 265 502 Z M233 70 Q286 70 323 103 Q360 136 360 186 L360 195 L234 195 Q192 195 169.5 180 Q147 165 147 135 Q147 104 171 87 Q195 70 233 70 Z " />
<glyph glyph-name="aacute" unicode="&#xe1;" horiz-adv-x="536" d="M265 502 Q356 502 411 449 Q466 396 466 297 L466 0 L368 0 L368 55 Q341 23 301 6 Q261 -11 211 -11 Q134 -11 87 28 Q40 67 40 131 Q40 195 89 233 Q138 271 221 271 L360 271 L360 303 Q360 354 332.5 381 Q305 408 255 408 Q214 408 182 390 Q150 372 119 335 L58 397 Q95 450 148 476 Q201 502 265 502 Z M233 70 Q286 70 323 103 Q360 136 360 186 L360 195 L234 195 Q192 195 169.5 180 Q147 165 147 135 Q147 104 171 87 Q195 70 233 70 Z M433 780 L433 761 L305 568 L227 568 L306 780 L433 780 Z " />
<glyph glyph-name="abreve" unicode="&#x103;" horiz-adv-x="536" d="M265 502 Q356 502 411 449 Q466 396 466 297 L466 0 L368 0 L368 55 Q341 23 301 6 Q261 -11 211 -11 Q134 -11 87 28 Q40 67 40 131 Q40 195 89 233 Q138 271 221 271 L360 271 L360 303 Q360 354 332.5 381 Q305 408 255 408 Q214 408 182 390 Q150 372 119 335 L58 397 Q95 450 148 476 Q201 502 265 502 Z M233 70 Q286 70 323 103 Q360 136 360 186 L360 195 L234 195 Q192 195 169.5 180 Q147 165 147 135 Q147 104 171 87 Q195 70 233 70 Z M427 742 Q427 696 406.5 659 Q386 622 349 601 Q312 580 265 580 Q218 580 181 601 Q144 622 123.5 659 Q103 696 103 742 L188 742 Q188 704 209.5 682 Q231 660 265 660 Q299 660 321 682 Q343 704 343 742 L427 742 Z " />
<glyph glyph-name="acircumflex" unicode="&#xe2;" horiz-adv-x="536" d="M265 502 Q356 502 411 449 Q466 396 466 297 L466 0 L368 0 L368 55 Q341 23 301 6 Q261 -11 211 -11 Q134 -11 87 28 Q40 67 40 131 Q40 195 89 233 Q138 271 221 271 L360 271 L360 303 Q360 354 332.5 381 Q305 408 255 408 Q214 408 182 390 Q150 372 119 335 L58 397 Q95 450 148 476 Q201 502 265 502 Z M233 70 Q286 70 323 103 Q360 136 360 186 L360 195 L234 195 Q192 195 169.5 180 Q147 165 147 135 Q147 104 171 87 Q195 70 233 70 Z M434 568 L355 568 L265 677 L175 568 L96 568 L231 780 L299 780 L434 568 Z " />
<glyph glyph-name="adieresis" unicode="&#xe4;" horiz-adv-x="536" d="M265 502 Q356 502 411 449 Q466 396 466 297 L466 0 L368 0 L368 55 Q341 23 301 6 Q261 -11 211 -11 Q134 -11 87 28 Q40 67 40 131 Q40 195 89 233 Q138 271 221 271 L360 271 L360 303 Q360 354 332.5 381 Q305 408 255 408 Q214 408 182 390 Q150 372 119 335 L58 397 Q95 450 148 476 Q201 502 265 502 Z M233 70 Q286 70 323 103 Q360 136 360 186 L360 195 L234 195 Q192 195 169.5 180 Q147 165 147 135 Q147 104 171 87 Q195 70 233 70 Z M152 740 Q180 740 199.5 721 Q219 702 219 674 Q219 648 199.5 628.5 Q180 609 152 609 Q125 609 104.5 628.5 Q84 648 84 674 Q84 702 104.5 721 Q125 740 152 740 Z M376 740 Q405 740 424.5 721 Q444 702 444 674 Q444 648 424 628.5 Q404 609 376 609 Q350 609 329.5 628.5 Q309 648 309 674 Q309 702 329.5 721 Q350 740 376 740 Z " />
<glyph glyph-name="agrave" unicode="&#xe0;" horiz-adv-x="536" d="M265 502 Q356 502 411 449 Q466 396 466 297 L466 0 L368 0 L368 55 Q341 23 301 6 Q261 -11 211 -11 Q134 -11 87 28 Q40 67 40 131 Q40 195 89 233 Q138 271 221 271 L360 271 L360 303 Q360 354 332.5 381 Q305 408 255 408 Q214 408 182 390 Q150 372 119 335 L58 397 Q95 450 148 476 Q201 502 265 502 Z M233 70 Q286 70 323 103 Q360 136 360 186 L360 195 L234 195 Q192 195 169.5 180 Q147 165 147 135 Q147 104 171 87 Q195 70 233 70 Z M225 780 L304 568 L226 568 L98 761 L98 780 L225 780 Z " />
<glyph glyph-name="amacron" unicode="&#x101;" horiz-adv-x="536" d="M265 502 Q356 502 411 449 Q466 396 466 297 L466 0 L368 0 L368 55 Q341 23 301 6 Q261 -11 211 -11 Q134 -11 87 28 Q40 67 40 131 Q40 195 89 233 Q138 271 221 271 L360 271 L360 303 Q360 354 332.5 381 Q305 408 255 408 Q214 408 182 390 Q150 372 119 335 L58 397 Q95 450 148 476 Q201 502 265 502 Z M233 70 Q286 70 323 103 Q360 136 360 186 L360 195 L234 195 Q192 195 169.5 180 Q147 165 147 135 Q147 104 171 87 Q195 70 233 70 Z M409 716 L409 632 L121 632 L121 716 L409 716 Z " />
<glyph glyph-name="aogonek" unicode="&#x105;" horiz-adv-x="536" d="M422 -29 Q396 -45 386 -54.5 Q376 -64 376 -79 Q376 -95 387 -103.5 Q398 -112 418 -112 Q432 -112 466 -106 L466 -179 Q426 -191 388 -191 Q336 -191 305 -165.5 Q274 -140 274 -98 Q274 -65 296 -38.5 Q318 -12 368 16 L368 55 Q341 23 301 6 Q261 -11 211 -11 Q134 -11 87 28 Q40 67 40 131 Q40 195 89 233 Q138 271 221 271 L360 271 L360 303 Q360 354 332.5 381 Q305 408 255 408 Q214 408 182 390 Q150 372 119 335 L58 397 Q95 450 148 476 Q201 502 265 502 Q356 502 411 449 Q466 396 466 297 L466 0 L422 -29 Z M233 70 Q286 70 323 103 Q360 136 360 186 L360 195 L234 195 Q192 195 169.5 180 Q147 165 147 135 Q147 104 171 87 Q195 70 233 70 Z " />
<glyph glyph-name="aring" unicode="&#xe5;" horiz-adv-x="536" d="M265 502 Q356 502 411 449 Q466 396 466 297 L466 0 L368 0 L368 55 Q341 23 301 6 Q261 -11 211 -11 Q134 -11 87 28 Q40 67 40 131 Q40 195 89 233 Q138 271 221 271 L360 271 L360 303 Q360 354 332.5 381 Q305 408 255 408 Q214 408 182 390 Q150 372 119 335 L58 397 Q95 450 148 476 Q201 502 265 502 Z M233 70 Q286 70 323 103 Q360 136 360 186 L360 195 L234 195 Q192 195 169.5 180 Q147 165 147 135 Q147 104 171 87 Q195 70 233 70 Z M264 785 Q315 785 349 751.5 Q383 718 383 669 Q383 621 349 587.5 Q315 554 264 554 Q213 554 179.5 587.5 Q146 621 146 669 Q146 718 179.5 751.5 Q213 785 264 785 Z M265 716 Q245 716 232 702.5 Q219 689 219 669 Q219 650 232 637 Q245 624 265 624 Q285 624 297.5 637 Q310 650 310 669 Q310 689 297 702.5 Q284 716 265 716 Z " />
<glyph glyph-name="atilde" unicode="&#xe3;" horiz-adv-x="536" d="M265 502 Q356 502 411 449 Q466 396 466 297 L466 0 L368 0 L368 55 Q341 23 301 6 Q261 -11 211 -11 Q134 -11 87 28 Q40 67 40 131 Q40 195 89 233 Q138 271 221 271 L360 271 L360 303 Q360 354 332.5 381 Q305 408 255 408 Q214 408 182 390 Q150 372 119 335 L58 397 Q95 450 148 476 Q201 502 265 502 Z M233 70 Q286 70 323 103 Q360 136 360 186 L360 195 L234 195 Q192 195 169.5 180 Q147 165 147 135 Q147 104 171 87 Q195 70 233 70 Z M189 748 Q227 748 259 724 L286 704 Q299 693 308 688.5 Q317 684 327 684 Q341 684 348 694.5 Q355 705 355 722 L355 736 L438 736 Q439 726 439 707 Q439 654 411.5 620.5 Q384 587 340 587 Q305 587 270 611 L244 631 Q242 633 233 639.5 Q224 646 216.5 649 Q209 652 202 652 Q174 652 174 614 L174 600 L92 600 Q90 610 90 629 Q90 682 117.5 715 Q145 748 189 748 Z " />
<glyph glyph-name="ae" unicode="&#xe6;" horiz-adv-x="887" d="M469 204 Q481 147 523.5 114.5 Q566 82 628 82 Q705 82 770 139 L821 68 Q781 29 731.5 9 Q682 -11 626 -11 Q558 -11 503.5 17.5 Q449 46 415 97 Q388 44 336 16.5 Q284 -11 217 -11 Q135 -11 87.5 29 Q40 69 40 133 Q40 200 89.5 240 Q139 280 221 280 L360 280 L360 303 Q360 354 332.5 381 Q305 408 256 408 Q216 408 183.5 389.5 Q151 371 120 335 L59 397 Q97 450 150 476 Q203 502 265 502 Q321 502 363.5 480 Q406 458 430 415 Q463 456 511 479 Q559 502 616 502 Q681 502 732.5 472.5 Q784 443 813 391.5 Q842 340 842 276 Q842 257 839.5 236 Q837 215 834 204 L469 204 Z M737 280 Q741 341 704.5 377 Q668 413 612 413 Q556 413 516.5 376.5 Q477 340 467 280 L737 280 Z M233 71 Q286 71 323 103.5 Q360 136 360 185 L360 204 L234 204 Q192 204 169.5 188 Q147 172 147 141 Q147 108 171 89.5 Q195 71 233 71 Z " />
<glyph glyph-name="aeacute" unicode="&#x1fd;" horiz-adv-x="887" d="M469 204 Q481 147 523.5 114.5 Q566 82 628 82 Q705 82 770 139 L821 68 Q781 29 731.5 9 Q682 -11 626 -11 Q558 -11 503.5 17.5 Q449 46 415 97 Q388 44 336 16.5 Q284 -11 217 -11 Q135 -11 87.5 29 Q40 69 40 133 Q40 200 89.5 240 Q139 280 221 280 L360 280 L360 303 Q360 354 332.5 381 Q305 408 256 408 Q216 408 183.5 389.5 Q151 371 120 335 L59 397 Q97 450 150 476 Q203 502 265 502 Q321 502 363.5 480 Q406 458 430 415 Q463 456 511 479 Q559 502 616 502 Q681 502 732.5 472.5 Q784 443 813 391.5 Q842 340 842 276 Q842 257 839.5 236 Q837 215 834 204 L469 204 Z M737 280 Q741 341 704.5 377 Q668 413 612 413 Q556 413 516.5 376.5 Q477 340 467 280 L737 280 Z M233 71 Q286 71 323 103.5 Q360 136 360 185 L360 204 L234 204 Q192 204 169.5 188 Q147 172 147 141 Q147 108 171 89.5 Q195 71 233 71 Z M597 780 L597 761 L469 568 L391 568 L470 780 L597 780 Z " />
<glyph glyph-name="b" unicode="b" horiz-adv-x="631" d="M345 502 Q414 502 469 468.5 Q524 435 555 376 Q586 317 586 245 Q586 173 555 114.5 Q524 56 469 22.5 Q414 -11 346 -11 Q292 -11 247 9.5 Q202 30 174 68 L174 0 L76 0 L76 750 L181 750 L181 431 Q209 465 251.5 483.5 Q294 502 345 502 Z M328 85 Q370 85 404.5 105.5 Q439 126 458.5 162.5 Q478 199 478 246 Q478 293 458 329 Q438 365 404 385.5 Q370 406 328 406 Q289 406 255.5 388.5 Q222 371 201 334.5 Q180 298 180 245 Q180 192 201 156 Q222 120 255.5 102.5 Q289 85 328 85 Z " />
<glyph glyph-name="c" unicode="c" horiz-adv-x="552" d="M305 502 Q373 502 426.5 471.5 Q480 441 512 388 L438 330 Q385 405 306 405 Q262 405 227 384 Q192 363 172 326.5 Q152 290 152 246 Q152 201 172 164.5 Q192 128 227 107 Q262 86 306 86 Q384 86 438 160 L512 103 Q479 50 425.5 19.5 Q372 -11 305 -11 Q233 -11 173.5 23 Q114 57 79.5 116 Q45 175 45 246 Q45 317 79.5 375.5 Q114 434 174 468 Q234 502 305 502 Z " />
<glyph glyph-name="cacute" unicode="&#x107;" horiz-adv-x="552" d="M305 502 Q373 502 426.5 471.5 Q480 441 512 388 L438 330 Q385 405 306 405 Q262 405 227 384 Q192 363 172 326.5 Q152 290 152 246 Q152 201 172 164.5 Q192 128 227 107 Q262 86 306 86 Q384 86 438 160 L512 103 Q479 50 425.5 19.5 Q372 -11 305 -11 Q233 -11 173.5 23 Q114 57 79.5 116 Q45 175 45 246 Q45 317 79.5 375.5 Q114 434 174 468 Q234 502 305 502 Z M471 780 L471 761 L343 568 L265 568 L344 780 L471 780 Z " />
<glyph glyph-name="ccaron" unicode="&#x10d;" horiz-adv-x="552" d="M305 502 Q373 502 426.5 471.5 Q480 441 512 388 L438 330 Q385 405 306 405 Q262 405 227 384 Q192 363 172 326.5 Q152 290 152 246 Q152 201 172 164.5 Q192 128 227 107 Q262 86 306 86 Q384 86 438 160 L512 103 Q479 50 425.5 19.5 Q372 -11 305 -11 Q233 -11 173.5 23 Q114 57 79.5 116 Q45 175 45 246 Q45 317 79.5 375.5 Q114 434 174 468 Q234 502 305 502 Z M393 780 L472 780 L337 568 L269 568 L134 780 L213 780 L303 671 L393 780 Z " />
<glyph glyph-name="ccedilla" unicode="&#xe7;" horiz-adv-x="552" d="M306 86 Q384 86 438 160 L512 103 Q486 62 447.5 33.5 Q409 5 361 -5 Q381 -33 381 -71 Q381 -122 342.5 -156.5 Q304 -191 238 -191 Q205 -191 167 -182 L167 -110 Q205 -113 225 -113 Q257 -113 276 -97.5 Q295 -82 295 -52 Q295 -33 286 -10 Q219 -6 163.5 29 Q108 64 76.5 121 Q45 178 45 246 Q45 317 79.5 375.5 Q114 434 174 468 Q234 502 305 502 Q373 502 426.5 471.5 Q480 441 512 388 L438 330 Q385 405 306 405 Q262 405 227 384 Q192 363 172 326.5 Q152 290 152 246 Q152 201 172 164.5 Q192 128 227 107 Q262 86 306 86 Z " />
<glyph glyph-name="ccircumflex" unicode="&#x109;" horiz-adv-x="552" d="M305 502 Q373 502 426.5 471.5 Q480 441 512 388 L438 330 Q385 405 306 405 Q262 405 227 384 Q192 363 172 326.5 Q152 290 152 246 Q152 201 172 164.5 Q192 128 227 107 Q262 86 306 86 Q384 86 438 160 L512 103 Q479 50 425.5 19.5 Q372 -11 305 -11 Q233 -11 173.5 23 Q114 57 79.5 116 Q45 175 45 246 Q45 317 79.5 375.5 Q114 434 174 468 Q234 502 305 502 Z M472 568 L393 568 L303 677 L213 568 L134 568 L269 780 L337 780 L472 568 Z " />
<glyph glyph-name="cdotaccent" unicode="&#x10b;" horiz-adv-x="552" d="M305 502 Q373 502 426.5 471.5 Q480 441 512 388 L438 330 Q385 405 306 405 Q262 405 227 384 Q192 363 172 326.5 Q152 290 152 246 Q152 201 172 164.5 Q192 128 227 107 Q262 86 306 86 Q384 86 438 160 L512 103 Q479 50 425.5 19.5 Q372 -11 305 -11 Q233 -11 173.5 23 Q114 57 79.5 116 Q45 175 45 246 Q45 317 79.5 375.5 Q114 434 174 468 Q234 502 305 502 Z M303 744 Q332 744 353.5 723.5 Q375 703 375 674 Q375 645 354 625 Q333 605 303 605 Q273 605 252 625 Q231 645 231 674 Q231 703 252 723.5 Q273 744 303 744 Z " />
<glyph glyph-name="d" unicode="d" horiz-adv-x="631" d="M555 750 L555 0 L457 0 L457 70 Q430 32 385 10.5 Q340 -11 285 -11 Q216 -11 161.5 22.5 Q107 56 76 114.5 Q45 173 45 245 Q45 317 76 376 Q107 435 162 468.5 Q217 502 285 502 Q336 502 378.5 483.5 Q421 465 449 431 L449 750 L555 750 Z M303 85 Q342 85 375.5 102.5 Q409 120 430 156 Q451 192 451 245 Q451 298 430 334 Q409 370 375 388 Q341 406 303 406 Q261 406 226.5 385.5 Q192 365 172 329 Q152 293 152 246 Q152 199 171.5 162.5 Q191 126 225.5 105.5 Q260 85 303 85 Z " />
<glyph glyph-name="eth" unicode="&#xf0;" horiz-adv-x="571" d="M413 470 Q472 392 499 339.5 Q526 287 526 224 Q526 157 495 103.5 Q464 50 409 19.5 Q354 -11 286 -11 Q217 -11 162 19 Q107 49 76 101.5 Q45 154 45 218 Q45 282 75.5 333.5 Q106 385 158 414 Q210 443 273 443 Q287 443 307 441 L227 551 L84 482 L47 558 L176 621 L116 703 L196 761 L268 665 L422 740 L460 665 L319 596 L413 470 Z M285 84 Q343 84 381 122 Q419 160 419 219 Q419 277 381 315 Q343 353 285 353 Q227 353 189.5 315 Q152 277 152 218 Q152 159 189.5 121.5 Q227 84 285 84 Z " />
<glyph glyph-name="dcaron" unicode="&#x10f;" horiz-adv-x="773" d="M555 750 L555 0 L457 0 L457 70 Q430 32 385 10.5 Q340 -11 285 -11 Q216 -11 161.5 22.5 Q107 56 76 114.5 Q45 173 45 245 Q45 317 76 376 Q107 435 162 468.5 Q217 502 285 502 Q336 502 378.5 483.5 Q421 465 449 431 L449 750 L555 750 Z M303 85 Q342 85 375.5 102.5 Q409 120 430 156 Q451 192 451 245 Q451 298 430 334 Q409 370 375 388 Q341 406 303 406 Q261 406 226.5 385.5 Q192 365 172 329 Q152 293 152 246 Q152 199 171.5 162.5 Q191 126 225.5 105.5 Q260 85 303 85 Z M769 750 L725 542 L649 542 L658 750 L769 750 Z " />
<glyph glyph-name="dslash" unicode="&#x111;" horiz-adv-x="635" d="M634 567 L554 567 L554 0 L456 0 L456 70 Q428 32 382 10.5 Q336 -11 281 -11 Q215 -11 160.5 20.5 Q106 52 75 108 Q44 164 44 234 Q44 304 75 360.5 Q106 417 160 449 Q214 481 281 481 Q333 481 376.5 461.5 Q420 442 449 407 L449 567 L237 567 L237 653 L449 653 L449 750 L554 750 L554 653 L634 653 L634 567 Z M302 80 Q363 80 406.5 119 Q450 158 450 234 Q450 311 406.5 350 Q363 389 302 389 Q260 389 226 369.5 Q192 350 172 314.5 Q152 279 152 234 Q152 166 194.5 123 Q237 80 302 80 Z " />
<glyph glyph-name="e" unicode="e" horiz-adv-x="570" d="M526 277 Q526 246 518 211 L152 211 Q162 151 205.5 116.5 Q249 82 312 82 Q389 82 455 140 L505 68 Q421 -11 309 -11 Q234 -11 174 22.5 Q114 56 79.5 114.5 Q45 173 45 245 Q45 316 78.5 375 Q112 434 170.5 468 Q229 502 299 502 Q364 502 415.5 472.5 Q467 443 496.5 392 Q526 341 526 277 Z M295 413 Q243 413 204.5 380.5 Q166 348 154 293 L421 293 Q420 349 383.5 381 Q347 413 295 413 Z " />
<glyph glyph-name="eacute" unicode="&#xe9;" horiz-adv-x="570" d="M526 277 Q526 246 518 211 L152 211 Q162 151 205.5 116.5 Q249 82 312 82 Q389 82 455 140 L505 68 Q421 -11 309 -11 Q234 -11 174 22.5 Q114 56 79.5 114.5 Q45 173 45 245 Q45 316 78.5 375 Q112 434 170.5 468 Q229 502 299 502 Q364 502 415.5 472.5 Q467 443 496.5 392 Q526 341 526 277 Z M295 413 Q243 413 204.5 380.5 Q166 348 154 293 L421 293 Q420 349 383.5 381 Q347 413 295 413 Z M465 780 L465 761 L337 568 L259 568 L338 780 L465 780 Z " />
<glyph glyph-name="ebreve" unicode="&#x115;" horiz-adv-x="570" d="M526 277 Q526 246 518 211 L152 211 Q162 151 205.5 116.5 Q249 82 312 82 Q389 82 455 140 L505 68 Q421 -11 309 -11 Q234 -11 174 22.5 Q114 56 79.5 114.5 Q45 173 45 245 Q45 316 78.5 375 Q112 434 170.5 468 Q229 502 299 502 Q364 502 415.5 472.5 Q467 443 496.5 392 Q526 341 526 277 Z M295 413 Q243 413 204.5 380.5 Q166 348 154 293 L421 293 Q420 349 383.5 381 Q347 413 295 413 Z M459 742 Q459 696 438.5 659 Q418 622 381 601 Q344 580 297 580 Q250 580 213 601 Q176 622 155.5 659 Q135 696 135 742 L220 742 Q220 704 241.5 682 Q263 660 297 660 Q331 660 353 682 Q375 704 375 742 L459 742 Z " />
<glyph glyph-name="ecaron" unicode="&#x11b;" horiz-adv-x="570" d="M526 277 Q526 246 518 211 L152 211 Q162 151 205.5 116.5 Q249 82 312 82 Q389 82 455 140 L505 68 Q421 -11 309 -11 Q234 -11 174 22.5 Q114 56 79.5 114.5 Q45 173 45 245 Q45 316 78.5 375 Q112 434 170.5 468 Q229 502 299 502 Q364 502 415.5 472.5 Q467 443 496.5 392 Q526 341 526 277 Z M295 413 Q243 413 204.5 380.5 Q166 348 154 293 L421 293 Q420 349 383.5 381 Q347 413 295 413 Z M387 780 L466 780 L331 568 L263 568 L128 780 L207 780 L297 671 L387 780 Z " />
<glyph glyph-name="ecircumflex" unicode="&#xea;" horiz-adv-x="570" d="M526 277 Q526 246 518 211 L152 211 Q162 151 205.5 116.5 Q249 82 312 82 Q389 82 455 140 L505 68 Q421 -11 309 -11 Q234 -11 174 22.5 Q114 56 79.5 114.5 Q45 173 45 245 Q45 316 78.5 375 Q112 434 170.5 468 Q229 502 299 502 Q364 502 415.5 472.5 Q467 443 496.5 392 Q526 341 526 277 Z M295 413 Q243 413 204.5 380.5 Q166 348 154 293 L421 293 Q420 349 383.5 381 Q347 413 295 413 Z M466 568 L387 568 L297 677 L207 568 L128 568 L263 780 L331 780 L466 568 Z " />
<glyph glyph-name="edieresis" unicode="&#xeb;" horiz-adv-x="570" d="M526 277 Q526 246 518 211 L152 211 Q162 151 205.5 116.5 Q249 82 312 82 Q389 82 455 140 L505 68 Q421 -11 309 -11 Q234 -11 174 22.5 Q114 56 79.5 114.5 Q45 173 45 245 Q45 316 78.5 375 Q112 434 170.5 468 Q229 502 299 502 Q364 502 415.5 472.5 Q467 443 496.5 392 Q526 341 526 277 Z M295 413 Q243 413 204.5 380.5 Q166 348 154 293 L421 293 Q420 349 383.5 381 Q347 413 295 413 Z M184 740 Q212 740 231.5 721 Q251 702 251 674 Q251 648 231.5 628.5 Q212 609 184 609 Q157 609 136.5 628.5 Q116 648 116 674 Q116 702 136.5 721 Q157 740 184 740 Z M408 740 Q437 740 456.5 721 Q476 702 476 674 Q476 648 456 628.5 Q436 609 408 609 Q382 609 361.5 628.5 Q341 648 341 674 Q341 702 361.5 721 Q382 740 408 740 Z " />
<glyph glyph-name="edotaccent" unicode="&#x117;" horiz-adv-x="570" d="M526 277 Q526 246 518 211 L152 211 Q162 151 205.5 116.5 Q249 82 312 82 Q389 82 455 140 L505 68 Q421 -11 309 -11 Q234 -11 174 22.5 Q114 56 79.5 114.5 Q45 173 45 245 Q45 316 78.5 375 Q112 434 170.5 468 Q229 502 299 502 Q364 502 415.5 472.5 Q467 443 496.5 392 Q526 341 526 277 Z M295 413 Q243 413 204.5 380.5 Q166 348 154 293 L421 293 Q420 349 383.5 381 Q347 413 295 413 Z M297 744 Q326 744 347.5 723.5 Q369 703 369 674 Q369 645 348 625 Q327 605 297 605 Q267 605 246 625 Q225 645 225 674 Q225 703 246 723.5 Q267 744 297 744 Z " />
<glyph glyph-name="egrave" unicode="&#xe8;" horiz-adv-x="570" d="M526 277 Q526 246 518 211 L152 211 Q162 151 205.5 116.5 Q249 82 312 82 Q389 82 455 140 L505 68 Q421 -11 309 -11 Q234 -11 174 22.5 Q114 56 79.5 114.5 Q45 173 45 245 Q45 316 78.5 375 Q112 434 170.5 468 Q229 502 299 502 Q364 502 415.5 472.5 Q467 443 496.5 392 Q526 341 526 277 Z M295 413 Q243 413 204.5 380.5 Q166 348 154 293 L421 293 Q420 349 383.5 381 Q347 413 295 413 Z M257 780 L336 568 L258 568 L130 761 L130 780 L257 780 Z " />
<glyph glyph-name="emacron" unicode="&#x113;" horiz-adv-x="570" d="M526 277 Q526 246 518 211 L152 211 Q162 151 205.5 116.5 Q249 82 312 82 Q389 82 455 140 L505 68 Q421 -11 309 -11 Q234 -11 174 22.5 Q114 56 79.5 114.5 Q45 173 45 245 Q45 316 78.5 375 Q112 434 170.5 468 Q229 502 299 502 Q364 502 415.5 472.5 Q467 443 496.5 392 Q526 341 526 277 Z M295 413 Q243 413 204.5 380.5 Q166 348 154 293 L421 293 Q420 349 383.5 381 Q347 413 295 413 Z M441 716 L441 632 L153 632 L153 716 L441 716 Z " />
<glyph glyph-name="eogonek" unicode="&#x119;" horiz-adv-x="570" d="M526 277 Q526 246 518 211 L152 211 Q162 151 205.5 116.5 Q249 82 312 82 Q392 82 457 141 L505 69 Q489 52 471.5 39 Q454 26 423 7 L403 -6 Q376 -24 362 -40.5 Q348 -57 348 -76 Q348 -94 360 -103.5 Q372 -113 393 -113 Q411 -113 441 -106 L441 -177 Q427 -183 405.5 -187 Q384 -191 362 -191 Q310 -191 279 -165.5 Q248 -140 248 -98 Q248 -73 260 -52 Q272 -31 297 -11 Q228 -10 170 24 Q112 58 78.5 116 Q45 174 45 245 Q45 316 78.5 375 Q112 434 170.5 468 Q229 502 299 502 Q364 502 415.5 472.5 Q467 443 496.5 392 Q526 341 526 277 Z M295 413 Q243 413 204.5 380.5 Q166 348 154 293 L421 293 Q420 349 383.5 381 Q347 413 295 413 Z " />
<glyph glyph-name="f" unicode="f" horiz-adv-x="322" d="M295 666 Q247 666 223 647 Q199 628 199 581 L199 491 L315 491 L315 400 L199 400 L199 0 L94 0 L94 400 L24 400 L24 491 L94 491 L94 590 Q94 676 141 718.5 Q188 761 269 761 Q309 761 337 752 L337 663 Q313 666 295 666 Z " />
<glyph glyph-name="g" unicode="g" horiz-adv-x="634" d="M558 491 L558 51 Q558 -65 491 -128 Q424 -191 312 -191 Q239 -191 179.5 -165 Q120 -139 76 -98 L134 -25 Q175 -58 215.5 -76.5 Q256 -95 306 -95 Q373 -95 413 -59.5 Q453 -24 453 45 L453 80 Q425 46 381.5 28 Q338 10 287 10 Q219 10 164.5 41.5 Q110 73 79 129 Q48 185 48 256 Q48 327 79 383 Q110 439 165 470.5 Q220 502 287 502 Q343 502 388.5 480.5 Q434 459 461 421 L461 491 L558 491 Z M306 102 Q367 102 410.5 142 Q454 182 454 257 Q454 332 410.5 370 Q367 408 306 408 Q242 408 199 366 Q156 324 156 256 Q156 187 199 144.5 Q242 102 306 102 Z " />
<glyph glyph-name="gbreve" unicode="&#x11f;" horiz-adv-x="634" d="M558 491 L558 51 Q558 -65 491 -128 Q424 -191 312 -191 Q239 -191 179.5 -165 Q120 -139 76 -98 L134 -25 Q175 -58 215.5 -76.5 Q256 -95 306 -95 Q373 -95 413 -59.5 Q453 -24 453 45 L453 80 Q425 46 381.5 28 Q338 10 287 10 Q219 10 164.5 41.5 Q110 73 79 129 Q48 185 48 256 Q48 327 79 383 Q110 439 165 470.5 Q220 502 287 502 Q343 502 388.5 480.5 Q434 459 461 421 L461 491 L558 491 Z M306 102 Q367 102 410.5 142 Q454 182 454 257 Q454 332 410.5 370 Q367 408 306 408 Q242 408 199 366 Q156 324 156 256 Q156 187 199 144.5 Q242 102 306 102 Z M474 742 Q474 696 453.5 659 Q433 622 396 601 Q359 580 312 580 Q265 580 228 601 Q191 622 170.5 659 Q150 696 150 742 L235 742 Q235 704 256.5 682 Q278 660 312 660 Q346 660 368 682 Q390 704 390 742 L474 742 Z " />
<glyph glyph-name="gcircumflex" unicode="&#x11d;" horiz-adv-x="634" d="M558 491 L558 51 Q558 -65 491 -128 Q424 -191 312 -191 Q239 -191 179.5 -165 Q120 -139 76 -98 L134 -25 Q175 -58 215.5 -76.5 Q256 -95 306 -95 Q373 -95 413 -59.5 Q453 -24 453 45 L453 80 Q425 46 381.5 28 Q338 10 287 10 Q219 10 164.5 41.5 Q110 73 79 129 Q48 185 48 256 Q48 327 79 383 Q110 439 165 470.5 Q220 502 287 502 Q343 502 388.5 480.5 Q434 459 461 421 L461 491 L558 491 Z M306 102 Q367 102 410.5 142 Q454 182 454 257 Q454 332 410.5 370 Q367 408 306 408 Q242 408 199 366 Q156 324 156 256 Q156 187 199 144.5 Q242 102 306 102 Z M481 568 L402 568 L312 677 L222 568 L143 568 L278 780 L346 780 L481 568 Z " />
<glyph glyph-name="gcommaaccent" unicode="&#x123;" horiz-adv-x="634" d="M371 780 L361 568 L260 568 L293 780 L371 780 Z M558 491 L558 51 Q558 -65 491 -128 Q424 -191 312 -191 Q239 -191 179.5 -165 Q120 -139 76 -98 L134 -25 Q175 -58 215.5 -76.5 Q256 -95 306 -95 Q373 -95 413 -59.5 Q453 -24 453 45 L453 80 Q425 46 381.5 28 Q338 10 287 10 Q219 10 164.5 41.5 Q110 73 79 129 Q48 185 48 256 Q48 327 79 383 Q110 439 165 470.5 Q220 502 287 502 Q343 502 388.5 480.5 Q434 459 461 421 L461 491 L558 491 Z M306 102 Q367 102 410.5 142 Q454 182 454 257 Q454 332 410.5 370 Q367 408 306 408 Q242 408 199 366 Q156 324 156 256 Q156 187 199 144.5 Q242 102 306 102 Z " />
<glyph glyph-name="gdotaccent" unicode="&#x121;" horiz-adv-x="634" d="M558 491 L558 51 Q558 -65 491 -128 Q424 -191 312 -191 Q239 -191 179.5 -165 Q120 -139 76 -98 L134 -25 Q175 -58 215.5 -76.5 Q256 -95 306 -95 Q373 -95 413 -59.5 Q453 -24 453 45 L453 80 Q425 46 381.5 28 Q338 10 287 10 Q219 10 164.5 41.5 Q110 73 79 129 Q48 185 48 256 Q48 327 79 383 Q110 439 165 470.5 Q220 502 287 502 Q343 502 388.5 480.5 Q434 459 461 421 L461 491 L558 491 Z M306 102 Q367 102 410.5 142 Q454 182 454 257 Q454 332 410.5 370 Q367 408 306 408 Q242 408 199 366 Q156 324 156 256 Q156 187 199 144.5 Q242 102 306 102 Z M312 744 Q341 744 362.5 723.5 Q384 703 384 674 Q384 645 363 625 Q342 605 312 605 Q282 605 261 625 Q240 645 240 674 Q240 703 261 723.5 Q282 744 312 744 Z " />
<glyph glyph-name="h" unicode="h" horiz-adv-x="575" d="M323 502 Q407 502 456 448 Q505 394 505 307 L505 0 L400 0 L400 292 Q400 343 371 374.5 Q342 406 293 406 Q244 406 212.5 374 Q181 342 181 292 L181 0 L76 0 L76 750 L181 750 L181 442 Q206 471 242.5 486.5 Q279 502 323 502 Z " />
<glyph glyph-name="hbar" unicode="&#x127;" horiz-adv-x="581" d="M328 481 Q412 481 461.5 427 Q511 373 511 285 L511 0 L405 0 L405 272 Q405 322 376 353 Q347 384 299 384 Q249 384 217.5 352.5 Q186 321 186 272 L186 0 L82 0 L82 565 L1 565 L1 655 L82 655 L82 750 L186 750 L186 655 L383 655 L383 565 L186 565 L186 421 Q211 450 247.5 465.5 Q284 481 328 481 Z " />
<glyph glyph-name="hcircumflex" unicode="&#x125;" horiz-adv-x="575" d="M181 908 L80 814 L-1 814 L147 1000 L214 1000 L362 814 L281 814 L181 908 Z M323 502 Q407 502 456 448 Q505 394 505 307 L505 0 L400 0 L400 292 Q400 343 371 374.5 Q342 406 293 406 Q244 406 212.5 374 Q181 342 181 292 L181 0 L76 0 L76 750 L181 750 L181 442 Q206 471 242.5 486.5 Q279 502 323 502 Z " />
<glyph glyph-name="i" unicode="i" horiz-adv-x="257" d="M181 491 L181 0 L76 0 L76 491 L181 491 Z M129 744 Q158 744 179.5 723.5 Q201 703 201 674 Q201 645 180 625 Q159 605 129 605 Q99 605 78 625 Q57 645 57 674 Q57 703 78 723.5 Q99 744 129 744 Z " />
<glyph glyph-name="dotlessi" unicode="&#x131;" horiz-adv-x="257" d="M181 491 L181 0 L76 0 L76 491 L181 491 Z " />
<glyph glyph-name="iacute" unicode="&#xed;" horiz-adv-x="257" d="M265 780 L265 761 L167 568 L89 568 L138 780 L265 780 Z M181 491 L181 0 L76 0 L76 491 L181 491 Z " />
<glyph glyph-name="ibreve" unicode="&#x12d;" horiz-adv-x="257" d="M181 491 L181 0 L76 0 L76 491 L181 491 Z M291 742 Q291 696 270.5 659 Q250 622 213 601 Q176 580 129 580 Q82 580 45 601 Q8 622 -12.5 659 Q-33 696 -33 742 L52 742 Q52 704 73.5 682 Q95 660 129 660 Q163 660 185 682 Q207 704 207 742 L291 742 Z " />
<glyph glyph-name="icircumflex" unicode="&#xee;" horiz-adv-x="257" d="M181 491 L181 0 L76 0 L76 491 L181 491 Z M298 568 L219 568 L129 677 L39 568 L-40 568 L95 780 L163 780 L298 568 Z " />
<glyph glyph-name="idieresis" unicode="&#xef;" horiz-adv-x="257" d="M29 740 Q57 740 76.5 721 Q96 702 96 674 Q96 648 76.5 628.5 Q57 609 29 609 Q2 609 -18.5 628.5 Q-39 648 -39 674 Q-39 702 -19 721 Q1 740 29 740 Z M229 740 Q258 740 277.5 721 Q297 702 297 674 Q297 648 277 628.5 Q257 609 229 609 Q203 609 182.5 628.5 Q162 648 162 674 Q162 702 182 721 Q202 740 229 740 Z M181 491 L181 0 L76 0 L76 491 L181 491 Z " />
<glyph glyph-name="igrave" unicode="&#xec;" horiz-adv-x="257" d="M120 780 L169 568 L91 568 L-7 761 L-7 780 L120 780 Z M181 491 L181 0 L76 0 L76 491 L181 491 Z " />
<glyph glyph-name="ij" unicode="&#x133;" horiz-adv-x="514" d="M181 491 L181 0 L76 0 L76 491 L181 491 Z M129 744 Q158 744 179.5 723.5 Q201 703 201 674 Q201 645 180 625 Q159 605 129 605 Q99 605 78 625 Q57 645 57 674 Q57 703 78 723.5 Q99 744 129 744 Z M438 -20 Q438 -106 391.5 -148.5 Q345 -191 264 -191 Q223 -191 196 -182 L196 -93 Q220 -96 239 -96 Q286 -96 309.5 -76.5 Q333 -57 333 -11 L333 491 L438 491 L438 -20 Z M386 744 Q415 744 436.5 723.5 Q458 703 458 674 Q458 645 437 625 Q416 605 386 605 Q356 605 335 625 Q314 645 314 674 Q314 703 335 723.5 Q356 744 386 744 Z " />
<glyph glyph-name="imacron" unicode="&#x12b;" horiz-adv-x="257" d="M248 717 L248 632 L10 632 L10 717 L248 717 Z M181 491 L181 0 L76 0 L76 491 L181 491 Z " />
<glyph glyph-name="iogonek" unicode="&#x12f;" horiz-adv-x="257" d="M129 744 Q158 744 179.5 723.5 Q201 703 201 674 Q201 645 180 625 Q159 605 129 605 Q99 605 78 625 Q57 645 57 674 Q57 703 78 723.5 Q99 744 129 744 Z M76 491 L181 491 L181 0 L137 -29 Q111 -45 101 -54.5 Q91 -64 91 -79 Q91 -95 102 -103.5 Q113 -112 133 -112 Q147 -112 181 -106 L181 -179 Q141 -191 103 -191 Q51 -191 20 -165.5 Q-11 -140 -11 -98 Q-11 -66 9.5 -40.5 Q30 -15 76 12 L76 491 Z " />
<glyph glyph-name="itilde" unicode="&#x129;" horiz-adv-x="257" d="M62 748 Q97 748 129 721 L148 703 Q160 692 167 688 Q174 684 182 684 Q208 684 208 722 L208 736 L290 736 Q292 722 292 707 Q292 655 265.5 621 Q239 587 197 587 Q178 587 162.5 594 Q147 601 130 616 L111 632 Q99 643 92 647.5 Q85 652 77 652 Q63 652 56.5 641.5 Q50 631 50 614 L50 600 L-33 600 Q-35 614 -35 628 Q-35 681 -8.5 714.5 Q18 748 62 748 Z M181 491 L181 0 L76 0 L76 491 L181 491 Z " />
<glyph glyph-name="j" unicode="j" horiz-adv-x="257" d="M181 -20 Q181 -106 134.5 -148.5 Q88 -191 7 -191 Q-34 -191 -61 -182 L-61 -93 Q-37 -96 -18 -96 Q29 -96 52.5 -76.5 Q76 -57 76 -11 L76 491 L181 491 L181 -20 Z M129 744 Q158 744 179.5 723.5 Q201 703 201 674 Q201 645 180 625 Q159 605 129 605 Q99 605 78 625 Q57 645 57 674 Q57 703 78 723.5 Q99 744 129 744 Z " />
<glyph glyph-name="uni0237" unicode="&#x237;" horiz-adv-x="257" d="M181 -20 Q181 -106 134.5 -148.5 Q88 -191 7 -191 Q-34 -191 -61 -182 L-61 -93 Q-37 -96 -18 -96 Q29 -96 52.5 -76.5 Q76 -57 76 -11 L76 491 L181 491 L181 -20 Z " />
<glyph glyph-name="jcircumflex" unicode="&#x135;" horiz-adv-x="257" d="M181 -20 Q181 -106 134.5 -148.5 Q88 -191 7 -191 Q-34 -191 -61 -182 L-61 -93 Q-37 -96 -18 -96 Q29 -96 52.5 -76.5 Q76 -57 76 -11 L76 491 L181 491 L181 -20 Z M298 568 L219 568 L129 677 L39 568 L-40 568 L95 780 L163 780 L298 568 Z " />
<glyph glyph-name="k" unicode="k" horiz-adv-x="533" d="M76 0 L76 750 L181 750 L181 0 L76 0 Z M308 275 L523 0 L397 0 L184 276 L376 491 L506 491 L308 275 Z " />
<glyph glyph-name="kcommaaccent" unicode="&#x137;" horiz-adv-x="533" d="M76 0 L76 750 L181 750 L181 0 L76 0 Z M308 275 L523 0 L397 0 L184 276 L376 491 L506 491 L308 275 Z M319 -48 L293 -220 L212 -220 L218 -48 L319 -48 Z " />
<glyph glyph-name="l" unicode="l" horiz-adv-x="257" d="M181 750 L181 0 L76 0 L76 750 L181 750 Z " />
<glyph glyph-name="lacute" unicode="&#x13a;" horiz-adv-x="257" d="M294 1000 L294 981 L166 814 L88 814 L167 1000 L294 1000 Z M181 750 L181 0 L76 0 L76 750 L181 750 Z " />
<glyph glyph-name="lcaron" unicode="&#x13e;" horiz-adv-x="396" d="M181 750 L181 0 L76 0 L76 750 L181 750 Z M392 750 L348 542 L272 542 L281 750 L392 750 Z " />
<glyph glyph-name="lcommaaccent" unicode="&#x13c;" horiz-adv-x="257" d="M181 750 L181 0 L76 0 L76 750 L181 750 Z M179 -48 L153 -220 L72 -220 L78 -48 L179 -48 Z " />
<glyph glyph-name="ldot" unicode="&#x140;" horiz-adv-x="312" d="M181 750 L181 0 L76 0 L76 750 L181 750 Z M308 395 Q341 395 363 373 Q385 351 385 317 Q385 284 363 262 Q341 240 308 240 Q275 240 252 262 Q229 284 229 317 Q229 350 252 372.5 Q275 395 308 395 Z " />
<glyph glyph-name="lslash" unicode="&#x142;" horiz-adv-x="350" d="M306 458 L306 359 L222 321 L222 0 L117 0 L117 283 L39 246 L39 345 L117 381 L117 750 L222 750 L222 419 L306 458 Z " />
<glyph glyph-name="m" unicode="m" horiz-adv-x="883" d="M631 502 Q716 502 764.5 448.5 Q813 395 813 307 L813 0 L707 0 L707 292 Q707 344 679.5 375 Q652 406 605 406 Q557 406 527 375 Q497 344 497 297 L497 0 L392 0 L392 292 Q392 343 364 374.5 Q336 406 289 406 Q241 406 211 374.5 Q181 343 181 292 L181 0 L76 0 L76 491 L174 491 L174 445 Q200 472 236 487 Q272 502 316 502 Q367 502 405 481.5 Q443 461 465 425 Q492 460 535.5 481 Q579 502 631 502 Z " />
<glyph glyph-name="n" unicode="n" horiz-adv-x="575" d="M321 502 Q407 502 456 448.5 Q505 395 505 307 L505 0 L400 0 L400 293 Q400 344 370.5 375.5 Q341 407 293 407 Q244 407 212.5 375 Q181 343 181 293 L181 0 L76 0 L76 491 L174 491 L174 443 Q230 502 321 502 Z " />
<glyph glyph-name="nacute" unicode="&#x144;" horiz-adv-x="575" d="M321 502 Q407 502 456 448.5 Q505 395 505 307 L505 0 L400 0 L400 293 Q400 344 370.5 375.5 Q341 407 293 407 Q244 407 212.5 375 Q181 343 181 293 L181 0 L76 0 L76 491 L174 491 L174 443 Q230 502 321 502 Z M451 780 L451 761 L323 568 L245 568 L324 780 L451 780 Z " />
<glyph glyph-name="ncaron" unicode="&#x148;" horiz-adv-x="575" d="M321 502 Q407 502 456 448.5 Q505 395 505 307 L505 0 L400 0 L400 293 Q400 344 370.5 375.5 Q341 407 293 407 Q244 407 212.5 375 Q181 343 181 293 L181 0 L76 0 L76 491 L174 491 L174 443 Q230 502 321 502 Z M373 780 L452 780 L317 568 L249 568 L114 780 L193 780 L283 671 L373 780 Z " />
<glyph glyph-name="ncommaaccent" unicode="&#x146;" horiz-adv-x="575" d="M321 502 Q407 502 456 448.5 Q505 395 505 307 L505 0 L400 0 L400 293 Q400 344 370.5 375.5 Q341 407 293 407 Q244 407 212.5 375 Q181 343 181 293 L181 0 L76 0 L76 491 L174 491 L174 443 Q230 502 321 502 Z M341 -48 L315 -220 L234 -220 L240 -48 L341 -48 Z " />
<glyph glyph-name="eng" unicode="&#x14b;" horiz-adv-x="575" d="M321 502 Q407 502 456 448.5 Q505 395 505 307 L505 -20 Q505 -106 458 -148.5 Q411 -191 330 -191 Q291 -191 262 -182 L262 -93 Q286 -96 304 -96 Q352 -96 376 -77 Q400 -58 400 -11 L400 292 Q400 343 371 374.5 Q342 406 293 406 Q244 406 212.5 374 Q181 342 181 292 L181 0 L76 0 L76 491 L174 491 L174 443 Q230 502 321 502 Z " />
<glyph glyph-name="ntilde" unicode="&#xf1;" horiz-adv-x="575" d="M321 502 Q407 502 456 448.5 Q505 395 505 307 L505 0 L400 0 L400 293 Q400 344 370.5 375.5 Q341 407 293 407 Q244 407 212.5 375 Q181 343 181 293 L181 0 L76 0 L76 491 L174 491 L174 443 Q230 502 321 502 Z M207 748 Q245 748 277 724 L304 704 Q317 693 326 688.5 Q335 684 345 684 Q359 684 366 694.5 Q373 705 373 722 L373 736 L456 736 Q457 726 457 707 Q457 654 429.5 620.5 Q402 587 358 587 Q323 587 288 611 L262 631 Q260 633 251 639.5 Q242 646 234.5 649 Q227 652 220 652 Q192 652 192 614 L192 600 L110 600 Q108 610 108 629 Q108 682 135.5 715 Q163 748 207 748 Z " />
<glyph glyph-name="o" unicode="o" horiz-adv-x="609" d="M304 502 Q375 502 435 468 Q495 434 530 375.5 Q565 317 565 246 Q565 175 530 116 Q495 57 435 23 Q375 -11 304 -11 Q233 -11 173.5 23 Q114 57 79.5 116 Q45 175 45 246 Q45 317 79.5 375.5 Q114 434 173.5 468 Q233 502 304 502 Z M305 406 Q261 406 226 384.5 Q191 363 171.5 326.5 Q152 290 152 245 Q152 200 171.5 163.5 Q191 127 226 106.5 Q261 86 304 86 Q347 86 382 107 Q417 128 437 164.5 Q457 201 457 245 Q457 290 437 326.5 Q417 363 382.5 384.5 Q348 406 305 406 Z " />
<glyph glyph-name="oacute" unicode="&#xf3;" horiz-adv-x="609" d="M304 502 Q375 502 435 468 Q495 434 530 375.5 Q565 317 565 246 Q565 175 530 116 Q495 57 435 23 Q375 -11 304 -11 Q233 -11 173.5 23 Q114 57 79.5 116 Q45 175 45 246 Q45 317 79.5 375.5 Q114 434 173.5 468 Q233 502 304 502 Z M305 406 Q261 406 226 384.5 Q191 363 171.5 326.5 Q152 290 152 245 Q152 200 171.5 163.5 Q191 127 226 106.5 Q261 86 304 86 Q347 86 382 107 Q417 128 437 164.5 Q457 201 457 245 Q457 290 437 326.5 Q417 363 382.5 384.5 Q348 406 305 406 Z M473 780 L473 761 L345 568 L267 568 L346 780 L473 780 Z " />
<glyph glyph-name="obreve" unicode="&#x14f;" horiz-adv-x="609" d="M304 502 Q375 502 435 468 Q495 434 530 375.5 Q565 317 565 246 Q565 175 530 116 Q495 57 435 23 Q375 -11 304 -11 Q233 -11 173.5 23 Q114 57 79.5 116 Q45 175 45 246 Q45 317 79.5 375.5 Q114 434 173.5 468 Q233 502 304 502 Z M305 406 Q261 406 226 384.5 Q191 363 171.5 326.5 Q152 290 152 245 Q152 200 171.5 163.5 Q191 127 226 106.5 Q261 86 304 86 Q347 86 382 107 Q417 128 437 164.5 Q457 201 457 245 Q457 290 437 326.5 Q417 363 382.5 384.5 Q348 406 305 406 Z M467 742 Q467 696 446.5 659 Q426 622 389 601 Q352 580 305 580 Q258 580 221 601 Q184 622 163.5 659 Q143 696 143 742 L228 742 Q228 704 249.5 682 Q271 660 305 660 Q339 660 361 682 Q383 704 383 742 L467 742 Z " />
<glyph glyph-name="ocircumflex" unicode="&#xf4;" horiz-adv-x="609" d="M304 502 Q375 502 435 468 Q495 434 530 375.5 Q565 317 565 246 Q565 175 530 116 Q495 57 435 23 Q375 -11 304 -11 Q233 -11 173.5 23 Q114 57 79.5 116 Q45 175 45 246 Q45 317 79.5 375.5 Q114 434 173.5 468 Q233 502 304 502 Z M305 406 Q261 406 226 384.5 Q191 363 171.5 326.5 Q152 290 152 245 Q152 200 171.5 163.5 Q191 127 226 106.5 Q261 86 304 86 Q347 86 382 107 Q417 128 437 164.5 Q457 201 457 245 Q457 290 437 326.5 Q417 363 382.5 384.5 Q348 406 305 406 Z M474 568 L395 568 L305 677 L215 568 L136 568 L271 780 L339 780 L474 568 Z " />
<glyph glyph-name="odieresis" unicode="&#xf6;" horiz-adv-x="609" d="M304 502 Q375 502 435 468 Q495 434 530 375.5 Q565 317 565 246 Q565 175 530 116 Q495 57 435 23 Q375 -11 304 -11 Q233 -11 173.5 23 Q114 57 79.5 116 Q45 175 45 246 Q45 317 79.5 375.5 Q114 434 173.5 468 Q233 502 304 502 Z M305 406 Q261 406 226 384.5 Q191 363 171.5 326.5 Q152 290 152 245 Q152 200 171.5 163.5 Q191 127 226 106.5 Q261 86 304 86 Q347 86 382 107 Q417 128 437 164.5 Q457 201 457 245 Q457 290 437 326.5 Q417 363 382.5 384.5 Q348 406 305 406 Z M192 740 Q220 740 239.5 721 Q259 702 259 674 Q259 648 239.5 628.5 Q220 609 192 609 Q165 609 144.5 628.5 Q124 648 124 674 Q124 702 144.5 721 Q165 740 192 740 Z M416 740 Q445 740 464.5 721 Q484 702 484 674 Q484 648 464 628.5 Q444 609 416 609 Q390 609 369.5 628.5 Q349 648 349 674 Q349 702 369.5 721 Q390 740 416 740 Z " />
<glyph glyph-name="ograve" unicode="&#xf2;" horiz-adv-x="609" d="M304 502 Q375 502 435 468 Q495 434 530 375.5 Q565 317 565 246 Q565 175 530 116 Q495 57 435 23 Q375 -11 304 -11 Q233 -11 173.5 23 Q114 57 79.5 116 Q45 175 45 246 Q45 317 79.5 375.5 Q114 434 173.5 468 Q233 502 304 502 Z M305 406 Q261 406 226 384.5 Q191 363 171.5 326.5 Q152 290 152 245 Q152 200 171.5 163.5 Q191 127 226 106.5 Q261 86 304 86 Q347 86 382 107 Q417 128 437 164.5 Q457 201 457 245 Q457 290 437 326.5 Q417 363 382.5 384.5 Q348 406 305 406 Z M265 780 L344 568 L266 568 L138 761 L138 780 L265 780 Z " />
<glyph glyph-name="ohungarumlaut" unicode="&#x151;" horiz-adv-x="609" d="M304 502 Q375 502 435 468 Q495 434 530 375.5 Q565 317 565 246 Q565 175 530 116 Q495 57 435 23 Q375 -11 304 -11 Q233 -11 173.5 23 Q114 57 79.5 116 Q45 175 45 246 Q45 317 79.5 375.5 Q114 434 173.5 468 Q233 502 304 502 Z M305 406 Q261 406 226 384.5 Q191 363 171.5 326.5 Q152 290 152 245 Q152 200 171.5 163.5 Q191 127 226 106.5 Q261 86 304 86 Q347 86 382 107 Q417 128 437 164.5 Q457 201 457 245 Q457 290 437 326.5 Q417 363 382.5 384.5 Q348 406 305 406 Z M365 780 L365 761 L247 568 L175 568 L254 780 L365 780 Z M544 780 L544 761 L427 568 L354 568 L433 780 L544 780 Z " />
<glyph glyph-name="omacron" unicode="&#x14d;" horiz-adv-x="609" d="M304 502 Q375 502 435 468 Q495 434 530 375.5 Q565 317 565 246 Q565 175 530 116 Q495 57 435 23 Q375 -11 304 -11 Q233 -11 173.5 23 Q114 57 79.5 116 Q45 175 45 246 Q45 317 79.5 375.5 Q114 434 173.5 468 Q233 502 304 502 Z M305 406 Q261 406 226 384.5 Q191 363 171.5 326.5 Q152 290 152 245 Q152 200 171.5 163.5 Q191 127 226 106.5 Q261 86 304 86 Q347 86 382 107 Q417 128 437 164.5 Q457 201 457 245 Q457 290 437 326.5 Q417 363 382.5 384.5 Q348 406 305 406 Z M449 716 L449 632 L161 632 L161 716 L449 716 Z " />
<glyph glyph-name="oslash" unicode="&#xf8;" horiz-adv-x="617" d="M521 394 Q568 328 568 245 Q568 175 533 116 Q498 57 438 23 Q378 -11 307 -11 Q226 -11 160 33 L104 -24 L40 40 L96 96 Q48 163 48 245 Q48 316 82.5 375 Q117 434 176.5 468 Q236 502 308 502 Q389 502 456 457 L513 513 L577 450 L521 394 Z M308 411 Q238 411 193 364 Q148 317 148 245 Q148 196 169 160 L395 387 Q355 411 308 411 Z M307 78 Q353 78 389.5 99.5 Q426 121 447 159.5 Q468 198 468 245 Q468 292 448 330 L220 103 Q259 78 307 78 Z " />
<glyph glyph-name="oslashacute" unicode="&#x1ff;" horiz-adv-x="617" d="M521 394 Q568 328 568 245 Q568 175 533 116 Q498 57 438 23 Q378 -11 307 -11 Q226 -11 160 33 L104 -24 L40 40 L96 96 Q48 163 48 245 Q48 316 82.5 375 Q117 434 176.5 468 Q236 502 308 502 Q389 502 456 457 L513 513 L577 450 L521 394 Z M308 411 Q238 411 193 364 Q148 317 148 245 Q148 196 169 160 L395 387 Q355 411 308 411 Z M307 78 Q353 78 389.5 99.5 Q426 121 447 159.5 Q468 198 468 245 Q468 292 448 330 L220 103 Q259 78 307 78 Z M477 780 L477 761 L349 568 L271 568 L350 780 L477 780 Z " />
<glyph glyph-name="otilde" unicode="&#xf5;" horiz-adv-x="609" d="M304 502 Q375 502 435 468 Q495 434 530 375.5 Q565 317 565 246 Q565 175 530 116 Q495 57 435 23 Q375 -11 304 -11 Q233 -11 173.5 23 Q114 57 79.5 116 Q45 175 45 246 Q45 317 79.5 375.5 Q114 434 173.5 468 Q233 502 304 502 Z M305 406 Q261 406 226 384.5 Q191 363 171.5 326.5 Q152 290 152 245 Q152 200 171.5 163.5 Q191 127 226 106.5 Q261 86 304 86 Q347 86 382 107 Q417 128 437 164.5 Q457 201 457 245 Q457 290 437 326.5 Q417 363 382.5 384.5 Q348 406 305 406 Z M229 748 Q267 748 299 724 L326 704 Q339 693 348 688.5 Q357 684 367 684 Q381 684 388 694.5 Q395 705 395 722 L395 736 L478 736 Q479 726 479 707 Q479 654 451.5 620.5 Q424 587 380 587 Q345 587 310 611 L284 631 Q282 633 273 639.5 Q264 646 256.5 649 Q249 652 242 652 Q214 652 214 614 L214 600 L132 600 Q130 610 130 629 Q130 682 157.5 715 Q185 748 229 748 Z " />
<glyph glyph-name="oe" unicode="&#x153;" horiz-adv-x="962" d="M918 276 Q918 245 910 210 L550 210 Q560 150 601.5 115.5 Q643 81 705 81 Q781 81 845 139 L897 68 Q857 29 807 8.5 Q757 -12 702 -12 Q637 -12 584 16 Q531 44 497 94 Q465 45 415 17 Q365 -11 301 -11 Q231 -11 172 23 Q113 57 79 115.5 Q45 174 45 245 Q45 316 79.5 375 Q114 434 173 468 Q232 502 302 502 Q365 502 416 474 Q467 446 498 396 Q531 445 582 473 Q633 501 694 501 Q757 501 808 471.5 Q859 442 888.5 390.5 Q918 339 918 276 Z M688 412 Q637 412 600 379.5 Q563 347 552 292 L813 292 Q812 348 776 380 Q740 412 688 412 Z M302 86 Q367 86 407.5 131 Q448 176 448 245 Q448 314 407.5 359.5 Q367 405 303 405 Q260 405 225.5 384 Q191 363 171.5 326.5 Q152 290 152 245 Q152 200 171.5 163.5 Q191 127 225 106.5 Q259 86 302 86 Z " />
<glyph glyph-name="p" unicode="p" horiz-adv-x="631" d="M345 502 Q414 502 469 468.5 Q524 435 555 376.5 Q586 318 586 246 Q586 173 555 114.5 Q524 56 469 22.5 Q414 -11 345 -11 Q295 -11 252.5 7.5 Q210 26 181 60 L181 -180 L76 -180 L76 491 L174 491 L174 422 Q201 460 246 481 Q291 502 345 502 Z M328 85 Q370 85 404 105.5 Q438 126 458 162 Q478 198 478 245 Q478 292 458.5 328.5 Q439 365 404.5 385.5 Q370 406 328 406 Q289 406 255.5 388.5 Q222 371 201 335 Q180 299 180 246 Q180 193 201 156.5 Q222 120 255.5 102.5 Q289 85 328 85 Z " />
<glyph glyph-name="thorn" unicode="&#xfe;" horiz-adv-x="631" d="M345 502 Q414 502 469 468.5 Q524 435 555 376.5 Q586 318 586 246 Q586 173 555 114.5 Q524 56 469 22.5 Q414 -11 345 -11 Q295 -11 252.5 7.5 Q210 26 181 60 L181 -180 L76 -180 L76 750 L181 750 L181 431 Q209 465 251.5 483.5 Q294 502 345 502 Z M328 85 Q370 85 404 105.5 Q438 126 458 162 Q478 198 478 245 Q478 292 458.5 328.5 Q439 365 404.5 385.5 Q370 406 328 406 Q289 406 255.5 388.5 Q222 371 201 335 Q180 299 180 246 Q180 193 201 156.5 Q222 120 255.5 102.5 Q289 85 328 85 Z " />
<glyph glyph-name="q" unicode="q" horiz-adv-x="631" d="M555 491 L555 -180 L449 -180 L449 59 Q421 25 378.5 7 Q336 -11 285 -11 Q217 -11 162 22.5 Q107 56 76 114.5 Q45 173 45 246 Q45 318 76 376.5 Q107 435 161.5 468.5 Q216 502 285 502 Q340 502 385 480.5 Q430 459 457 421 L457 491 L555 491 Z M303 85 Q341 85 375 103 Q409 121 430 157 Q451 193 451 246 Q451 299 430 335 Q409 371 375.5 388.5 Q342 406 303 406 Q260 406 225.5 385.5 Q191 365 171.5 328 Q152 291 152 245 Q152 198 172 162 Q192 126 226.5 105.5 Q261 85 303 85 Z " />
<glyph glyph-name="r" unicode="r" horiz-adv-x="375" d="M317 496 Q339 496 357 491 L357 398 L325 398 Q263 398 222 362.5 Q181 327 181 262 L181 0 L76 0 L76 491 L174 491 L174 427 Q200 460 237.5 478 Q275 496 317 496 Z " />
<glyph glyph-name="racute" unicode="&#x155;" horiz-adv-x="375" d="M317 496 Q339 496 357 491 L357 398 L325 398 Q263 398 222 362.5 Q181 327 181 262 L181 0 L76 0 L76 491 L174 491 L174 427 Q200 460 237.5 478 Q275 496 317 496 Z M350 780 L350 761 L222 568 L144 568 L223 780 L350 780 Z " />
<glyph glyph-name="rcaron" unicode="&#x159;" horiz-adv-x="375" d="M317 496 Q339 496 357 491 L357 398 L325 398 Q263 398 222 362.5 Q181 327 181 262 L181 0 L76 0 L76 491 L174 491 L174 427 Q200 460 237.5 478 Q275 496 317 496 Z M272 780 L351 780 L216 568 L148 568 L13 780 L92 780 L182 671 L272 780 Z " />
<glyph glyph-name="rcommaaccent" unicode="&#x157;" horiz-adv-x="375" d="M317 496 Q339 496 357 491 L357 398 L325 398 Q263 398 222 362.5 Q181 327 181 262 L181 0 L76 0 L76 491 L174 491 L174 427 Q200 460 237.5 478 Q275 496 317 496 Z M178 -48 L152 -220 L71 -220 L77 -48 L178 -48 Z " />
<glyph glyph-name="s" unicode="s" horiz-adv-x="455" d="M233 502 Q339 502 403 426 L346 361 Q323 385 293 398 Q263 411 231 411 Q200 411 182 399 Q164 387 164 364 Q164 345 178.5 332.5 Q193 320 229 306 L276 287 Q346 258 378 224.5 Q410 191 410 139 Q410 68 358 28.5 Q306 -11 228 -11 Q165 -11 114 15 Q63 41 30 84 L90 150 Q122 116 155.5 98 Q189 80 228 80 Q262 80 284.5 94 Q307 108 307 135 Q307 157 290.5 169 Q274 181 238 196 L188 217 Q123 244 91.5 276 Q60 308 60 360 Q60 426 109 464 Q158 502 233 502 Z " />
<glyph glyph-name="sacute" unicode="&#x15b;" horiz-adv-x="455" d="M233 502 Q339 502 403 426 L346 361 Q323 385 293 398 Q263 411 231 411 Q200 411 182 399 Q164 387 164 364 Q164 345 178.5 332.5 Q193 320 229 306 L276 287 Q346 258 378 224.5 Q410 191 410 139 Q410 68 358 28.5 Q306 -11 228 -11 Q165 -11 114 15 Q63 41 30 84 L90 150 Q122 116 155.5 98 Q189 80 228 80 Q262 80 284.5 94 Q307 108 307 135 Q307 157 290.5 169 Q274 181 238 196 L188 217 Q123 244 91.5 276 Q60 308 60 360 Q60 426 109 464 Q158 502 233 502 Z M399 780 L399 761 L271 568 L193 568 L272 780 L399 780 Z " />
<glyph glyph-name="scaron" unicode="&#x161;" horiz-adv-x="455" d="M233 502 Q339 502 403 426 L346 361 Q323 385 293 398 Q263 411 231 411 Q200 411 182 399 Q164 387 164 364 Q164 345 178.5 332.5 Q193 320 229 306 L276 287 Q346 258 378 224.5 Q410 191 410 139 Q410 68 358 28.5 Q306 -11 228 -11 Q165 -11 114 15 Q63 41 30 84 L90 150 Q122 116 155.5 98 Q189 80 228 80 Q262 80 284.5 94 Q307 108 307 135 Q307 157 290.5 169 Q274 181 238 196 L188 217 Q123 244 91.5 276 Q60 308 60 360 Q60 426 109 464 Q158 502 233 502 Z M321 780 L400 780 L265 568 L197 568 L62 780 L141 780 L231 671 L321 780 Z " />
<glyph glyph-name="scedilla" unicode="&#x15f;" horiz-adv-x="455" d="M410 139 Q410 85 379 49 Q348 13 297 -2 Q319 -32 319 -71 Q319 -122 280.5 -156.5 Q242 -191 176 -191 Q143 -191 105 -182 L105 -110 Q143 -113 163 -113 Q195 -113 214 -97.5 Q233 -82 233 -52 Q233 -33 224 -11 Q163 -10 112.5 15.5 Q62 41 30 84 L90 150 Q122 116 155.5 98 Q189 80 228 80 Q262 80 284.5 94 Q307 108 307 135 Q307 157 290.5 169 Q274 181 238 196 L188 217 Q123 244 91.5 276 Q60 308 60 360 Q60 426 109 464 Q158 502 233 502 Q339 502 403 426 L346 361 Q323 385 293 398 Q263 411 231 411 Q200 411 182 399 Q164 387 164 364 Q164 345 178.5 332.5 Q193 320 229 306 L276 287 Q346 258 378 224.5 Q410 191 410 139 Z " />
<glyph glyph-name="scircumflex" unicode="&#x15d;" horiz-adv-x="455" d="M233 502 Q339 502 403 426 L346 361 Q323 385 293 398 Q263 411 231 411 Q200 411 182 399 Q164 387 164 364 Q164 345 178.5 332.5 Q193 320 229 306 L276 287 Q346 258 378 224.5 Q410 191 410 139 Q410 68 358 28.5 Q306 -11 228 -11 Q165 -11 114 15 Q63 41 30 84 L90 150 Q122 116 155.5 98 Q189 80 228 80 Q262 80 284.5 94 Q307 108 307 135 Q307 157 290.5 169 Q274 181 238 196 L188 217 Q123 244 91.5 276 Q60 308 60 360 Q60 426 109 464 Q158 502 233 502 Z M400 568 L321 568 L231 677 L141 568 L62 568 L197 780 L265 780 L400 568 Z " />
<glyph glyph-name="scommaaccent" unicode="&#x219;" horiz-adv-x="455" d="M233 502 Q339 502 403 426 L346 361 Q323 385 293 398 Q263 411 231 411 Q200 411 182 399 Q164 387 164 364 Q164 345 178.5 332.5 Q193 320 229 306 L276 287 Q346 258 378 224.5 Q410 191 410 139 Q410 68 358 28.5 Q306 -11 228 -11 Q165 -11 114 15 Q63 41 30 84 L90 150 Q122 116 155.5 98 Q189 80 228 80 Q262 80 284.5 94 Q307 108 307 135 Q307 157 290.5 169 Q274 181 238 196 L188 217 Q123 244 91.5 276 Q60 308 60 360 Q60 426 109 464 Q158 502 233 502 Z M291 -48 L265 -220 L184 -220 L190 -48 L291 -48 Z " />
<glyph glyph-name="germandbls" unicode="&#xdf;" horiz-adv-x="630" d="M301 761 Q387 761 438 719.5 Q489 678 489 607 Q489 567 474 527 L435 420 Q419 379 419 359 Q419 342 428.5 329.5 Q438 317 457.5 304 Q477 291 500 278 Q553 245 578.5 213.5 Q604 182 604 135 Q604 68 554 28 Q504 -12 425 -12 Q373 -12 329.5 6 Q286 24 254 53 L302 128 Q364 80 428 80 Q460 80 479.5 93 Q499 106 499 132 Q499 149 490 161.5 Q481 174 461 187 Q441 200 417 214 Q364 245 338 272.5 Q312 300 312 337 Q312 369 330 413 L368 515 Q383 557 383 584 Q383 621 360 643 Q337 665 296 665 Q245 665 212.5 630 Q180 595 180 526 L180 0 L76 0 L76 531 Q76 639 137 700 Q198 761 301 761 Z " />
<glyph glyph-name="uni0259" unicode="&#x259;" horiz-adv-x="570" d="M270 502 Q342 502 400.5 468 Q459 434 492.5 376 Q526 318 526 247 Q526 175 492 116 Q458 57 400 23 Q342 -11 271 -11 Q206 -11 154.5 18 Q103 47 74 98.5 Q45 150 45 214 Q45 247 52 280 L418 280 Q409 340 368.5 374.5 Q328 409 267 409 Q191 409 125 351 L75 423 Q115 461 164.5 481.5 Q214 502 270 502 Z M275 78 Q328 78 366 110.5 Q404 143 416 198 L149 198 Q150 142 186 110 Q222 78 275 78 Z " />
<glyph glyph-name="t" unicode="t" horiz-adv-x="398" d="M303 84 Q325 84 368 89 L368 0 Q319 -11 281 -11 Q196 -11 148 31.5 Q100 74 100 160 L100 400 L20 400 L20 491 L100 491 L100 620 L206 620 L206 491 L352 491 L352 400 L206 400 L206 169 Q206 122 230.5 103 Q255 84 303 84 Z " />
<glyph glyph-name="tbar" unicode="&#x167;" horiz-adv-x="412" d="M311 84 Q334 84 377 89 L377 0 Q329 -11 290 -11 Q206 -11 158 31.5 Q110 74 110 160 L110 208 L29 208 L29 295 L110 295 L110 404 L29 404 L29 491 L110 491 L110 620 L215 620 L215 491 L361 491 L361 404 L215 404 L215 295 L361 295 L361 208 L215 208 L215 169 Q215 122 239 103 Q263 84 311 84 Z " />
<glyph glyph-name="tcaron" unicode="&#x165;" horiz-adv-x="398" d="M303 84 Q325 84 368 89 L368 0 Q319 -11 281 -11 Q196 -11 148 31.5 Q100 74 100 160 L100 400 L20 400 L20 491 L100 491 L100 620 L206 620 L206 491 L352 491 L352 400 L206 400 L206 169 Q206 122 230.5 103 Q255 84 303 84 Z M416 750 L372 542 L296 542 L305 750 L416 750 Z " />
<glyph glyph-name="uni0163" unicode="&#x163;" horiz-adv-x="398" d="M368 0 Q328 -10 288 -11 Q304 -38 304 -71 Q304 -122 265.5 -156.5 Q227 -191 161 -191 Q128 -191 90 -182 L90 -110 Q128 -113 148 -113 Q180 -113 199 -97.5 Q218 -82 218 -52 Q218 -26 204 0 Q100 34 100 160 L100 400 L20 400 L20 491 L100 491 L100 620 L206 620 L206 491 L352 491 L352 400 L206 400 L206 169 Q206 122 230.5 103 Q255 84 303 84 Q325 84 368 89 L368 0 Z " />
<glyph glyph-name="u" unicode="u" horiz-adv-x="570" d="M499 206 Q499 141 471 91.5 Q443 42 394.5 15.5 Q346 -11 286 -11 Q225 -11 176 15.5 Q127 42 99 91.5 Q71 141 71 206 L71 491 L175 491 L175 198 Q175 147 206.5 116.5 Q238 86 286 86 Q332 86 363 116.5 Q394 147 394 198 L394 491 L499 491 L499 206 Z " />
<glyph glyph-name="uacute" unicode="&#xfa;" horiz-adv-x="570" d="M499 206 Q499 141 471 91.5 Q443 42 394.5 15.5 Q346 -11 286 -11 Q225 -11 176 15.5 Q127 42 99 91.5 Q71 141 71 206 L71 491 L175 491 L175 198 Q175 147 206.5 116.5 Q238 86 286 86 Q332 86 363 116.5 Q394 147 394 198 L394 491 L499 491 L499 206 Z M453 780 L453 761 L325 568 L247 568 L326 780 L453 780 Z " />
<glyph glyph-name="ubreve" unicode="&#x16d;" horiz-adv-x="570" d="M499 206 Q499 141 471 91.5 Q443 42 394.5 15.5 Q346 -11 286 -11 Q225 -11 176 15.5 Q127 42 99 91.5 Q71 141 71 206 L71 491 L175 491 L175 198 Q175 147 206.5 116.5 Q238 86 286 86 Q332 86 363 116.5 Q394 147 394 198 L394 491 L499 491 L499 206 Z M447 742 Q447 696 426.5 659 Q406 622 369 601 Q332 580 285 580 Q238 580 201 601 Q164 622 143.5 659 Q123 696 123 742 L208 742 Q208 704 229.5 682 Q251 660 285 660 Q319 660 341 682 Q363 704 363 742 L447 742 Z " />
<glyph glyph-name="uni01D4" unicode="&#x1d4;" horiz-adv-x="570" d="M499 206 Q499 141 471 91.5 Q443 42 394.5 15.5 Q346 -11 286 -11 Q225 -11 176 15.5 Q127 42 99 91.5 Q71 141 71 206 L71 491 L175 491 L175 198 Q175 147 206.5 116.5 Q238 86 286 86 Q332 86 363 116.5 Q394 147 394 198 L394 491 L499 491 L499 206 Z M375 780 L454 780 L319 568 L251 568 L116 780 L195 780 L285 671 L375 780 Z " />
<glyph glyph-name="ucircumflex" unicode="&#xfb;" horiz-adv-x="570" d="M499 206 Q499 141 471 91.5 Q443 42 394.5 15.5 Q346 -11 286 -11 Q225 -11 176 15.5 Q127 42 99 91.5 Q71 141 71 206 L71 491 L175 491 L175 198 Q175 147 206.5 116.5 Q238 86 286 86 Q332 86 363 116.5 Q394 147 394 198 L394 491 L499 491 L499 206 Z M454 568 L375 568 L285 677 L195 568 L116 568 L251 780 L319 780 L454 568 Z " />
<glyph glyph-name="udieresis" unicode="&#xfc;" horiz-adv-x="570" d="M499 206 Q499 141 471 91.5 Q443 42 394.5 15.5 Q346 -11 286 -11 Q225 -11 176 15.5 Q127 42 99 91.5 Q71 141 71 206 L71 491 L175 491 L175 198 Q175 147 206.5 116.5 Q238 86 286 86 Q332 86 363 116.5 Q394 147 394 198 L394 491 L499 491 L499 206 Z M172 740 Q200 740 219.5 721 Q239 702 239 674 Q239 648 219.5 628.5 Q200 609 172 609 Q145 609 124.5 628.5 Q104 648 104 674 Q104 702 124.5 721 Q145 740 172 740 Z M396 740 Q425 740 444.5 721 Q464 702 464 674 Q464 648 444 628.5 Q424 609 396 609 Q370 609 349.5 628.5 Q329 648 329 674 Q329 702 349.5 721 Q370 740 396 740 Z " />
<glyph glyph-name="ugrave" unicode="&#xf9;" horiz-adv-x="570" d="M499 206 Q499 141 471 91.5 Q443 42 394.5 15.5 Q346 -11 286 -11 Q225 -11 176 15.5 Q127 42 99 91.5 Q71 141 71 206 L71 491 L175 491 L175 198 Q175 147 206.5 116.5 Q238 86 286 86 Q332 86 363 116.5 Q394 147 394 198 L394 491 L499 491 L499 206 Z M245 780 L324 568 L246 568 L118 761 L118 780 L245 780 Z " />
<glyph glyph-name="uhungarumlaut" unicode="&#x171;" horiz-adv-x="570" d="M499 206 Q499 141 471 91.5 Q443 42 394.5 15.5 Q346 -11 286 -11 Q225 -11 176 15.5 Q127 42 99 91.5 Q71 141 71 206 L71 491 L175 491 L175 198 Q175 147 206.5 116.5 Q238 86 286 86 Q332 86 363 116.5 Q394 147 394 198 L394 491 L499 491 L499 206 Z M345 780 L345 761 L227 568 L155 568 L234 780 L345 780 Z M524 780 L524 761 L407 568 L334 568 L413 780 L524 780 Z " />
<glyph glyph-name="umacron" unicode="&#x16b;" horiz-adv-x="570" d="M499 206 Q499 141 471 91.5 Q443 42 394.5 15.5 Q346 -11 286 -11 Q225 -11 176 15.5 Q127 42 99 91.5 Q71 141 71 206 L71 491 L175 491 L175 198 Q175 147 206.5 116.5 Q238 86 286 86 Q332 86 363 116.5 Q394 147 394 198 L394 491 L499 491 L499 206 Z M429 716 L429 632 L141 632 L141 716 L429 716 Z " />
<glyph glyph-name="uni021B" unicode="&#x21b;" horiz-adv-x="398" d="M303 84 Q325 84 368 89 L368 0 Q319 -11 281 -11 Q196 -11 148 31.5 Q100 74 100 160 L100 400 L20 400 L20 491 L100 491 L100 620 L206 620 L206 491 L352 491 L352 400 L206 400 L206 169 Q206 122 230.5 103 Q255 84 303 84 Z M276 -48 L250 -220 L169 -220 L175 -48 L276 -48 Z " />
<glyph glyph-name="uogonek" unicode="&#x173;" horiz-adv-x="570" d="M499 491 L499 206 Q499 154 484.5 118.5 Q470 83 447 58 Q424 33 373 -13 Q351 -33 341.5 -46.5 Q332 -60 332 -76 Q332 -95 344 -104.5 Q356 -114 377 -114 Q400 -114 425 -108 L425 -177 Q385 -191 343 -191 Q292 -191 262.5 -168.5 Q233 -146 233 -103 Q233 -50 283 -11 Q222 -10 174 17 Q126 44 98.5 92.5 Q71 141 71 206 L71 491 L175 491 L175 198 Q175 147 206.5 116.5 Q238 86 286 86 Q332 86 363 116.5 Q394 147 394 198 L394 491 L499 491 Z " />
<glyph glyph-name="uring" unicode="&#x16f;" horiz-adv-x="570" d="M499 206 Q499 141 471 91.5 Q443 42 394.5 15.5 Q346 -11 286 -11 Q225 -11 176 15.5 Q127 42 99 91.5 Q71 141 71 206 L71 491 L175 491 L175 198 Q175 147 206.5 116.5 Q238 86 286 86 Q332 86 363 116.5 Q394 147 394 198 L394 491 L499 491 L499 206 Z M284 785 Q335 785 369 751.5 Q403 718 403 669 Q403 621 369 587.5 Q335 554 284 554 Q233 554 199.5 587.5 Q166 621 166 669 Q166 718 199.5 751.5 Q233 785 284 785 Z M285 716 Q265 716 252 702.5 Q239 689 239 669 Q239 650 252 637 Q265 624 285 624 Q305 624 317.5 637 Q330 650 330 669 Q330 689 317 702.5 Q304 716 285 716 Z " />
<glyph glyph-name="utilde" unicode="&#x169;" horiz-adv-x="570" d="M499 206 Q499 141 471 91.5 Q443 42 394.5 15.5 Q346 -11 286 -11 Q225 -11 176 15.5 Q127 42 99 91.5 Q71 141 71 206 L71 491 L175 491 L175 198 Q175 147 206.5 116.5 Q238 86 286 86 Q332 86 363 116.5 Q394 147 394 198 L394 491 L499 491 L499 206 Z M209 748 Q247 748 279 724 L306 704 Q319 693 328 688.5 Q337 684 347 684 Q361 684 368 694.5 Q375 705 375 722 L375 736 L458 736 Q459 726 459 707 Q459 654 431.5 620.5 Q404 587 360 587 Q325 587 290 611 L264 631 Q262 633 253 639.5 Q244 646 236.5 649 Q229 652 222 652 Q194 652 194 614 L194 600 L112 600 Q110 610 110 629 Q110 682 137.5 715 Q165 748 209 748 Z " />
<glyph glyph-name="v" unicode="v" horiz-adv-x="549" d="M418 491 L530 491 L293 -11 L257 -11 L19 491 L131 491 L275 166 L418 491 Z " />
<glyph glyph-name="w" unicode="w" horiz-adv-x="854" d="M723 491 L835 491 L617 -11 L581 -11 L427 316 L273 -11 L237 -11 L19 491 L131 491 L260 170 L409 502 L445 502 L596 174 L723 491 Z " />
<glyph glyph-name="wcircumflex" unicode="&#x175;" horiz-adv-x="854" d="M723 491 L835 491 L617 -11 L581 -11 L427 316 L273 -11 L237 -11 L19 491 L131 491 L260 170 L409 502 L445 502 L596 174 L723 491 Z M594 568 L515 568 L425 677 L335 568 L256 568 L391 780 L459 780 L594 568 Z " />
<glyph glyph-name="x" unicode="x" horiz-adv-x="514" d="M499 0 L379 0 L257 178 L134 0 L14 0 L197 255 L27 491 L147 491 L257 331 L366 491 L486 491 L315 255 L499 0 Z " />
<glyph glyph-name="y" unicode="y" horiz-adv-x="549" d="M530 491 L291 -56 Q260 -126 217 -158.5 Q174 -191 111 -191 Q70 -191 30 -181 L30 -92 Q76 -96 88 -96 Q125 -96 151 -80.5 Q177 -65 195 -24 L215 22 L19 491 L132 491 L273 134 L418 491 L530 491 Z " />
<glyph glyph-name="yacute" unicode="&#xfd;" horiz-adv-x="549" d="M530 491 L291 -56 Q260 -126 217 -158.5 Q174 -191 111 -191 Q70 -191 30 -181 L30 -92 Q76 -96 88 -96 Q125 -96 151 -80.5 Q177 -65 195 -24 L215 22 L19 491 L132 491 L273 134 L418 491 L530 491 Z M441 780 L441 761 L313 568 L235 568 L314 780 L441 780 Z " />
<glyph glyph-name="ycircumflex" unicode="&#x177;" horiz-adv-x="549" d="M530 491 L291 -56 Q260 -126 217 -158.5 Q174 -191 111 -191 Q70 -191 30 -181 L30 -92 Q76 -96 88 -96 Q125 -96 151 -80.5 Q177 -65 195 -24 L215 22 L19 491 L132 491 L273 134 L418 491 L530 491 Z M442 568 L363 568 L273 677 L183 568 L104 568 L239 780 L307 780 L442 568 Z " />
<glyph glyph-name="ydieresis" unicode="&#xff;" horiz-adv-x="549" d="M530 491 L291 -56 Q260 -126 217 -158.5 Q174 -191 111 -191 Q70 -191 30 -181 L30 -92 Q76 -96 88 -96 Q125 -96 151 -80.5 Q177 -65 195 -24 L215 22 L19 491 L132 491 L273 134 L418 491 L530 491 Z M160 740 Q188 740 207.5 721 Q227 702 227 674 Q227 648 207.5 628.5 Q188 609 160 609 Q133 609 112.5 628.5 Q92 648 92 674 Q92 702 112.5 721 Q133 740 160 740 Z M384 740 Q413 740 432.5 721 Q452 702 452 674 Q452 648 432 628.5 Q412 609 384 609 Q358 609 337.5 628.5 Q317 648 317 674 Q317 702 337.5 721 Q358 740 384 740 Z " />
<glyph glyph-name="z" unicode="z" horiz-adv-x="461" d="M179 91 L439 91 L439 0 L22 0 L22 29 L279 400 L45 400 L45 491 L437 491 L437 461 L179 91 Z " />
<glyph glyph-name="zacute" unicode="&#x17a;" horiz-adv-x="461" d="M179 91 L439 91 L439 0 L22 0 L22 29 L279 400 L45 400 L45 491 L437 491 L437 461 L179 91 Z M406 780 L406 761 L278 568 L200 568 L279 780 L406 780 Z " />
<glyph glyph-name="zcaron" unicode="&#x17e;" horiz-adv-x="461" d="M179 91 L439 91 L439 0 L22 0 L22 29 L279 400 L45 400 L45 491 L437 491 L437 461 L179 91 Z M328 780 L407 780 L272 568 L204 568 L69 780 L148 780 L238 671 L328 780 Z " />
<glyph glyph-name="zdotaccent" unicode="&#x17c;" horiz-adv-x="461" d="M179 91 L439 91 L439 0 L22 0 L22 29 L279 400 L45 400 L45 491 L437 491 L437 461 L179 91 Z M238 744 Q267 744 288.5 723.5 Q310 703 310 674 Q310 645 289 625 Q268 605 238 605 Q208 605 187 625 Q166 645 166 674 Q166 703 187 723.5 Q208 744 238 744 Z " />
<glyph glyph-name="fi" unicode="&#xfb01;" horiz-adv-x="594" d="M295 666 Q247 666 223 647 Q199 628 199 581 L199 491 L315 491 L315 400 L199 400 L199 0 L94 0 L94 400 L24 400 L24 491 L94 491 L94 590 Q94 676 141 718.5 Q188 761 269 761 Q309 761 337 752 L337 663 Q313 666 295 666 Z M518 491 L518 0 L413 0 L413 491 L518 491 Z M466 744 Q495 744 516.5 723.5 Q538 703 538 674 Q538 645 517 625 Q496 605 466 605 Q436 605 415 625 Q394 645 394 674 Q394 703 415 723.5 Q436 744 466 744 Z " />
<glyph glyph-name="fl" unicode="&#xfb02;" horiz-adv-x="594" d="M295 666 Q247 666 223 647 Q199 628 199 581 L199 491 L315 491 L315 400 L199 400 L199 0 L94 0 L94 400 L24 400 L24 491 L94 491 L94 590 Q94 676 141 718.5 Q188 761 269 761 Q309 761 337 752 L337 663 Q313 666 295 666 Z M518 750 L518 0 L413 0 L413 750 L518 750 Z " />
<glyph glyph-name="ordfeminine" unicode="&#xaa;" horiz-adv-x="367" d="M181 563 Q243 563 279 528.5 Q315 494 315 430 L315 244 L237 244 L237 271 Q201 237 144 237 Q94 237 65.5 263 Q37 289 37 331 Q37 374 68.5 398 Q100 422 154 422 L230 422 L230 436 Q230 462 215 476 Q200 490 171 490 Q148 490 129 481 Q110 472 88 454 L50 509 Q107 563 181 563 Z M168 300 Q195 300 212.5 316 Q230 332 230 358 L230 368 L168 368 Q147 368 135 358.5 Q123 349 123 334 Q123 317 135.5 308.5 Q148 300 168 300 Z " />
<glyph glyph-name="ordmasculine" unicode="&#xba;" horiz-adv-x="404" d="M202 562 Q247 562 285.5 540.5 Q324 519 346.5 482 Q369 445 369 399 Q369 354 346.5 317 Q324 280 285.5 258.5 Q247 237 202 237 Q156 237 118 258.5 Q80 280 57.5 317 Q35 354 35 399 Q35 445 57.5 482 Q80 519 118 540.5 Q156 562 202 562 Z M202 486 Q165 486 142 462 Q119 438 119 399 Q119 361 142 337 Q165 313 202 313 Q239 313 261.5 337 Q284 361 284 399 Q284 437 261.5 461.5 Q239 486 202 486 Z " />
<glyph glyph-name="zero" unicode="0" horiz-adv-x="560" d="M280 671 Q397 671 457 580 Q517 489 517 336 Q517 181 457.5 85 Q398 -11 280 -11 Q162 -11 102.5 85 Q43 181 43 336 Q43 489 103 580 Q163 671 280 671 Z M280 574 Q213 574 183 512.5 Q153 451 153 335 Q153 86 280 86 Q407 86 407 335 Q407 451 377 512.5 Q347 574 280 574 Z " />
<glyph glyph-name="one" unicode="1" horiz-adv-x="560" d="M359 92 L524 92 L524 0 L67 0 L67 92 L253 92 L253 538 L84 492 L59 585 L323 660 L359 660 L359 92 Z " />
<glyph glyph-name="two" unicode="2" horiz-adv-x="560" d="M520 92 L520 0 L48 0 L48 24 L283 277 Q338 336 363 376 Q388 416 388 458 Q388 508 358 541 Q328 574 278 574 Q227 574 196.5 539.5 Q166 505 166 454 Q166 426 171 403 L63 403 Q56 430 56 460 Q56 514 83.5 562.5 Q111 611 161.5 641 Q212 671 279 671 Q341 671 391 644.5 Q441 618 469 571 Q497 524 497 466 Q497 401 462 344.5 Q427 288 358 215 L242 92 L520 92 Z " />
<glyph glyph-name="three" unicode="3" horiz-adv-x="560" d="M320 416 Q366 408 406 382 Q446 356 470.5 312.5 Q495 269 495 211 Q495 146 462.5 95.5 Q430 45 375 17 Q320 -11 254 -11 Q175 -11 115.5 28.5 Q56 68 22 132 L96 184 Q126 138 163 112 Q200 86 251 86 Q310 86 348 120.5 Q386 155 386 211 Q386 267 347 297.5 Q308 328 234 328 L161 328 L161 356 L317 565 L69 565 L69 660 L481 660 L481 631 L320 416 Z " />
<glyph glyph-name="four" unicode="4" horiz-adv-x="560" d="M529 206 L529 115 L450 115 L450 0 L344 0 L344 115 L19 115 L19 144 L208 660 L318 660 L152 206 L344 206 L344 409 L450 409 L450 206 L529 206 Z " />
<glyph glyph-name="five" unicode="5" horiz-adv-x="560" d="M288 419 Q347 419 398 395.5 Q449 372 480.5 325.5 Q512 279 512 213 Q512 146 479.5 95 Q447 44 391.5 16.5 Q336 -11 270 -11 Q188 -11 127.5 28 Q67 67 33 131 L107 184 Q137 138 175.5 112 Q214 86 267 86 Q327 86 365.5 120 Q404 154 404 211 Q404 267 364.5 297 Q325 327 251 327 L100 327 L100 660 L461 660 L461 565 L203 565 L203 410 Q242 419 288 419 Z " />
<glyph glyph-name="six" unicode="6" horiz-adv-x="560" d="M297 438 Q354 438 404 409 Q454 380 484 329.5 Q514 279 514 217 Q514 153 482 101 Q450 49 396.5 19 Q343 -11 280 -11 Q217 -11 163 18.5 Q109 48 77.5 100.5 Q46 153 46 218 Q46 256 57 289 Q68 322 86 351 Q104 380 138 427 L302 660 L427 660 L268 435 Q281 438 297 438 Z M280 86 Q335 86 371.5 123.5 Q408 161 408 217 Q408 273 371.5 310.5 Q335 348 280 348 Q225 348 188.5 310.5 Q152 273 152 217 Q152 161 188.5 123.5 Q225 86 280 86 Z " />
<glyph glyph-name="seven" unicode="7" horiz-adv-x="560" d="M64 660 L517 660 L517 631 L198 0 L83 0 L375 565 L64 565 L64 660 Z " />
<glyph glyph-name="eight" unicode="8" horiz-adv-x="560" d="M377 343 Q441 319 480 277 Q519 235 519 172 Q519 117 489 75.5 Q459 34 404.5 11.5 Q350 -11 280 -11 Q210 -11 155.5 11.5 Q101 34 71 75.5 Q41 117 41 172 Q41 233 78.5 275.5 Q116 318 182 343 Q129 372 100 410.5 Q71 449 71 502 Q71 582 130 626.5 Q189 671 280 671 Q371 671 430 626.5 Q489 582 489 502 Q489 400 377 343 Z M280 584 Q233 584 202.5 561 Q172 538 172 498 Q172 462 198.5 438.5 Q225 415 280 391 Q335 415 361.5 438 Q388 461 388 498 Q388 538 358 561 Q328 584 280 584 Z M280 77 Q345 77 379 104.5 Q413 132 413 176 Q413 220 379.5 246.5 Q346 273 280 297 Q214 273 180.5 246.5 Q147 220 147 176 Q147 132 181 104.5 Q215 77 280 77 Z " />
<glyph glyph-name="nine" unicode="9" horiz-adv-x="560" d="M280 671 Q343 671 397 641.5 Q451 612 482.5 559.5 Q514 507 514 442 Q514 404 503 371 Q492 338 474 309 Q456 280 422 233 L258 0 L133 0 L292 225 Q279 222 263 222 Q206 222 156 251 Q106 280 76 330.5 Q46 381 46 443 Q46 507 78 559 Q110 611 163.5 641 Q217 671 280 671 Z M280 312 Q335 312 371.5 349.5 Q408 387 408 443 Q408 499 371.5 536.5 Q335 574 280 574 Q225 574 188.5 536.5 Q152 499 152 443 Q152 387 188.5 349.5 Q225 312 280 312 Z " />
<glyph glyph-name="uni00B9" unicode="&#xb9;" horiz-adv-x="361" d="M232 780 L232 439 L320 439 L320 364 L45 364 L45 439 L149 439 L149 705 L51 705 L51 780 L232 780 Z " />
<glyph glyph-name="uni00B2" unicode="&#xb2;" horiz-adv-x="376" d="M337 439 L337 364 L34 364 L34 382 L182 542 Q212 576 226 600 Q240 624 240 648 Q240 675 224 693 Q208 711 182 711 Q155 711 138.5 693 Q122 675 122 646 Q122 639 124 615 L42 615 Q38 631 38 651 Q38 686 56 717 Q74 748 106.5 767.5 Q139 787 182 787 Q244 787 284.5 749.5 Q325 712 325 655 Q325 613 303 577.5 Q281 542 236 493 L184 439 L337 439 Z " />
<glyph glyph-name="uni00B3" unicode="&#xb3;" horiz-adv-x="357" d="M220 627 Q261 617 290.5 584 Q320 551 320 500 Q320 458 299 425.5 Q278 393 242.5 375 Q207 357 165 357 Q114 357 75 382.5 Q36 408 15 450 L73 491 Q90 463 111.5 448 Q133 433 162 433 Q194 433 214.5 451 Q235 469 235 500 Q235 530 213 545.5 Q191 561 149 561 L104 561 L104 582 L192 705 L46 705 L46 780 L312 780 L312 757 L220 627 Z " />
<glyph glyph-name="fraction" unicode="&#x2044;" horiz-adv-x="244" d="M356 660 L-23 0 L-112 0 L267 660 L356 660 Z " />
<glyph glyph-name="onehalf" unicode="&#xbd;" horiz-adv-x="947" d="M320 319 L320 244 L45 244 L45 319 L149 319 L149 585 L51 585 L51 660 L232 660 L232 319 L320 319 Z M628 660 L717 660 L338 0 L249 0 L628 660 Z M907 75 L907 0 L604 0 L604 18 L752 178 Q782 212 796 236 Q810 260 810 284 Q810 311 794 329 Q778 347 752 347 Q725 347 708.5 329 Q692 311 692 282 Q692 275 694 251 L612 251 Q608 267 608 287 Q608 322 626 353 Q644 384 676.5 403.5 Q709 423 752 423 Q814 423 854.5 385.5 Q895 348 895 291 Q895 249 873 213.5 Q851 178 806 129 L754 75 L907 75 Z " />
<glyph glyph-name="uni2153" unicode="&#x2153;" horiz-adv-x="962" d="M320 319 L320 244 L45 244 L45 319 L149 319 L149 585 L51 585 L51 660 L232 660 L232 319 L320 319 Z M628 660 L717 660 L338 0 L249 0 L628 660 Z M825 263 Q866 253 895.5 220 Q925 187 925 136 Q925 94 904 61.5 Q883 29 847.5 11 Q812 -7 770 -7 Q719 -7 680 18.5 Q641 44 620 86 L678 127 Q695 99 716.5 84 Q738 69 767 69 Q799 69 819.5 87 Q840 105 840 136 Q840 166 818 181.5 Q796 197 754 197 L709 197 L709 218 L797 341 L651 341 L651 416 L917 416 L917 393 L825 263 Z " />
<glyph glyph-name="uni2154" unicode="&#x2154;" horiz-adv-x="977" d="M337 244 L34 244 L34 262 L182 422 Q212 456 226 480 Q240 504 240 528 Q240 555 224 573 Q208 591 182 591 Q155 591 138.5 573 Q122 555 122 526 Q122 519 124 495 L42 495 Q38 511 38 531 Q38 566 56 597 Q74 628 106.5 647.5 Q139 667 182 667 Q244 667 284.5 629.5 Q325 592 325 535 Q325 493 303 457.5 Q281 422 236 373 L184 319 L337 319 L337 244 Z M643 660 L732 660 L353 0 L264 0 L643 660 Z M841 263 Q882 253 911.5 220 Q941 187 941 136 Q941 94 920 61.5 Q899 29 863.5 11 Q828 -7 786 -7 Q735 -7 696 18.5 Q657 44 636 86 L694 127 Q711 99 732.5 84 Q754 69 783 69 Q815 69 835.5 87 Q856 105 856 136 Q856 166 834 181.5 Q812 197 770 197 L725 197 L725 218 L813 341 L667 341 L667 416 L933 416 L933 393 L841 263 Z " />
<glyph glyph-name="onequarter" unicode="&#xbc;" horiz-adv-x="911" d="M320 319 L320 244 L45 244 L45 319 L149 319 L149 585 L51 585 L51 660 L232 660 L232 319 L320 319 Z M628 660 L717 660 L338 0 L249 0 L628 660 Z M897 137 L897 69 L844 69 L844 0 L768 0 L768 69 L559 69 L559 91 L686 416 L771 416 L661 137 L768 137 L768 257 L844 257 L844 137 L897 137 Z " />
<glyph glyph-name="threequarters" unicode="&#xbe;" horiz-adv-x="872" d="M320 380 Q320 338 299 305.5 Q278 273 242.5 255 Q207 237 165 237 Q114 237 75 262.5 Q36 288 15 330 L73 371 Q90 343 111.5 328 Q133 313 162 313 Q194 313 214.5 331 Q235 349 235 380 Q235 410 213 425.5 Q191 441 149 441 L104 441 L104 462 L192 585 L46 585 L46 660 L312 660 L312 637 L220 507 Q261 497 290.5 464 Q320 431 320 380 Z M589 660 L678 660 L299 0 L210 0 L589 660 Z M858 137 L858 69 L805 69 L805 0 L729 0 L729 69 L520 69 L520 91 L647 416 L732 416 L622 137 L729 137 L729 257 L805 257 L805 137 L858 137 Z " />
<glyph glyph-name="uni2155" unicode="&#x2155;" horiz-adv-x="965" d="M320 319 L320 244 L45 244 L45 319 L149 319 L149 585 L51 585 L51 660 L232 660 L232 319 L320 319 Z M628 660 L717 660 L338 0 L249 0 L628 660 Z M786 268 Q845 268 887 233.5 Q929 199 929 138 Q929 73 883.5 33 Q838 -7 771 -7 Q719 -7 679.5 18.5 Q640 44 619 86 L677 127 Q712 69 768 69 Q801 69 822.5 87 Q844 105 844 135 Q844 165 822 181 Q800 197 757 197 L662 197 L662 416 L900 416 L900 341 L741 341 L741 263 Q766 268 786 268 Z " />
<glyph glyph-name="uni2156" unicode="&#x2156;" horiz-adv-x="981" d="M337 244 L34 244 L34 262 L182 422 Q212 456 226 480 Q240 504 240 528 Q240 555 224 573 Q208 591 182 591 Q155 591 138.5 573 Q122 555 122 526 Q122 519 124 495 L42 495 Q38 511 38 531 Q38 566 56 597 Q74 628 106.5 647.5 Q139 667 182 667 Q244 667 284.5 629.5 Q325 592 325 535 Q325 493 303 457.5 Q281 422 236 373 L184 319 L337 319 L337 244 Z M643 660 L732 660 L353 0 L264 0 L643 660 Z M802 268 Q861 268 903 233.5 Q945 199 945 138 Q945 73 899.5 33 Q854 -7 787 -7 Q735 -7 695.5 18.5 Q656 44 635 86 L693 127 Q728 69 784 69 Q817 69 838.5 87 Q860 105 860 135 Q860 165 838 181 Q816 197 773 197 L678 197 L678 416 L916 416 L916 341 L757 341 L757 263 Q782 268 802 268 Z " />
<glyph glyph-name="uni2157" unicode="&#x2157;" horiz-adv-x="926" d="M320 380 Q320 338 299 305.5 Q278 273 242.5 255 Q207 237 165 237 Q114 237 75 262.5 Q36 288 15 330 L73 371 Q90 343 111.5 328 Q133 313 162 313 Q194 313 214.5 331 Q235 349 235 380 Q235 410 213 425.5 Q191 441 149 441 L104 441 L104 462 L192 585 L46 585 L46 660 L312 660 L312 637 L220 507 Q261 497 290.5 464 Q320 431 320 380 Z M589 660 L678 660 L299 0 L210 0 L589 660 Z M747 268 Q806 268 848 233.5 Q890 199 890 138 Q890 73 844.5 33 Q799 -7 732 -7 Q680 -7 640.5 18.5 Q601 44 580 86 L638 127 Q673 69 729 69 Q762 69 783.5 87 Q805 105 805 135 Q805 165 783 181 Q761 197 718 197 L623 197 L623 416 L861 416 L861 341 L702 341 L702 263 Q727 268 747 268 Z " />
<glyph glyph-name="uni2158" unicode="&#x2158;" horiz-adv-x="980" d="M299 244 L223 244 L223 313 L14 313 L14 335 L141 660 L226 660 L116 381 L223 381 L223 501 L299 501 L299 381 L352 381 L352 313 L299 313 L299 244 Z M642 660 L731 660 L352 0 L263 0 L642 660 Z M801 268 Q860 268 902 233.5 Q944 199 944 138 Q944 73 898.5 33 Q853 -7 786 -7 Q734 -7 694.5 18.5 Q655 44 634 86 L692 127 Q727 69 783 69 Q816 69 837.5 87 Q859 105 859 135 Q859 165 837 181 Q815 197 772 197 L677 197 L677 416 L915 416 L915 341 L756 341 L756 263 Q781 268 801 268 Z " />
<glyph glyph-name="uni2159" unicode="&#x2159;" horiz-adv-x="899" d="M320 319 L320 244 L45 244 L45 319 L149 319 L149 585 L51 585 L51 660 L232 660 L232 319 L320 319 Z M628 660 L717 660 L338 0 L249 0 L628 660 Z M727 282 Q761 282 792.5 263.5 Q824 245 843.5 212.5 Q863 180 863 140 Q863 99 842 65 Q821 31 786 12 Q751 -7 711 -7 Q671 -7 636.5 12 Q602 31 581.5 65 Q561 99 561 142 Q561 176 574 203.5 Q587 231 617 272 L720 416 L818 416 L722 282 L727 282 Z M711 69 Q740 69 760 89 Q780 109 780 140 Q780 171 760 191.5 Q740 212 711 212 Q682 212 662.5 191.5 Q643 171 643 140 Q643 109 662.5 89 Q682 69 711 69 Z " />
<glyph glyph-name="uni215A" unicode="&#x215a;" horiz-adv-x="870" d="M332 382 Q332 317 286.5 277 Q241 237 174 237 Q122 237 82.5 262.5 Q43 288 22 330 L80 371 Q115 313 171 313 Q204 313 225.5 331 Q247 349 247 379 Q247 409 225 425 Q203 441 160 441 L65 441 L65 660 L303 660 L303 585 L144 585 L144 507 Q169 512 189 512 Q248 512 290 477.5 Q332 443 332 382 Z M600 660 L689 660 L310 0 L221 0 L600 660 Z M699 282 Q733 282 764.5 263.5 Q796 245 815.5 212.5 Q835 180 835 140 Q835 99 814 65 Q793 31 758 12 Q723 -7 683 -7 Q643 -7 608.5 12 Q574 31 553.5 65 Q533 99 533 142 Q533 176 546 203.5 Q559 231 589 272 L692 416 L790 416 L694 282 L699 282 Z M683 69 Q712 69 732 89 Q752 109 752 140 Q752 171 732 191.5 Q712 212 683 212 Q654 212 634.5 191.5 Q615 171 615 140 Q615 109 634.5 89 Q654 69 683 69 Z " />
<glyph glyph-name="uni2150" unicode="&#x2150;" horiz-adv-x="942" d="M320 319 L320 244 L45 244 L45 319 L149 319 L149 585 L51 585 L51 660 L232 660 L232 319 L320 319 Z M628 660 L717 660 L338 0 L249 0 L628 660 Z M635 416 L923 416 L923 393 L734 0 L645 0 L813 341 L635 341 L635 416 Z " />
<glyph glyph-name="oneeighth" unicode="&#x215b;" horiz-adv-x="945" d="M320 319 L320 244 L45 244 L45 319 L149 319 L149 585 L51 585 L51 660 L232 660 L232 319 L320 319 Z M628 660 L717 660 L338 0 L249 0 L628 660 Z M825 215 Q906 181 906 110 Q906 57 863 25 Q820 -7 752 -7 Q684 -7 641.5 25 Q599 57 599 111 Q599 182 680 215 Q617 252 617 314 Q617 365 655 394 Q693 423 752 423 Q812 423 850 394 Q888 365 888 313 Q888 251 825 215 Z M752 357 Q727 357 710 344.5 Q693 332 693 310 Q693 290 707.5 277 Q722 264 752 249 Q783 264 797.5 277 Q812 290 812 310 Q812 332 795 344.5 Q778 357 752 357 Z M752 60 Q786 60 805.5 75 Q825 90 825 114 Q825 138 806.5 153.5 Q788 169 752 181 Q717 168 698.5 153 Q680 138 680 114 Q680 90 698.5 75 Q717 60 752 60 Z " />
<glyph glyph-name="threeeighths" unicode="&#x215c;" horiz-adv-x="906" d="M320 380 Q320 338 299 305.5 Q278 273 242.5 255 Q207 237 165 237 Q114 237 75 262.5 Q36 288 15 330 L73 371 Q90 343 111.5 328 Q133 313 162 313 Q194 313 214.5 331 Q235 349 235 380 Q235 410 213 425.5 Q191 441 149 441 L104 441 L104 462 L192 585 L46 585 L46 660 L312 660 L312 637 L220 507 Q261 497 290.5 464 Q320 431 320 380 Z M589 660 L678 660 L299 0 L210 0 L589 660 Z M786 215 Q867 181 867 110 Q867 57 824 25 Q781 -7 713 -7 Q645 -7 602.5 25 Q560 57 560 111 Q560 182 641 215 Q578 252 578 314 Q578 365 616 394 Q654 423 713 423 Q773 423 811 394 Q849 365 849 313 Q849 251 786 215 Z M713 357 Q688 357 671 344.5 Q654 332 654 310 Q654 290 668.5 277 Q683 264 713 249 Q744 264 758.5 277 Q773 290 773 310 Q773 332 756 344.5 Q739 357 713 357 Z M713 60 Q747 60 766.5 75 Q786 90 786 114 Q786 138 767.5 153.5 Q749 169 713 181 Q678 168 659.5 153 Q641 138 641 114 Q641 90 659.5 75 Q678 60 713 60 Z " />
<glyph glyph-name="fiveeighths" unicode="&#x215d;" horiz-adv-x="917" d="M332 382 Q332 317 286.5 277 Q241 237 174 237 Q122 237 82.5 262.5 Q43 288 22 330 L80 371 Q115 313 171 313 Q204 313 225.5 331 Q247 349 247 379 Q247 409 225 425 Q203 441 160 441 L65 441 L65 660 L303 660 L303 585 L144 585 L144 507 Q169 512 189 512 Q248 512 290 477.5 Q332 443 332 382 Z M600 660 L689 660 L310 0 L221 0 L600 660 Z M797 215 Q878 181 878 110 Q878 57 835 25 Q792 -7 724 -7 Q656 -7 613.5 25 Q571 57 571 111 Q571 182 652 215 Q589 252 589 314 Q589 365 627 394 Q665 423 724 423 Q784 423 822 394 Q860 365 860 313 Q860 251 797 215 Z M724 357 Q699 357 682 344.5 Q665 332 665 310 Q665 290 679.5 277 Q694 264 724 249 Q755 264 769.5 277 Q784 290 784 310 Q784 332 767 344.5 Q750 357 724 357 Z M724 60 Q758 60 777.5 75 Q797 90 797 114 Q797 138 778.5 153.5 Q760 169 724 181 Q689 168 670.5 153 Q652 138 652 114 Q652 90 670.5 75 Q689 60 724 60 Z " />
<glyph glyph-name="seveneighths" unicode="&#x215e;" horiz-adv-x="823" d="M129 244 L40 244 L208 585 L30 585 L30 660 L318 660 L318 637 L129 244 Z M505 660 L594 660 L215 0 L126 0 L505 660 Z M703 215 Q784 181 784 110 Q784 57 741 25 Q698 -7 630 -7 Q562 -7 519.5 25 Q477 57 477 111 Q477 182 558 215 Q495 252 495 314 Q495 365 533 394 Q571 423 630 423 Q690 423 728 394 Q766 365 766 313 Q766 251 703 215 Z M630 357 Q605 357 588 344.5 Q571 332 571 310 Q571 290 585.5 277 Q600 264 630 249 Q661 264 675.5 277 Q690 290 690 310 Q690 332 673 344.5 Q656 357 630 357 Z M630 60 Q664 60 683.5 75 Q703 90 703 114 Q703 138 684.5 153.5 Q666 169 630 181 Q595 168 576.5 153 Q558 138 558 114 Q558 90 576.5 75 Q595 60 630 60 Z " />
<glyph glyph-name="uni2151" unicode="&#x2151;" horiz-adv-x="949" d="M320 319 L320 244 L45 244 L45 319 L149 319 L149 585 L51 585 L51 660 L232 660 L232 319 L320 319 Z M628 660 L717 660 L338 0 L249 0 L628 660 Z M762 423 Q802 423 836.5 404 Q871 385 891.5 351 Q912 317 912 274 Q912 240 899 212.5 Q886 185 856 144 L753 0 L656 0 L751 134 L746 134 Q712 134 680.5 152.5 Q649 171 629.5 203.5 Q610 236 610 276 Q610 317 631 351 Q652 385 687 404 Q722 423 762 423 Z M762 204 Q791 204 810.5 224.5 Q830 245 830 276 Q830 307 810.5 327 Q791 347 762 347 Q733 347 713 327 Q693 307 693 276 Q693 245 713 224.5 Q733 204 762 204 Z " />
<glyph glyph-name="uni2152" unicode="&#x2152;" horiz-adv-x="1382" d="M232 660 L232 319 L320 319 L320 244 L45 244 L45 319 L149 319 L149 585 L51 585 L51 660 L232 660 Z M717 660 L338 0 L249 0 L628 660 L717 660 Z M1175 423 Q1255 423 1296 365 Q1337 307 1337 212 Q1337 116 1296 54.5 Q1255 -7 1175 -7 Q1095 -7 1054 54.5 Q1013 116 1013 212 Q1013 307 1054 365 Q1095 423 1175 423 Z M837 416 L837 75 L925 75 L925 0 L650 0 L650 75 L754 75 L754 341 L656 341 L656 416 L837 416 Z M1175 347 Q1097 347 1097 211 Q1097 143 1116.5 105.5 Q1136 68 1175 68 Q1215 68 1234 105.5 Q1253 143 1253 211 Q1253 347 1175 347 Z " />
<glyph glyph-name="asterisk" unicode="&#x2a;" horiz-adv-x="438" d="M395 630 L303 564 L395 498 L364 445 L261 492 L250 379 L188 379 L177 492 L74 445 L43 498 L135 564 L43 630 L74 684 L177 637 L188 750 L250 750 L261 637 L364 684 L395 630 Z " />
<glyph glyph-name="backslash" unicode="&#x5c;" horiz-adv-x="650" d="M5 780 L122 780 L645 -121 L528 -121 L5 780 Z " />
<glyph glyph-name="middot" unicode="&#xb7;" horiz-adv-x="270" d="M136 395 Q169 395 191 373 Q213 351 213 317 Q213 284 191 262 Q169 240 136 240 Q103 240 80 262 Q57 284 57 317 Q57 350 80 372.5 Q103 395 136 395 Z " />
<glyph glyph-name="bullet" unicode="&#x2022;" horiz-adv-x="402" d="M201 413 Q241 413 274.5 394.5 Q308 376 327.5 343 Q347 310 347 269 Q347 228 327.5 195.5 Q308 163 274.5 144.5 Q241 126 201 126 Q162 126 128 144.5 Q94 163 74 196 Q54 229 54 269 Q54 310 74 343 Q94 376 128 394.5 Q162 413 201 413 Z " />
<glyph glyph-name="colon" unicode="&#x3a;" horiz-adv-x="270" d="M136 498 Q169 498 191 476 Q213 454 213 420 Q213 387 191 365 Q169 343 136 343 Q103 343 80 365 Q57 387 57 420 Q57 453 80 475.5 Q103 498 136 498 Z M136 144 Q169 144 191 122 Q213 100 213 66 Q213 33 191 11 Q169 -11 136 -11 Q103 -11 80 11 Q57 33 57 66 Q57 99 80 121.5 Q103 144 136 144 Z " />
<glyph glyph-name="comma" unicode="&#x2c;" horiz-adv-x="270" d="M205 106 L159 -178 L74 -178 L83 106 L205 106 Z " />
<glyph glyph-name="ellipsis" unicode="&#x2026;" horiz-adv-x="778" d="M390 144 Q423 144 445 122 Q467 100 467 66 Q467 33 445 11 Q423 -11 390 -11 Q357 -11 334 11 Q311 33 311 66 Q311 99 334 121.5 Q357 144 390 144 Z M136 144 Q169 144 191 122 Q213 100 213 66 Q213 33 191 11 Q169 -11 136 -11 Q103 -11 80 11 Q57 33 57 66 Q57 99 80 121.5 Q103 144 136 144 Z M644 144 Q677 144 699 122 Q721 100 721 66 Q721 33 699 11 Q677 -11 644 -11 Q611 -11 588 11 Q565 33 565 66 Q565 99 588 121.5 Q611 144 644 144 Z " />
<glyph glyph-name="exclam" unicode="&#x21;" horiz-adv-x="326" d="M225 660 L206 225 L119 225 L99 660 L225 660 Z M163 144 Q196 144 218 122 Q240 100 240 66 Q240 33 218 11 Q196 -11 163 -11 Q130 -11 107.5 11 Q85 33 85 66 Q85 100 107.5 122 Q130 144 163 144 Z " />
<glyph glyph-name="exclamdown" unicode="&#xa1;" horiz-adv-x="326" d="M163 502 Q196 502 218 480 Q240 458 240 424 Q240 391 217.5 369 Q195 347 163 347 Q130 347 107.5 369 Q85 391 85 424 Q85 458 107.5 480 Q130 502 163 502 Z M206 265 L226 -180 L99 -180 L119 265 L206 265 Z " />
<glyph glyph-name="numbersign" unicode="&#x23;" horiz-adv-x="614" d="M586 408 L490 408 L469 252 L564 252 L564 162 L457 162 L435 0 L348 0 L370 162 L199 162 L177 0 L90 0 L112 162 L27 162 L27 252 L124 252 L144 408 L50 408 L50 498 L156 498 L178 660 L267 660 L245 498 L414 498 L436 660 L524 660 L502 498 L586 498 L586 408 Z M211 249 L381 249 L403 411 L233 411 L211 249 Z " />
<glyph glyph-name="period" unicode="&#x2e;" horiz-adv-x="270" d="M136 144 Q169 144 191 122 Q213 100 213 66 Q213 33 191 11 Q169 -11 136 -11 Q103 -11 80 11 Q57 33 57 66 Q57 99 80 121.5 Q103 144 136 144 Z " />
<glyph glyph-name="question" unicode="&#x3f;" horiz-adv-x="448" d="M223 671 Q274 671 316.5 649.5 Q359 628 384 589 Q409 550 409 501 Q409 455 387 421 Q365 387 320 346 Q280 311 264.5 292.5 Q249 274 249 252 Q249 241 253 225 L163 225 Q152 249 152 271 Q152 304 172 329.5 Q192 355 231 389 Q271 425 285.5 444.5 Q300 464 300 492 Q300 529 276.5 551.5 Q253 574 219 574 Q186 574 161 552 Q136 530 122 488 L34 526 Q55 596 104.5 633.5 Q154 671 223 671 Z M212 144 Q245 144 267.5 122 Q290 100 290 66 Q290 33 267.5 11 Q245 -11 212 -11 Q179 -11 156.5 11 Q134 33 134 66 Q134 99 156.5 121.5 Q179 144 212 144 Z " />
<glyph glyph-name="questiondown" unicode="&#xbf;" horiz-adv-x="447" d="M235 502 Q268 502 290.5 480 Q313 458 313 424 Q313 391 290.5 368.5 Q268 346 235 346 Q203 346 180 368.5 Q157 391 157 424 Q157 457 179.5 479.5 Q202 502 235 502 Z M286 265 Q296 241 296 220 Q296 186 276 160 Q256 134 216 98 Q178 63 162.5 40.5 Q147 18 147 -11 Q147 -48 171 -71 Q195 -94 229 -94 Q296 -94 326 -8 L413 -46 Q393 -116 344 -153.5 Q295 -191 226 -191 Q175 -191 132 -169 Q89 -147 64 -107 Q39 -67 39 -17 Q39 32 61.5 67.5 Q84 103 128 141 Q167 176 182.5 196 Q198 216 198 239 Q198 255 195 265 L286 265 Z " />
<glyph glyph-name="quotedbl" unicode="&#x22;" horiz-adv-x="500" d="M219 660 L170 392 L89 392 L98 660 L219 660 Z M429 660 L380 392 L299 392 L308 660 L429 660 Z " />
<glyph glyph-name="quotesingle" unicode="&#x27;" horiz-adv-x="291" d="M219 660 L170 392 L89 392 L98 660 L219 660 Z " />
<glyph glyph-name="semicolon" unicode="&#x3b;" horiz-adv-x="270" d="M136 498 Q169 498 191 476 Q213 454 213 420 Q213 387 191 365 Q169 343 136 343 Q103 343 80 365 Q57 387 57 420 Q57 453 80 475.5 Q103 498 136 498 Z M205 106 L159 -178 L74 -178 L83 106 L205 106 Z " />
<glyph glyph-name="slash" unicode="&#x2f;" horiz-adv-x="650" d="M645 780 L122 -121 L5 -121 L528 780 L645 780 Z " />
<glyph glyph-name="underscore" unicode="&#x5f;" horiz-adv-x="504" d="M465 -70 L465 -155 L39 -155 L39 -70 L465 -70 Z " />
<glyph glyph-name="braceleft" unicode="&#x7b;" horiz-adv-x="404" d="M307 641 Q236 641 236 567 Q236 542 248 478 Q260 410 260 385 Q260 350 244.5 330 Q229 310 197 299 Q230 288 245 268.5 Q260 249 260 214 Q260 189 248 121 Q236 57 236 32 Q236 -43 307 -43 L360 -43 L360 -131 L288 -131 Q142 -131 142 6 Q142 46 156 122 Q166 182 166 199 Q166 254 109 254 L49 254 L49 345 L109 345 Q166 345 166 399 Q166 416 156 478 Q142 554 142 593 Q142 729 288 729 L360 729 L360 641 L307 641 Z " />
<glyph glyph-name="braceright" unicode="&#x7d;" horiz-adv-x="404" d="M355 345 L355 254 L296 254 Q267 254 252.5 241 Q238 228 238 199 Q238 182 248 122 Q262 46 262 6 Q262 -131 116 -131 L44 -131 L44 -43 L98 -43 Q168 -43 168 32 Q168 57 156 121 Q144 189 144 214 Q144 249 159 268.5 Q174 288 207 299 Q175 310 159.5 330 Q144 350 144 385 Q144 410 156 478 Q168 542 168 567 Q168 641 98 641 L44 641 L44 729 L116 729 Q262 729 262 593 Q262 554 248 478 Q238 416 238 399 Q238 371 252.5 358 Q267 345 296 345 L355 345 Z " />
<glyph glyph-name="bracketleft" unicode="&#x5b;" horiz-adv-x="350" d="M305 729 L305 641 L190 641 L190 -41 L305 -41 L305 -131 L96 -131 L96 729 L305 729 Z " />
<glyph glyph-name="bracketright" unicode="&#x5d;" horiz-adv-x="350" d="M254 729 L254 -131 L44 -131 L44 -41 L160 -41 L160 641 L44 641 L44 729 L254 729 Z " />
<glyph glyph-name="parenleft" unicode="&#x28;" horiz-adv-x="349" d="M322 670 Q254 625 212 538.5 Q170 452 170 302 Q170 34 322 -65 L279 -131 Q189 -89 131 17 Q73 123 73 302 Q73 482 131 588 Q189 694 279 736 L322 670 Z " />
<glyph glyph-name="parenright" unicode="&#x29;" horiz-adv-x="349" d="M71 736 Q160 694 217.5 588 Q275 482 275 302 Q275 123 217.5 17 Q160 -89 71 -131 L27 -65 Q179 34 179 302 Q179 452 137 538.5 Q95 625 27 670 L71 736 Z " />
<glyph glyph-name="emdash" unicode="&#x2014;" horiz-adv-x="1000" d="M950 362 L950 273 L50 273 L50 362 L950 362 Z " />
<glyph glyph-name="endash" unicode="&#x2013;" horiz-adv-x="504" d="M465 362 L465 273 L39 273 L39 362 L465 362 Z " />
<glyph glyph-name="hyphen" unicode="&#x2d;" horiz-adv-x="344" d="M295 362 L295 273 L49 273 L49 362 L295 362 Z " />
<glyph glyph-name="uni00AD" unicode="&#xad;" horiz-adv-x="344" d="M295 362 L295 273 L49 273 L49 362 L295 362 Z " />
<glyph glyph-name="uni2015" unicode="&#x2015;" horiz-adv-x="1000" d="M950 362 L950 273 L50 273 L50 362 L950 362 Z " />
<glyph glyph-name="guillemotleft" unicode="&#xab;" horiz-adv-x="550" d="M220 485 L288 425 L150 272 L288 117 L220 58 L34 257 L34 286 L220 485 Z M447 485 L515 425 L377 272 L515 117 L447 58 L261 257 L261 286 L447 485 Z " />
<glyph glyph-name="guillemotright" unicode="&#xbb;" horiz-adv-x="550" d="M103 485 L289 286 L289 257 L103 58 L35 117 L173 272 L35 425 L103 485 Z M330 485 L516 286 L516 257 L330 58 L262 117 L400 272 L262 425 L330 485 Z " />
<glyph glyph-name="guilsinglleft" unicode="&#x2039;" horiz-adv-x="323" d="M220 485 L288 425 L150 272 L288 117 L220 58 L34 257 L34 286 L220 485 Z " />
<glyph glyph-name="guilsinglright" unicode="&#x203a;" horiz-adv-x="323" d="M103 485 L289 286 L289 257 L103 58 L35 117 L173 272 L35 425 L103 485 Z " />
<glyph glyph-name="quotedblbase" unicode="&#x201e;" horiz-adv-x="500" d="M219 106 L170 -161 L89 -161 L98 106 L219 106 Z M429 106 L380 -161 L299 -161 L308 106 L429 106 Z " />
<glyph glyph-name="quotedblleft" unicode="&#x201c;" horiz-adv-x="500" d="M202 660 L192 392 L71 392 L120 660 L202 660 Z M412 660 L402 392 L281 392 L330 660 L412 660 Z " />
<glyph glyph-name="quotedblright" unicode="&#x201d;" horiz-adv-x="500" d="M219 660 L170 392 L89 392 L98 660 L219 660 Z M429 660 L380 392 L299 392 L308 660 L429 660 Z " />
<glyph glyph-name="quoteleft" unicode="&#x2018;" horiz-adv-x="291" d="M202 660 L192 392 L71 392 L120 660 L202 660 Z " />
<glyph glyph-name="quoteright" unicode="&#x2019;" horiz-adv-x="291" d="M219 660 L170 392 L89 392 L98 660 L219 660 Z " />
<glyph glyph-name="quotesinglbase" unicode="&#x201a;" horiz-adv-x="291" d="M219 106 L170 -161 L89 -161 L98 106 L219 106 Z " />
<glyph glyph-name="uni2009" unicode="&#x2009;" horiz-adv-x="147" d="" />
<glyph glyph-name="Euro" unicode="&#x20ac;" horiz-adv-x="679" d="M405 86 Q455 86 494.5 107 Q534 128 560 164 L635 105 Q600 51 539 20 Q478 -11 401 -11 Q293 -11 215.5 49 Q138 109 107 209 L4 209 L4 292 L91 292 Q89 316 89 330 Q89 353 90 364 L5 364 L5 447 L105 447 Q136 549 214 610 Q292 671 401 671 Q478 671 539 640 Q600 609 635 555 L560 497 Q534 532 494.5 553 Q455 574 405 574 Q340 574 292 540 Q244 506 220 447 L484 447 L463 364 L201 364 Q199 342 199 330 Q199 316 201 292 L442 292 L420 209 L222 209 Q247 151 294 118.5 Q341 86 405 86 Z " />
<glyph glyph-name="cent" unicode="&#xa2;" horiz-adv-x="555" d="M328 170 Q385 182 428 242 L501 184 Q473 137 428.5 108 Q384 79 328 72 L328 -95 L230 -95 L230 78 Q144 99 89.5 167.5 Q35 236 35 327 Q35 417 89.5 485.5 Q144 554 230 575 L230 749 L328 749 L328 581 Q384 574 429 545 Q474 516 502 470 L429 412 Q385 471 328 483 L328 170 Z M142 327 Q142 278 165.5 239 Q189 200 230 181 L230 472 Q189 454 165.5 415 Q142 376 142 327 Z " />
<glyph glyph-name="currency" unicode="&#xa4;" horiz-adv-x="649" d="M562 330 Q562 257 519 198 L627 88 L564 25 L454 137 Q395 100 323 100 Q252 100 194 136 L86 25 L22 88 L128 197 Q85 256 85 330 Q85 403 128 462 L22 570 L86 633 L194 524 Q252 560 323 560 Q396 560 453 523 L563 633 L627 570 L519 463 Q562 404 562 330 Z M323 197 Q379 197 416.5 235 Q454 273 454 329 Q454 387 416.5 425 Q379 463 323 463 Q266 463 229.5 425 Q193 387 193 329 Q193 272 229.5 234.5 Q266 197 323 197 Z " />
<glyph glyph-name="dollar" unicode="&#x24;" horiz-adv-x="537" d="M483 193 Q483 124 436.5 79.5 Q390 35 316 24 L316 -95 L219 -95 L219 26 Q159 37 112.5 72 Q66 107 36 161 L109 215 Q155 143 219 122 L219 306 Q75 363 75 473 Q75 534 115 575.5 Q155 617 219 630 L219 749 L316 749 L316 632 Q415 614 468 521 L396 467 Q360 520 316 534 L316 371 L334 364 Q407 336 445 294.5 Q483 253 483 193 Z M180 474 Q180 436 219 413 L219 531 Q180 514 180 474 Z M316 119 Q345 128 361.5 146 Q378 164 378 191 Q378 216 362 233.5 Q346 251 316 266 L316 119 Z " />
<glyph glyph-name="lira" unicode="&#x20a4;" horiz-adv-x="548" d="M283 170 Q273 124 240 88 L504 88 L504 0 L49 0 L49 24 Q100 59 132.5 94.5 Q165 130 176 170 L59 170 L59 250 L178 250 Q172 280 151 320 L59 320 L59 400 L111 400 Q93 447 93 488 Q93 542 119.5 584 Q146 626 192.5 648.5 Q239 671 297 671 Q377 671 433.5 627 Q490 583 513 499 L422 466 Q389 574 303 574 Q255 574 228 545 Q201 516 201 471 Q201 437 218 400 L403 400 L403 320 L260 320 Q279 283 285 250 L403 250 L403 170 L283 170 Z " />
<glyph glyph-name="sterling" unicode="&#xa3;" horiz-adv-x="548" d="M288 215 Q288 180 276.5 148 Q265 116 243 91 L504 91 L504 0 L49 0 L49 24 Q113 68 147.5 113 Q182 158 182 214 Q182 228 181 235 L59 235 L59 326 L148 326 Q144 334 127.5 365 Q111 396 102 427 Q93 458 93 488 Q93 542 119.5 584 Q146 626 192.5 648.5 Q239 671 297 671 Q377 671 433.5 627 Q490 583 513 499 L422 466 Q389 574 303 574 Q255 574 228 545 Q201 516 201 471 Q201 443 211 417.5 Q221 392 241 358 Q256 331 258 326 L417 326 L417 235 L287 235 Q288 229 288 215 Z " />
<glyph glyph-name="uni20B9" unicode="&#x20b9;" horiz-adv-x="525" d="M340 578 Q364 548 373 506 L451 506 L451 423 L375 423 Q365 354 316.5 311 Q268 268 190 258 L451 0 L318 0 L58 255 L58 340 L143 340 Q193 340 224 361.5 Q255 383 265 423 L57 423 L57 506 L262 506 Q250 540 219.5 558 Q189 576 143 576 L58 576 L58 660 L451 660 L451 578 L340 578 Z " />
<glyph glyph-name="uni20BA" unicode="&#x20ba;" horiz-adv-x="528" d="M488 294 Q497 264 497 232 Q497 108 394.5 48.5 Q292 -11 110 -11 L110 219 L19 177 L19 270 L110 312 L110 387 L19 345 L19 439 L110 480 L110 660 L216 660 L216 529 L394 610 L394 517 L216 435 L216 360 L394 442 L394 349 L216 267 L216 88 Q297 96 350.5 135 Q404 174 404 241 Q404 256 400 294 L488 294 Z " />
<glyph glyph-name="uni20BD" unicode="&#x20bd;" horiz-adv-x="587" d="M337 660 Q430 660 487 609 Q544 558 544 472 Q544 416 518 373.5 Q492 331 445 307.5 Q398 284 337 284 L206 284 L206 207 L465 207 L465 119 L206 119 L206 0 L100 0 L100 119 L20 119 L20 207 L100 207 L100 284 L20 284 L20 375 L100 375 L100 660 L337 660 Z M206 569 L206 375 L332 375 Q381 375 410 401 Q439 427 439 471 Q439 516 410.5 542.5 Q382 569 332 569 L206 569 Z " />
<glyph glyph-name="yen" unicode="&#xa5;" horiz-adv-x="575" d="M569 660 L365 368 L529 368 L529 279 L341 279 L341 202 L529 202 L529 114 L341 114 L341 0 L235 0 L235 114 L48 114 L48 202 L235 202 L235 279 L48 279 L48 368 L211 368 L7 660 L125 660 L288 423 L451 660 L569 660 Z " />
<glyph glyph-name="uni2219" unicode="&#x2219;" horiz-adv-x="270" d="M136 395 Q169 395 191 373 Q213 351 213 317 Q213 284 191 262 Q169 240 136 240 Q103 240 80 262 Q57 284 57 317 Q57 350 80 372.5 Q103 395 136 395 Z " />
<glyph glyph-name="plus" unicode="&#x2b;" horiz-adv-x="560" d="M509 272 L333 272 L333 87 L231 87 L231 272 L51 272 L51 363 L231 363 L231 546 L333 546 L333 363 L509 363 L509 272 Z " />
<glyph glyph-name="minus" unicode="&#x2212;" horiz-adv-x="560" d="M509 363 L509 272 L50 272 L50 363 L509 363 Z " />
<glyph glyph-name="multiply" unicode="&#xd7;" horiz-adv-x="560" d="M432 534 L495 471 L343 319 L495 167 L432 104 L280 255 L128 104 L65 167 L216 319 L65 471 L128 534 L280 383 L432 534 Z " />
<glyph glyph-name="divide" unicode="&#xf7;" horiz-adv-x="560" d="M278 564 Q307 564 326.5 545.5 Q346 527 346 499 Q346 472 326 453 Q306 434 278 434 Q250 434 230 453 Q210 472 210 499 Q210 526 230 545 Q250 564 278 564 Z M509 363 L509 272 L50 272 L50 363 L509 363 Z M278 199 Q307 199 326.5 180.5 Q346 162 346 134 Q346 106 326.5 87.5 Q307 69 278 69 Q250 69 230 88 Q210 107 210 134 Q210 161 230 180 Q250 199 278 199 Z " />
<glyph glyph-name="equal" unicode="&#x3d;" horiz-adv-x="560" d="M500 469 L500 378 L61 378 L61 469 L500 469 Z M500 257 L500 166 L61 166 L61 257 L500 257 Z " />
<glyph glyph-name="notequal" unicode="&#x2260;" horiz-adv-x="560" d="M500 378 L366 378 L292 257 L500 257 L500 166 L236 166 L171 61 L76 61 L141 166 L61 166 L61 257 L197 257 L272 378 L61 378 L61 469 L328 469 L391 571 L485 571 L422 469 L500 469 L500 378 Z " />
<glyph glyph-name="greater" unicode="&#x3e;" horiz-adv-x="560" d="M65 529 L516 333 L516 303 L65 107 L65 202 L340 318 L65 434 L65 529 Z " />
<glyph glyph-name="less" unicode="&#x3c;" horiz-adv-x="560" d="M495 529 L495 434 L220 318 L495 202 L495 107 L44 303 L44 333 L495 529 Z " />
<glyph glyph-name="greaterequal" unicode="&#x2265;" horiz-adv-x="560" d="M64 543 L515 367 L515 338 L64 162 L64 256 L325 353 L64 449 L64 543 Z M64 0 L64 88 L503 88 L503 0 L64 0 Z " />
<glyph glyph-name="lessequal" unicode="&#x2264;" horiz-adv-x="560" d="M495 543 L495 449 L235 353 L495 256 L495 162 L44 338 L44 367 L495 543 Z M56 0 L56 88 L495 88 L495 0 L56 0 Z " />
<glyph glyph-name="plusminus" unicode="&#xb1;" horiz-adv-x="560" d="M332 546 L332 401 L500 401 L500 313 L332 313 L332 162 L229 162 L229 313 L61 313 L61 401 L229 401 L229 546 L332 546 Z M500 88 L500 0 L61 0 L61 88 L500 88 Z " />
<glyph glyph-name="approxequal" unicode="&#x2248;" horiz-adv-x="560" d="M153 527 Q191 527 237 501 L328 445 Q332 443 345.5 435.5 Q359 428 369 424.5 Q379 421 387 421 Q404 421 413 433 Q422 445 422 463 L422 480 L505 480 Q507 468 507 450 Q507 396 476.5 361 Q446 326 398 326 Q358 326 315 352 L224 407 Q203 420 190 426 Q177 432 165 432 Q148 432 138.5 420.5 Q129 409 129 390 L129 373 L47 373 Q45 385 45 403 Q45 456 75.5 491.5 Q106 527 153 527 Z M153 306 Q191 306 237 280 L328 224 Q332 222 345.5 214.5 Q359 207 369 203.5 Q379 200 387 200 Q404 200 413 212 Q422 224 422 242 L422 259 L505 259 Q507 247 507 229 Q507 175 476.5 140 Q446 105 398 105 Q358 105 315 131 L224 186 Q203 199 190 205 Q177 211 165 211 Q148 211 138.5 199.5 Q129 188 129 169 L129 152 L47 152 Q45 164 45 182 Q45 235 75.5 270.5 Q106 306 153 306 Z " />
<glyph glyph-name="asciitilde" unicode="&#x7e;" horiz-adv-x="560" d="M157 417 Q195 417 241 391 L332 335 Q336 333 349.5 325.5 Q363 318 373 314.5 Q383 311 391 311 Q408 311 417 323 Q426 335 426 353 L426 370 L509 370 Q511 358 511 340 Q511 286 480.5 251 Q450 216 402 216 Q362 216 319 242 L228 297 Q207 310 194 316 Q181 322 169 322 Q152 322 142.5 310.5 Q133 299 133 280 L133 263 L51 263 Q49 275 49 293 Q49 346 79.5 381.5 Q110 417 157 417 Z " />
<glyph glyph-name="logicalnot" unicode="&#xac;" horiz-adv-x="560" d="M478 363 L478 99 L377 99 L377 272 L49 272 L49 363 L478 363 Z " />
<glyph glyph-name="infinity" unicode="&#x221e;" horiz-adv-x="849" d="M631 500 Q688 500 732 475 Q776 450 800 407.5 Q824 365 824 316 Q824 266 800 224.5 Q776 183 732.5 158 Q689 133 632 133 Q568 133 519.5 163.5 Q471 194 424 248 Q376 194 327.5 163.5 Q279 133 215 133 Q159 133 115.5 158 Q72 183 48.5 224.5 Q25 266 25 316 Q25 365 48.5 407.5 Q72 450 115.5 475 Q159 500 217 500 Q281 500 329.5 470 Q378 440 424 388 Q472 441 520 470.5 Q568 500 631 500 Z M227 228 Q265 228 296.5 251 Q328 274 365 318 Q329 360 297 382.5 Q265 405 227 405 Q184 405 157 381.5 Q130 358 130 317 Q130 276 157 252 Q184 228 227 228 Z M622 228 Q665 228 692 252 Q719 276 719 317 Q719 358 692 381.5 Q665 405 621 405 Q583 405 551 382.5 Q519 360 483 318 Q520 274 552 251 Q584 228 622 228 Z " />
<glyph glyph-name="uni00B5" unicode="&#xb5;" horiz-adv-x="601" d="M583 88 L583 0 Q554 -8 521 -8 Q449 -8 421 47 Q400 19 368 4 Q336 -11 298 -11 Q262 -11 232 2.5 Q202 16 181 41 L181 -180 L76 -180 L76 491 L181 491 L181 203 Q181 150 212 117.5 Q243 85 290 85 Q338 85 369 117.5 Q400 150 400 203 L400 491 L505 491 L505 154 Q505 118 517 102 Q529 86 555 86 L583 88 Z " />
<glyph glyph-name="percent" unicode="&#x25;" horiz-adv-x="821" d="M213 671 Q258 671 296.5 649.5 Q335 628 357.5 591 Q380 554 380 509 Q380 463 357.5 426 Q335 389 297 367.5 Q259 346 213 346 Q167 346 129 367.5 Q91 389 68.5 426 Q46 463 46 509 Q46 554 68.5 591 Q91 628 129 649.5 Q167 671 213 671 Z M644 660 L265 0 L177 0 L555 660 L644 660 Z M213 597 Q177 597 153.5 572 Q130 547 130 509 Q130 471 153 446 Q176 421 213 421 Q249 421 272.5 446 Q296 471 296 509 Q296 547 272.5 572 Q249 597 213 597 Z M607 315 Q653 315 691.5 293.5 Q730 272 752.5 235 Q775 198 775 152 Q775 107 752.5 70 Q730 33 691.5 11.5 Q653 -10 607 -10 Q562 -10 523.5 11.5 Q485 33 463 70 Q441 107 441 152 Q441 198 463 235 Q485 272 523.5 293.5 Q562 315 607 315 Z M608 240 Q571 240 548 215 Q525 190 525 152 Q525 114 548 89.5 Q571 65 608 65 Q643 65 666.5 90 Q690 115 690 152 Q690 190 666.5 215 Q643 240 608 240 Z " />
<glyph glyph-name="perthousand" unicode="&#x2030;" horiz-adv-x="1202" d="M213 671 Q258 671 296.5 649.5 Q335 628 357.5 591 Q380 554 380 509 Q380 463 357.5 426 Q335 389 297 367.5 Q259 346 213 346 Q167 346 129 367.5 Q91 389 68.5 426 Q46 463 46 509 Q46 554 68.5 591 Q91 628 129 649.5 Q167 671 213 671 Z M644 660 L265 0 L177 0 L555 660 L644 660 Z M213 597 Q177 597 153.5 572 Q130 547 130 509 Q130 471 153 446 Q176 421 213 421 Q249 421 272.5 446 Q296 471 296 509 Q296 547 272.5 572 Q249 597 213 597 Z M990 316 Q1036 316 1074 294.5 Q1112 273 1134.5 236 Q1157 199 1157 153 Q1157 108 1134.5 71 Q1112 34 1073.5 12.5 Q1035 -9 990 -9 Q945 -9 906.5 12.5 Q868 34 845.5 71 Q823 108 823 153 Q823 199 845.5 236 Q868 273 906 294.5 Q944 316 990 316 Z M607 315 Q653 315 691.5 293.5 Q730 272 752.5 235 Q775 198 775 152 Q775 107 752.5 70 Q730 33 691.5 11.5 Q653 -10 607 -10 Q562 -10 523.5 11.5 Q485 33 463 70 Q441 107 441 152 Q441 198 463 235 Q485 272 523.5 293.5 Q562 315 607 315 Z M991 241 Q954 241 930.5 216 Q907 191 907 153 Q907 115 930.5 90.5 Q954 66 991 66 Q1026 66 1049.5 91 Q1073 116 1073 153 Q1073 191 1049.5 216 Q1026 241 991 241 Z M608 240 Q571 240 548 215 Q525 190 525 152 Q525 114 548 89.5 Q571 65 608 65 Q643 65 666.5 90 Q690 115 690 152 Q690 190 666.5 215 Q643 240 608 240 Z " />
<glyph glyph-name="arrowup" unicode="&#x2191;" horiz-adv-x="650" d="M607 320 L544 258 L372 430 L373 363 L373 42 L277 42 L277 363 L278 430 L106 258 L43 320 L314 592 L336 592 L607 320 Z " />
<glyph glyph-name="uni2197" unicode="&#x2197;" horiz-adv-x="650" d="M524 521 L539 506 L539 108 L446 108 L446 364 L404 320 L147 63 L81 128 L339 386 L387 432 L131 432 L131 521 L524 521 Z " />
<glyph glyph-name="arrowright" unicode="&#x2192;" horiz-adv-x="650" d="M340 600 L612 328 L612 307 L340 35 L277 97 L455 275 L386 273 L49 272 L49 363 L386 363 L454 361 L277 538 L340 600 Z " />
<glyph glyph-name="uni2198" unicode="&#x2198;" horiz-adv-x="650" d="M446 508 L539 508 L539 110 L524 95 L131 95 L131 184 L387 184 L339 230 L81 488 L147 553 L404 296 L446 252 L446 508 Z " />
<glyph glyph-name="arrowdown" unicode="&#x2193;" horiz-adv-x="650" d="M544 378 L607 315 L336 44 L314 44 L43 315 L106 378 L278 205 L277 273 L277 593 L373 593 L373 273 L372 205 L544 378 Z " />
<glyph glyph-name="uni2199" unicode="&#x2199;" horiz-adv-x="650" d="M311 230 L263 184 L519 184 L519 95 L126 95 L111 110 L111 508 L204 508 L204 252 L246 296 L503 553 L569 488 L311 230 Z " />
<glyph glyph-name="arrowleft" unicode="&#x2190;" horiz-adv-x="650" d="M601 272 L264 273 L195 275 L373 97 L310 35 L38 307 L38 328 L310 600 L373 538 L196 361 L264 363 L601 363 L601 272 Z " />
<glyph glyph-name="uni2196" unicode="&#x2196;" horiz-adv-x="650" d="M311 386 L569 128 L503 63 L246 320 L204 364 L204 108 L111 108 L111 506 L126 521 L519 521 L519 432 L263 432 L311 386 Z " />
<glyph glyph-name="arrowboth" unicode="&#x2194;" horiz-adv-x="934" d="M624 600 L896 328 L896 307 L624 35 L562 97 L739 275 L670 273 L559 273 L559 272 L386 272 L386 273 L264 273 L195 275 L373 97 L310 35 L38 307 L38 328 L310 600 L373 538 L196 361 L264 363 L670 363 L739 361 L562 538 L624 600 Z " />
<glyph glyph-name="arrowupdn" unicode="&#x2195;" horiz-adv-x="636" d="M365 93 L530 258 L593 196 L329 -68 L307 -68 L43 196 L106 258 L271 93 L270 161 L270 499 L271 567 L106 402 L43 464 L307 728 L329 728 L593 464 L530 402 L365 567 L366 499 L366 161 L365 93 Z " />
<glyph glyph-name="uni27F5" unicode="&#x27f5;" horiz-adv-x="1216" d="M1167 272 L279 273 L210 275 L388 97 L325 35 L53 307 L53 328 L325 600 L388 538 L211 361 L279 363 L1167 363 L1167 272 Z " />
<glyph glyph-name="uni27F6" unicode="&#x27f6;" horiz-adv-x="1216" d="M891 600 L1163 328 L1163 307 L891 35 L828 97 L1006 275 L937 273 L49 272 L49 363 L937 363 L1005 361 L828 538 L891 600 Z " />
<glyph glyph-name="uni25CF" unicode="&#x25cf;" horiz-adv-x="776" d="M388 659 Q477 659 552.5 614.5 Q628 570 672.5 494.5 Q717 419 717 330 Q717 241 672.5 165 Q628 89 552.5 44.5 Q477 0 388 0 Q299 0 223.5 44.5 Q148 89 103 165 Q58 241 58 330 Q58 419 102.5 494.5 Q147 570 223 614.5 Q299 659 388 659 Z " />
<glyph glyph-name="circle" unicode="&#x25cb;" horiz-adv-x="776" d="M388 659 Q477 659 552.5 614.5 Q628 570 672.5 494.5 Q717 419 717 330 Q717 241 672.5 165 Q628 89 552.5 44.5 Q477 0 388 0 Q299 0 223.5 44.5 Q148 89 103 165 Q58 241 58 330 Q58 419 102.5 494.5 Q147 570 223 614.5 Q299 659 388 659 Z M388 567 Q324 567 270.5 535.5 Q217 504 186 449.5 Q155 395 155 330 Q155 265 186 210.5 Q217 156 270.5 124.5 Q324 93 388 93 Q452 93 505.5 124.5 Q559 156 589.5 210.5 Q620 265 620 330 Q620 395 589.5 449.5 Q559 504 505.5 535.5 Q452 567 388 567 Z " />
<glyph glyph-name="lozenge" unicode="&#x25ca;" horiz-adv-x="665" d="M351 671 L564 330 L351 -11 L314 -11 L101 331 L314 671 L351 671 Z M211 331 L335 135 L455 330 L333 526 L211 331 Z " />
<glyph glyph-name="filledbox" unicode="&#x25a0;" horiz-adv-x="730" d="M640 605 L640 55 L90 55 L90 605 L640 605 Z " />
<glyph glyph-name="uni25A1" unicode="&#x25a1;" horiz-adv-x="730" d="M640 605 L640 55 L90 55 L90 605 L640 605 Z M542 513 L188 513 L188 147 L542 147 L542 513 Z " />
<glyph glyph-name="uni25AA" unicode="&#x25aa;" horiz-adv-x="541" d="M461 436 L461 56 L80 56 L80 436 L461 436 Z " />
<glyph glyph-name="uni25AB" unicode="&#x25ab;" horiz-adv-x="541" d="M461 436 L461 56 L80 56 L80 436 L461 436 Z M369 349 L172 349 L172 142 L369 142 L369 349 Z " />
<glyph glyph-name="triagup" unicode="&#x25b2;" horiz-adv-x="730" d="M374 660 L709 69 L701 55 L29 55 L21 69 L357 660 L374 660 Z " />
<glyph glyph-name="uni25B6" unicode="&#x25b6;" horiz-adv-x="645" d="M104 671 L622 338 L622 321 L104 -11 L90 -3 L90 663 L104 671 Z " />
<glyph glyph-name="triagdn" unicode="&#x25bc;" horiz-adv-x="730" d="M374 0 L357 0 L21 591 L29 605 L701 605 L709 591 L374 0 Z " />
<glyph glyph-name="uni25C0" unicode="&#x25c0;" horiz-adv-x="645" d="M541 671 L555 663 L555 -3 L541 -11 L23 321 L23 338 L541 671 Z " />
<glyph glyph-name="uni25B3" unicode="&#x25b3;" horiz-adv-x="730" d="M374 660 L709 69 L701 55 L29 55 L21 69 L357 660 L374 660 Z M553 152 L365 482 L177 152 L553 152 Z " />
<glyph glyph-name="uni25B7" unicode="&#x25b7;" horiz-adv-x="645" d="M104 671 L622 338 L622 321 L104 -11 L90 -3 L90 663 L104 671 Z M459 330 L188 504 L188 156 L459 330 Z " />
<glyph glyph-name="uni25BD" unicode="&#x25bd;" horiz-adv-x="730" d="M701 605 L709 591 L374 0 L357 0 L21 591 L29 605 L701 605 Z M553 508 L177 508 L365 178 L553 508 Z " />
<glyph glyph-name="uni25C1" unicode="&#x25c1;" horiz-adv-x="682" d="M578 671 L592 663 L592 -3 L578 -11 L60 321 L60 338 L578 671 Z M494 504 L223 330 L494 156 L494 504 Z " />
<glyph glyph-name="triagrt" unicode="&#x25ba;" horiz-adv-x="961" d="M104 671 L931 338 L931 321 L104 -11 L90 -3 L90 663 L104 671 Z " />
<glyph glyph-name="triaglf" unicode="&#x25c4;" horiz-adv-x="961" d="M857 671 L871 663 L871 -3 L857 -11 L30 321 L30 338 L857 671 Z " />
<glyph glyph-name="uni25BB" unicode="&#x25bb;" horiz-adv-x="961" d="M104 671 L931 338 L931 321 L104 -11 L90 -3 L90 663 L104 671 Z M696 330 L188 535 L188 125 L696 330 Z " />
<glyph glyph-name="uni25C5" unicode="&#x25c5;" horiz-adv-x="961" d="M857 671 L871 663 L871 -3 L857 -11 L30 321 L30 338 L857 671 Z M773 125 L773 535 L265 330 L773 125 Z " />
<glyph glyph-name="uni25B4" unicode="&#x25b4;" horiz-adv-x="528" d="M273 475 L503 70 L495 56 L33 56 L25 70 L256 475 L273 475 Z " />
<glyph glyph-name="uni25B8" unicode="&#x25b8;" horiz-adv-x="480" d="M94 482 L449 255 L449 238 L94 11 L80 19 L80 474 L94 482 Z " />
<glyph glyph-name="uni25BE" unicode="&#x25be;" horiz-adv-x="528" d="M495 436 L503 421 L273 17 L256 17 L25 421 L33 436 L495 436 Z " />
<glyph glyph-name="uni25C2" unicode="&#x25c2;" horiz-adv-x="480" d="M386 482 L400 474 L400 19 L386 11 L31 238 L31 255 L386 482 Z " />
<glyph glyph-name="uni25B5" unicode="&#x25b5;" horiz-adv-x="528" d="M273 475 L503 70 L495 56 L33 56 L25 70 L256 475 L273 475 Z M372 132 L264 321 L157 132 L372 132 Z " />
<glyph glyph-name="uni25B9" unicode="&#x25b9;" horiz-adv-x="480" d="M94 482 L449 255 L449 238 L94 11 L80 19 L80 474 L94 482 Z M312 246 L161 343 L161 150 L312 246 Z " />
<glyph glyph-name="uni25BF" unicode="&#x25bf;" horiz-adv-x="528" d="M495 436 L503 421 L273 17 L256 17 L25 421 L33 436 L495 436 Z M372 359 L157 359 L264 170 L372 359 Z " />
<glyph glyph-name="uni25C3" unicode="&#x25c3;" horiz-adv-x="480" d="M386 482 L400 474 L400 19 L386 11 L31 238 L31 255 L386 482 Z M319 150 L319 343 L168 246 L319 150 Z " />
<glyph glyph-name="uni261C" unicode="&#x261c;" horiz-adv-x="1214" d="M1184 247 L1097 174 L1147 -3 L1116 -23 L889 121 Q795 73 700 44.5 Q605 16 535 16 Q477 16 449.5 35.5 Q422 55 422 87 Q422 111 436 125 Q415 132 402.5 147 Q390 162 390 183 Q390 214 416 230 Q379 247 379 283 Q379 303 392 318 L204 322 Q119 324 80 347 Q41 370 41 420 Q41 474 86 493 Q131 512 233 512 Q314 512 407 503 Q408 548 435 572 Q462 596 499 596 Q539 596 578 572 L821 424 Q852 415 885 403 L1116 550 L1147 530 L1098 353 L1184 280 L1184 247 Z M518 526 Q506 526 498 518 Q490 510 488 494 Q556 485 619 473 L547 516 Q545 517 536.5 521.5 Q528 526 518 526 Z M525 82 Q581 82 682.5 111 Q784 140 864 186 L864 339 Q747 386 563 415.5 Q379 445 204 445 Q156 445 138 439.5 Q120 434 120 418 Q120 404 135 397.5 Q150 391 191 389 L311 385 L395 382 Q515 379 571 375 L571 315 L467 316 Q459 316 453.5 311.5 Q448 307 448 299 Q448 291 453.5 285.5 Q459 280 466 280 L582 280 L582 221 L477 221 Q470 221 465 216 Q460 211 460 202 Q460 194 465 189 Q470 184 477 184 L592 184 L592 124 Q559 119 519 119 L511 119 Q502 119 497 114.5 Q492 110 492 102 Q492 82 525 82 Z M937 353 L937 172 L1049 103 L1020 203 L1096 264 L1020 323 L1050 424 L937 353 Z " />
<glyph glyph-name="uni261E" unicode="&#x261e;" horiz-adv-x="1214" d="M993 512 Q1095 512 1139.5 493 Q1184 474 1184 420 Q1184 370 1145.5 347 Q1107 324 1022 322 L833 318 Q846 303 846 283 Q846 265 836.5 251.5 Q827 238 810 230 Q835 213 835 183 Q835 162 822.5 147 Q810 132 789 125 Q803 111 803 87 Q803 55 776 35.5 Q749 16 691 16 Q620 16 524.5 44.5 Q429 73 336 122 L109 -23 L79 -3 L129 174 L41 247 L41 280 L128 353 L79 530 L109 550 L340 403 Q367 412 405 424 L647 572 Q686 596 727 596 Q764 596 791 572 Q818 548 819 503 Q912 512 993 512 Z M607 473 Q673 485 737 494 Q736 510 728 518 Q720 526 708 526 Q697 526 679 516 L607 473 Z M1035 389 Q1075 391 1090.5 397.5 Q1106 404 1106 418 Q1106 434 1088 439.5 Q1070 445 1021 445 Q847 445 662.5 415.5 Q478 386 362 339 L362 186 Q442 140 543.5 111 Q645 82 701 82 Q734 82 734 102 Q734 110 729 114.5 Q724 119 715 119 L707 119 Q666 119 633 124 L633 184 L748 184 Q755 184 760 189 Q765 194 765 202 Q765 211 760.5 216 Q756 221 748 221 L643 221 L643 280 L760 280 Q767 280 772 285.5 Q777 291 777 299 Q777 307 771.5 311.5 Q766 316 758 316 L655 315 L655 375 Q708 379 830 382 L914 385 L1035 389 Z M289 173 L289 353 L176 424 L206 323 L130 264 L206 203 L176 103 L289 173 Z " />
<glyph glyph-name="uni2661" unicode="&#x2661;" horiz-adv-x="860" d="M614 671 Q666 671 710.5 646 Q755 621 781 576.5 Q807 532 807 475 Q807 425 783 381 Q759 337 699 271 L438 -11 L421 -11 L160 271 Q100 337 76.5 381.5 Q53 426 53 475 Q53 532 79 576.5 Q105 621 149.5 646 Q194 671 246 671 Q310 671 358.5 635.5 Q407 600 429 543 Q451 600 500.5 635.5 Q550 671 614 671 Z M618 328 Q659 374 677.5 405.5 Q696 437 696 472 Q696 517 668.5 544.5 Q641 572 598 572 Q545 572 509.5 527 Q474 482 456 412 L403 412 Q387 481 350 526.5 Q313 572 260 572 Q218 572 190.5 544.5 Q163 517 163 472 Q163 437 182 404.5 Q201 372 241 328 L430 120 L618 328 Z " />
<glyph glyph-name="heart" unicode="&#x2665;" horiz-adv-x="860" d="M614 671 Q666 671 710.5 646 Q755 621 781 576.5 Q807 532 807 475 Q807 425 783 381 Q759 337 699 271 L438 -11 L421 -11 L160 271 Q100 337 76.5 381.5 Q53 426 53 475 Q53 532 79 576.5 Q105 621 149.5 646 Q194 671 246 671 Q310 671 358.5 635.5 Q407 600 429 543 Q451 600 500.5 635.5 Q550 671 614 671 Z " />
<glyph glyph-name="uni275B" unicode="&#x275b;" horiz-adv-x="645" d="M383 425 Q442 425 492 396 Q542 367 571.5 316.5 Q601 266 601 207 Q601 149 573 99 Q545 49 492 19 Q439 -11 368 -11 Q280 -11 205.5 34 Q131 79 87 156.5 Q43 234 43 328 Q43 422 87 500.5 Q131 579 209 625 Q287 671 384 671 Q499 671 589 600 L546 533 Q477 586 389 586 Q318 586 260 552 Q202 518 169 459 Q136 400 136 328 Q136 260 165 202 L165 207 Q165 266 194.5 316 Q224 366 274 395.5 Q324 425 383 425 Z " />
<glyph glyph-name="uni275C" unicode="&#x275c;" horiz-adv-x="645" d="M277 671 Q365 671 439.5 626 Q514 581 557.5 503.5 Q601 426 601 332 Q601 238 557 159.5 Q513 81 435.5 35 Q358 -11 261 -11 Q146 -11 56 60 L99 127 Q168 74 256 74 Q327 74 385 108 Q443 142 476 201 Q509 260 509 332 Q509 401 479 459 L479 453 Q479 394 449.5 344 Q420 294 370 264.5 Q320 235 261 235 Q202 235 152 264 Q102 293 72.5 343.5 Q43 394 43 453 Q43 511 71 561 Q99 611 152.5 641 Q206 671 277 671 Z " />
<glyph glyph-name="uni275D" unicode="&#x275d;" horiz-adv-x="1262" d="M1000 425 Q1059 425 1109 396 Q1159 367 1188.5 316.5 Q1218 266 1218 207 Q1218 149 1190 99 Q1162 49 1109 19 Q1056 -11 985 -11 Q897 -11 822.5 34 Q748 79 704 156.5 Q660 234 660 328 Q660 422 704 500.5 Q748 579 826 625 Q904 671 1001 671 Q1116 671 1206 600 L1163 533 Q1094 586 1006 586 Q935 586 877 552 Q819 518 786 459 Q753 400 753 328 Q753 260 782 202 L782 207 Q782 266 811.5 316 Q841 366 891 395.5 Q941 425 1000 425 Z M383 425 Q442 425 492 396 Q542 367 571.5 316.5 Q601 266 601 207 Q601 149 573 99 Q545 49 492 19 Q439 -11 368 -11 Q280 -11 205.5 34 Q131 79 87 156.5 Q43 234 43 328 Q43 422 87 500.5 Q131 579 209 625 Q287 671 384 671 Q499 671 589 600 L546 533 Q477 586 389 586 Q318 586 260 552 Q202 518 169 459 Q136 400 136 328 Q136 260 165 202 L165 207 Q165 266 194.5 316 Q224 366 274 395.5 Q324 425 383 425 Z " />
<glyph glyph-name="uni275E" unicode="&#x275e;" horiz-adv-x="1265" d="M277 671 Q365 671 439.5 626 Q514 581 557.5 503.5 Q601 426 601 332 Q601 238 557 159.5 Q513 81 435.5 35 Q358 -11 261 -11 Q146 -11 56 60 L99 127 Q168 74 256 74 Q327 74 385 108 Q443 142 476 201 Q509 260 509 332 Q509 401 479 459 L479 453 Q479 394 449.5 344 Q420 294 370 264.5 Q320 235 261 235 Q202 235 152 264 Q102 293 72.5 343.5 Q43 394 43 453 Q43 511 71 561 Q99 611 152.5 641 Q206 671 277 671 Z M897 671 Q985 671 1059.5 626 Q1134 581 1177.5 503.5 Q1221 426 1221 332 Q1221 238 1177 159.5 Q1133 81 1055.5 35 Q978 -11 881 -11 Q766 -11 676 60 L719 127 Q788 74 876 74 Q947 74 1005 108 Q1063 142 1096 201 Q1129 260 1129 332 Q1129 401 1099 459 L1099 453 Q1099 394 1069.5 344 Q1040 294 990 264.5 Q940 235 881 235 Q822 235 772 264 Q722 293 692.5 343.5 Q663 394 663 453 Q663 511 691 561 Q719 611 772.5 641 Q826 671 897 671 Z " />
<glyph glyph-name="uniF8FF" unicode="&#xf8ff;" horiz-adv-x="722" d="M99 0 L99 660 L623 660 L623 0 L99 0 Z M458 123 Q494 123 516 145.5 Q538 168 538 199 Q538 226 521 254.5 Q504 283 476 300 L452 275 Q475 253 486 235 Q497 217 497 199 Q497 182 487 171 Q477 160 460 160 Q437 160 417 187 Q397 214 363 290 Q445 337 473.5 367.5 Q502 398 502 430 Q502 469 474.5 490.5 Q447 512 400 512 Q389 512 367 510 L393 565 L352 572 L319 501 Q273 492 216 465 Q193 401 193 304 Q193 224 213 146 L255 138 Q278 254 298 324.5 Q318 395 350 472 Q370 476 391 476 Q461 476 461 426 Q461 409 450.5 394.5 Q440 380 410.5 359 Q381 338 321 304 L320 298 Q346 231 365.5 195 Q385 159 406.5 141 Q428 123 458 123 Z M231 202 Q229 237 229 283 Q229 371 252 440 Q276 453 303 460 Q252 330 238 202 L231 202 Z " />
<glyph glyph-name="at" unicode="&#x40;" horiz-adv-x="937" d="M481 661 Q597 661 691.5 610.5 Q786 560 840 473.5 Q894 387 894 284 Q894 163 819.5 98 Q745 33 623 33 L586 33 L586 90 Q564 57 526.5 39.5 Q489 22 444 22 Q387 22 341.5 50 Q296 78 270 127 Q244 176 244 237 Q244 298 270 347 Q296 396 341.5 424 Q387 452 445 452 Q488 452 524 436 Q560 420 582 391 L582 443 L674 443 L674 119 Q735 124 770 165.5 Q805 207 805 284 Q805 368 765 434.5 Q725 501 651.5 539 Q578 577 483 577 Q383 577 303 534.5 Q223 492 178 416 Q133 340 133 244 Q133 147 178.5 71 Q224 -5 302 -47.5 Q380 -90 474 -90 Q535 -90 599 -71 L616 -147 Q547 -174 464 -174 Q349 -174 252.5 -119.5 Q156 -65 99.5 30 Q43 125 43 242 Q43 362 101.5 457.5 Q160 553 260 607 Q360 661 481 661 Z M463 113 Q509 113 542.5 145 Q576 177 576 238 Q576 299 543.5 330.5 Q511 362 464 362 Q414 362 380 327.5 Q346 293 346 237 Q346 182 379.5 147.5 Q413 113 463 113 Z " />
<glyph glyph-name="ampersand" unicode="&#x26;" horiz-adv-x="649" d="M622 293 Q618 288 591 247 Q540 169 510 133 L619 0 L494 0 L443 62 Q359 -11 257 -11 Q198 -11 150 11 Q102 33 75 73.5 Q48 114 48 166 Q48 226 83.5 271.5 Q119 317 188 369 Q157 410 141 446 Q125 482 125 520 Q125 587 167.5 629 Q210 671 281 671 Q350 671 392.5 631 Q435 591 435 531 Q435 482 407 441.5 Q379 401 325 357 L444 212 Q446 214 497 290 L538 351 L622 293 Z M281 579 Q253 579 238 563 Q223 547 223 520 Q223 495 234.5 473.5 Q246 452 270 423 Q304 451 320.5 473.5 Q337 496 337 523 Q337 548 323 563.5 Q309 579 281 579 Z M262 84 Q294 84 323 97.5 Q352 111 380 137 L247 298 Q197 258 176.5 234 Q156 210 156 176 Q156 136 186 110 Q216 84 262 84 Z " />
<glyph glyph-name="paragraph" unicode="&#xb6;" horiz-adv-x="588" d="M338 227 L278 227 Q210 227 154.5 254 Q99 281 67.5 330.5 Q36 380 36 445 Q36 510 67.5 558.5 Q99 607 154 633.5 Q209 660 278 660 L338 660 L338 227 Z M505 -14 Q505 -105 457.5 -148 Q410 -191 323 -191 Q285 -191 237 -180 L237 -90 Q255 -92 263 -92 Q284 -95 302 -95 Q351 -95 375.5 -74.5 Q400 -54 400 -4 L400 660 L505 660 L505 -14 Z " />
<glyph glyph-name="section" unicode="&#xa7;" horiz-adv-x="590" d="M558 179 Q558 127 526 92 Q494 57 438 43 Q439 38 439 26 Q439 -40 391.5 -83 Q344 -126 265 -126 Q208 -126 161 -101.5 Q114 -77 81 -29 L152 29 Q178 -3 205.5 -18.5 Q233 -34 267 -34 Q300 -34 318 -19 Q336 -4 336 24 Q336 54 317 74.5 Q298 95 250 131 L151 207 Q89 251 60.5 288.5 Q32 326 32 372 Q32 424 64 459 Q96 494 152 508 Q151 513 151 525 Q151 568 172.5 602.5 Q194 637 233.5 657 Q273 677 326 677 Q382 677 429 652.5 Q476 628 509 580 L438 521 Q412 553 384.5 568.5 Q357 584 323 584 Q290 584 272 569.5 Q254 555 254 527 Q254 497 273 476.5 Q292 456 340 419 L439 344 Q501 300 529.5 263 Q558 226 558 179 Z M408 118 Q431 127 443.5 141 Q456 155 456 178 Q456 199 440.5 217 Q425 235 379 269 L277 347 Q210 395 182 433 Q135 415 135 373 Q135 352 150 334 Q165 316 211 281 L310 206 Q379 157 408 118 Z " />
<glyph glyph-name="copyright" unicode="&#xa9;" horiz-adv-x="780" d="M389 671 Q482 671 562 626 Q642 581 689 502.5 Q736 424 736 330 Q736 235 689 157 Q642 79 562 34 Q482 -11 389 -11 Q296 -11 216.5 34 Q137 79 90 157 Q43 235 43 330 Q43 425 90 503 Q137 581 216.5 626 Q296 671 389 671 Z M389 604 Q316 604 253.5 569.5 Q191 535 154 472.5 Q117 410 117 330 Q117 250 154 187.5 Q191 125 253.5 90.5 Q316 56 389 56 Q462 56 525 90.5 Q588 125 625.5 187.5 Q663 250 663 330 Q663 410 625.5 472.5 Q588 535 525 569.5 Q462 604 389 604 Z M398 519 Q444 519 483 498.5 Q522 478 550 441 L490 389 Q453 439 400 439 Q354 439 325 408 Q296 377 296 330 Q296 284 325 253 Q354 222 399 222 Q454 222 490 271 L550 219 Q522 183 483 162.5 Q444 142 397 142 Q345 142 301.5 166.5 Q258 191 233 234 Q208 277 208 330 Q208 383 233 426.5 Q258 470 301.5 494.5 Q345 519 398 519 Z " />
<glyph glyph-name="registered" unicode="&#xae;" horiz-adv-x="572" d="M287 688 Q354 688 410.5 654 Q467 620 500.5 561.5 Q534 503 534 435 Q534 367 500.5 309 Q467 251 410.5 217 Q354 183 287 183 Q220 183 162.5 217 Q105 251 71.5 309 Q38 367 38 435 Q38 503 71.5 561.5 Q105 620 162.5 654 Q220 688 287 688 Z M287 240 Q339 240 382.5 265.5 Q426 291 451 336 Q476 381 476 436 Q476 490 451 535 Q426 580 382.5 605.5 Q339 631 287 631 Q234 631 191 605.5 Q148 580 123 535 Q98 490 98 436 Q98 381 123 336.5 Q148 292 191 266 Q234 240 287 240 Z M387 475 Q387 451 376 433 Q365 415 346 404 L415 310 L344 310 L284 389 L252 389 L252 310 L188 310 L188 561 L291 561 Q332 561 359.5 537.5 Q387 514 387 475 Z M252 445 L290 445 Q304 445 312.5 453 Q321 461 321 474 Q321 488 312.5 496.5 Q304 505 290 505 L252 505 L252 445 Z " />
<glyph glyph-name="trademark" unicode="&#x2122;" horiz-adv-x="971" d="M900 667 L900 211 L811 211 L811 459 L696 309 L666 309 L552 459 L552 211 L462 211 L462 667 L492 667 L682 422 L871 667 L900 667 Z M392 660 L392 579 L246 579 L246 211 L158 211 L158 579 L12 579 L12 660 L392 660 Z " />
<glyph glyph-name="degree" unicode="&#xb0;" horiz-adv-x="361" d="M180 671 Q222 671 257 651 Q292 631 312.5 596.5 Q333 562 333 521 Q333 480 312.5 445.5 Q292 411 257 391 Q222 371 180 371 Q138 371 103.5 391 Q69 411 48.5 445.5 Q28 480 28 521 Q28 562 48.5 596.5 Q69 631 103.5 651 Q138 671 180 671 Z M180 598 Q149 598 127 575.5 Q105 553 105 521 Q105 489 127 466.5 Q149 444 180 444 Q213 444 234.5 466 Q256 488 256 521 Q256 554 234.5 576 Q213 598 180 598 Z " />
<glyph glyph-name="bar" unicode="&#x7c;" horiz-adv-x="332" d="M210 780 L210 -121 L122 -121 L122 780 L210 780 Z " />
<glyph glyph-name="brokenbar" unicode="&#xa6;" horiz-adv-x="332" d="M210 780 L210 480 L122 480 L122 780 L210 780 Z M210 179 L210 -121 L122 -121 L122 179 L210 179 Z " />
<glyph glyph-name="uni2113" unicode="&#x2113;" horiz-adv-x="459" d="M211 185 Q211 84 310 84 Q337 84 403 94 L403 5 Q350 -11 292 -11 Q206 -11 158.5 32 Q111 75 107 160 L54 122 L4 202 Q51 236 107 280 L107 558 Q107 662 152 711.5 Q197 761 275 761 Q347 761 386.5 721.5 Q426 682 426 600 Q426 507 373 421 Q320 335 211 242 L211 185 Z M211 369 Q274 429 304 482.5 Q334 536 334 595 Q334 672 280 672 Q248 672 229.5 646 Q211 620 211 563 L211 369 Z " />
<glyph glyph-name="dagger" unicode="&#x2020;" horiz-adv-x="467" d="M286 750 L286 611 L412 611 L412 520 L286 520 L286 287 L181 287 L181 520 L55 520 L55 611 L181 611 L181 750 L286 750 Z " />
<glyph glyph-name="daggerdbl" unicode="&#x2021;" horiz-adv-x="467" d="M286 750 L286 641 L412 641 L412 550 L286 550 L286 419 L412 419 L412 328 L286 328 L286 218 L181 218 L181 328 L55 328 L55 419 L181 419 L181 550 L55 550 L55 641 L181 641 L181 750 L286 750 Z " />
<glyph glyph-name="estimated" unicode="&#x212e;" horiz-adv-x="795" d="M187 327 L187 127 Q223 78 278.5 50.5 Q334 23 407 23 Q485 23 551.5 55.5 Q618 88 662 141 L687 119 Q638 59 565 24.5 Q492 -10 407 -10 Q309 -10 229.5 35 Q150 80 105 156.5 Q60 233 60 326 Q60 421 107 500 Q154 579 233 624.5 Q312 670 403 670 Q484 670 561 633.5 Q638 597 686.5 531 Q735 465 735 381 Q735 364 733.5 348 Q732 332 731 327 L187 327 Z M407 636 Q337 636 280.5 608.5 Q224 581 187 532 L187 360 L608 360 L608 547 Q572 590 520.5 613 Q469 636 407 636 Z " />
<glyph glyph-name="uni2116" unicode="&#x2116;" horiz-adv-x="1125" d="M521 215 L521 660 L627 660 L627 -11 L591 -11 L189 447 L189 0 L83 0 L83 671 L120 671 L521 215 Z M913 237 Q867 237 829 258.5 Q791 280 768.5 317 Q746 354 746 399 Q746 445 768.5 482 Q791 519 829 540.5 Q867 562 913 562 Q959 562 997 540.5 Q1035 519 1057.5 482 Q1080 445 1080 399 Q1080 354 1057.5 317 Q1035 280 996.5 258.5 Q958 237 913 237 Z M913 487 Q876 487 852.5 462.5 Q829 438 829 399 Q829 361 852.5 336.5 Q876 312 913 312 Q950 312 973.5 336.5 Q997 361 997 399 Q997 437 973.5 462 Q950 487 913 487 Z M753 94 L753 165 L1075 165 L1075 94 L753 94 Z " />
<glyph glyph-name="asciicircum" unicode="&#x5e;" horiz-adv-x="524" d="M469 280 L365 280 L262 496 L159 280 L55 280 L244 670 L280 670 L469 280 Z " />
<glyph glyph-name="minute" unicode="&#x2032;" horiz-adv-x="268" d="M228 660 L149 382 L67 382 L106 660 L228 660 Z " />
<glyph glyph-name="second" unicode="&#x2033;" horiz-adv-x="477" d="M228 660 L149 382 L67 382 L106 660 L228 660 Z M438 660 L359 382 L277 382 L316 660 L438 660 Z " />
<glyph glyph-name="uni030C" unicode="&#x30c;" d="M-30 750 L-74 542 L-150 542 L-141 750 L-30 750 Z " />
<glyph glyph-name="uni0326" unicode="&#x326;" d="M-30 -48 L-56 -220 L-137 -220 L-131 -48 L-30 -48 Z " />
<glyph glyph-name="acute" unicode="&#xb4;" horiz-adv-x="266" d="M236 780 L236 761 L108 568 L30 568 L109 780 L236 780 Z " />
<glyph glyph-name="breve" unicode="&#x2d8;" horiz-adv-x="384" d="M354 742 Q354 696 333.5 659 Q313 622 276 601 Q239 580 192 580 Q145 580 108 601 Q71 622 50.5 659 Q30 696 30 742 L115 742 Q115 704 136.5 682 Q158 660 192 660 Q226 660 248 682 Q270 704 270 742 L354 742 Z " />
<glyph glyph-name="caron" unicode="&#x2c7;" horiz-adv-x="398" d="M289 780 L368 780 L233 568 L165 568 L30 780 L109 780 L199 671 L289 780 Z " />
<glyph glyph-name="cedilla" unicode="&#xb8;" horiz-adv-x="274" d="M178 35 Q209 19 226.5 -8.5 Q244 -36 244 -71 Q244 -122 205.5 -156.5 Q167 -191 101 -191 Q68 -191 30 -182 L30 -110 Q68 -113 88 -113 Q120 -113 139 -97.5 Q158 -82 158 -52 Q158 -19 135 14 L178 35 Z " />
<glyph glyph-name="circumflex" unicode="&#x2c6;" horiz-adv-x="398" d="M368 568 L289 568 L199 677 L109 568 L30 568 L165 780 L233 780 L368 568 Z " />
<glyph glyph-name="dieresis" unicode="&#xa8;" horiz-adv-x="420" d="M98 740 Q126 740 145.5 721 Q165 702 165 674 Q165 648 145.5 628.5 Q126 609 98 609 Q71 609 50.5 628.5 Q30 648 30 674 Q30 702 50.5 721 Q71 740 98 740 Z M322 740 Q351 740 370.5 721 Q390 702 390 674 Q390 648 370 628.5 Q350 609 322 609 Q296 609 275.5 628.5 Q255 648 255 674 Q255 702 275.5 721 Q296 740 322 740 Z " />
<glyph glyph-name="dotaccent" unicode="&#x2d9;" horiz-adv-x="204" d="M102 744 Q131 744 152.5 723.5 Q174 703 174 674 Q174 645 153 625 Q132 605 102 605 Q72 605 51 625 Q30 645 30 674 Q30 703 51 723.5 Q72 744 102 744 Z " />
<glyph glyph-name="grave" unicode="&#x60;" horiz-adv-x="266" d="M157 780 L236 568 L158 568 L30 761 L30 780 L157 780 Z " />
<glyph glyph-name="hungarumlaut" unicode="&#x2dd;" horiz-adv-x="429" d="M220 780 L220 761 L102 568 L30 568 L109 780 L220 780 Z M399 780 L399 761 L282 568 L209 568 L288 780 L399 780 Z " />
<glyph glyph-name="overscore" unicode="&#xaf;" horiz-adv-x="348" d="M318 716 L318 632 L30 632 L30 716 L318 716 Z " />
<glyph glyph-name="ogonek" unicode="&#x2db;" horiz-adv-x="253" d="M217 0 L173 -29 Q147 -45 137 -54.5 Q127 -64 127 -79 Q127 -95 138 -103.5 Q149 -112 169 -112 Q183 -112 217 -106 L217 -179 Q177 -191 139 -191 Q87 -191 56 -165.5 Q25 -140 25 -98 Q25 -57 59 -25.5 Q93 6 175 44 L217 0 Z " />
<glyph glyph-name="ring" unicode="&#x2da;" horiz-adv-x="297" d="M148 785 Q199 785 233 751.5 Q267 718 267 669 Q267 621 233 587.5 Q199 554 148 554 Q97 554 63.5 587.5 Q30 621 30 669 Q30 718 63.5 751.5 Q97 785 148 785 Z M149 716 Q129 716 116 702.5 Q103 689 103 669 Q103 650 116 637 Q129 624 149 624 Q169 624 181.5 637 Q194 650 194 669 Q194 689 181 702.5 Q168 716 149 716 Z " />
<glyph glyph-name="tilde" unicode="&#x2dc;" horiz-adv-x="409" d="M129 748 Q167 748 199 724 L226 704 Q239 693 248 688.5 Q257 684 267 684 Q281 684 288 694.5 Q295 705 295 722 L295 736 L378 736 Q379 726 379 707 Q379 654 351.5 620.5 Q324 587 280 587 Q245 587 210 611 L184 631 Q182 633 173 639.5 Q164 646 156.5 649 Q149 652 142 652 Q114 652 114 614 L114 600 L32 600 Q30 610 30 629 Q30 682 57.5 715 Q85 748 129 748 Z " />
</font>
</svg>
